GeoramaExtraCondensed-MediumItalic.ufo
<glyph name="exclam" format="2">
  <advance width="146.11"/>
  <unicode hex="0021"/>
  <outline>
    <contour>
      <point x="33.96" y="261.85" type="line"/>
      <point x="105.28" y="261.85" type="line"/>
      <point x="188.88" y="740.0" type="line"/>
      <point x="105.95" y="740.0" type="line"/>
    </contour>
    <contour>
      <point x="-9.75" y="34.51" type="curve" smooth="yes"/>
      <point x="-10.32" y="8.02"/>
      <point x="0.14" y="-4.3"/>
      <point x="27.91" y="-4.3" type="curve" smooth="yes"/>
      <point x="73.58" y="-4.3"/>
      <point x="84.33" y="37.12"/>
      <point x="86.03999999999999" y="77.32" type="curve" smooth="yes"/>
      <point x="86.61" y="104.38"/>
      <point x="75.00999999999999" y="116.13"/>
      <point x="47.81" y="116.13" type="curve" smooth="yes"/>
      <point x="4.14" y="116.13"/>
      <point x="-8.04" y="75.57"/>
    </contour>
  </outline>
</glyph>
<glyph name="numbersign" format="2">
  <advance width="323.1"/>
  <unicode hex="0023"/>
  <outline>
    <contour>
      <point x="68.58" y="443.72" type="line"/>
      <point x="113.98" y="443.72" type="line"/>
      <point x="65.34" y="252.26" type="line"/>
      <point x="21.64" y="252.26" type="line"/>
      <point x="8.61" y="173.63" type="line"/>
      <point x="48.73" y="173.63" type="line"/>
      <point x="5.91" y="0.0" type="line"/>
      <point x="66.47" y="0.0" type="line"/>
      <point x="108.72" y="173.63" type="line"/>
      <point x="158.09" y="173.63" type="line"/>
      <point x="115.84" y="0.0" type="line"/>
      <point x="175.4" y="0.0" type="line"/>
      <point x="217.65" y="173.63" type="line"/>
      <point x="266.2" y="173.63" type="line"/>
      <point x="278.65999999999997" y="252.26" type="line"/>
      <point x="234.26" y="252.26" type="line"/>
      <point x="282.9" y="443.72" type="line"/>
      <point x="325.6" y="443.72" type="line"/>
      <point x="338.49" y="523.21" type="line"/>
      <point x="299.51" y="523.21" type="line"/>
      <point x="343.05" y="700.0" type="line"/>
      <point x="283.06" y="700.0" type="line"/>
      <point x="239.52" y="523.21" type="line"/>
      <point x="190.15" y="523.21" type="line"/>
      <point x="233.69" y="700.0" type="line"/>
      <point x="174.13" y="700.0" type="line"/>
      <point x="130.59" y="523.21" type="line"/>
      <point x="81.47" y="523.21" type="line"/>
    </contour>
    <contour>
      <point x="173.54" y="443.72" type="line"/>
      <point x="222.91" y="443.72" type="line"/>
      <point x="174.7" y="252.26" type="line"/>
      <point x="125.33" y="252.26" type="line"/>
    </contour>
  </outline>
</glyph>
<glyph name="dollar" format="2">
  <advance width="323.1"/>
  <unicode hex="0024"/>
  <outline>
    <contour>
      <point x="331.24" y="686.54" type="line"/>
      <point x="316.65999999999997" y="696.12"/>
      <point x="292.78" y="704.7"/>
      <point x="264.76" y="708.28" type="curve"/>
      <point x="279.76" y="804.14" type="line"/>
      <point x="206.72" y="804.14" type="line"/>
      <point x="189.86" y="702.12" type="line"/>
      <point x="101.44" y="683.94"/>
      <point x="69.12" y="589.98"/>
      <point x="69.12" y="514.52" type="curve" smooth="yes"/>
      <point x="69.12" y="360.16"/>
      <point x="189.92" y="284.54"/>
      <point x="189.92" y="183.34" type="curve" smooth="yes"/>
      <point x="189.92" y="126.68"/>
      <point x="161.94" y="72.78"/>
      <point x="101.86" y="72.78" type="curve" smooth="yes"/>
      <point x="72.56" y="72.78"/>
      <point x="45.54" y="78.36"/>
      <point x="15.36" y="93.66" type="curve"/>
      <point x="-14.56" y="17.18" type="line"/>
      <point x="5.32" y="4.88"/>
      <point x="33.62" y="-4.7"/>
      <point x="61.62" y="-7.42" type="curve"/>
      <point x="46.62" y="-105.0" type="line"/>
      <point x="119.66" y="-105.0" type="line"/>
      <point x="134.66" y="-5.5600000000000005" type="line"/>
      <point x="233.24" y="10.9"/>
      <point x="270.98" y="107.46"/>
      <point x="270.98" y="186.62" type="curve" smooth="yes"/>
      <point x="270.98" y="340.84"/>
      <point x="153.62" y="411.02"/>
      <point x="153.62" y="513.94" type="curve" smooth="yes"/>
      <point x="153.62" y="564.32"/>
      <point x="177.9" y="624.92"/>
      <point x="237.42000000000002" y="624.92" type="curve" smooth="yes"/>
      <point x="258.26" y="624.92"/>
      <point x="277.86" y="620.92"/>
      <point x="302.32" y="609.48" type="curve"/>
    </contour>
  </outline>
</glyph>
<glyph name="ampersand" format="2">
  <advance width="396.98"/>
  <unicode hex="0026"/>
  <outline>
    <contour>
      <point x="152.45" y="-10.0" type="curve" smooth="yes"/>
      <point x="278.42" y="-10.0"/>
      <point x="371.31" y="156.28"/>
      <point x="329.53" y="294.43" type="curve"/>
      <point x="263.37" y="289.4" type="line"/>
      <point x="306.15" y="192.48"/>
      <point x="235.17000000000002" y="68.63"/>
      <point x="165.2" y="68.63" type="curve" smooth="yes"/>
      <point x="111.61" y="68.63"/>
      <point x="85.32" y="108.19999999999999"/>
      <point x="85.32" y="174.6" type="curve" smooth="yes"/>
      <point x="85.32" y="288.89"/>
      <point x="151.81" y="384.52"/>
      <point x="243.58" y="384.52" type="curve" smooth="yes"/>
      <point x="255.3" y="384.52" type="line"/>
      <point x="269.48" y="445.95" type="line"/>
      <point x="256.75" y="447.67" type="line" smooth="yes"/>
      <point x="210.93" y="450.25"/>
      <point x="189.96" y="482.35"/>
      <point x="189.96" y="536.54" type="curve" smooth="yes"/>
      <point x="189.96" y="593.17"/>
      <point x="224.21" y="634.38"/>
      <point x="264.44" y="634.38" type="curve" smooth="yes"/>
      <point x="287.43" y="634.38"/>
      <point x="304.57" y="629.53"/>
      <point x="327.28" y="612.11" type="curve"/>
      <point x="363.37" y="679.71" type="line"/>
      <point x="330.76" y="699.57"/>
      <point x="299.31" y="710.0"/>
      <point x="258.84" y="710.0" type="curve" smooth="yes"/>
      <point x="171.93" y="710.0"/>
      <point x="114.2" y="634.27"/>
      <point x="114.2" y="544.86" type="curve" smooth="yes"/>
      <point x="114.2" y="486.89"/>
      <point x="134.05" y="446.34"/>
      <point x="174.49" y="419.74" type="curve"/>
      <point x="78.53" y="392.02"/>
      <point x="7.84" y="293.23"/>
      <point x="7.84" y="156.82999999999998" type="curve" smooth="yes"/>
      <point x="7.84" y="58.5"/>
      <point x="56.61" y="-10.0"/>
    </contour>
    <contour>
      <point x="222.46" y="241.18" type="line"/>
      <point x="225.31" y="264.63"/>
      <point x="234.59" y="279.08"/>
      <point x="256.03" y="279.08" type="curve" smooth="yes"/>
      <point x="284.03" y="279.08"/>
      <point x="306.48" y="272.24"/>
      <point x="337.03" y="272.24" type="curve" smooth="yes"/>
      <point x="383.39" y="272.24"/>
      <point x="413.58" y="315.35"/>
      <point x="408.82" y="361.58" type="curve"/>
      <point x="357.13" y="366.71" type="line"/>
      <point x="352.28" y="332.36"/>
      <point x="335.98" y="325.79"/>
      <point x="306.08" y="325.79" type="curve" smooth="yes"/>
      <point x="287.24" y="325.79"/>
      <point x="264.98" y="332.63"/>
      <point x="245.0" y="332.63" type="curve" smooth="yes"/>
      <point x="192.48" y="332.63"/>
      <point x="173.61" y="293.25"/>
      <point x="168.48" y="252.19" type="curve"/>
    </contour>
  </outline>
</glyph>
<glyph name="quotesingle" format="2">
  <advance width="143.68"/>
  <unicode hex="0027"/>
  <outline>
    <contour>
      <point x="60.96" y="427.0" type="line"/>
      <point x="128.57" y="427.0" type="line"/>
      <point x="178.15" y="700.0" type="line"/>
      <point x="99.53" y="700.0" type="line"/>
    </contour>
  </outline>
</glyph>
<glyph name="parenleft" format="2">
  <advance width="195.11"/>
  <unicode hex="0028"/>
  <outline>
    <contour>
      <point x="13.540000000000001" y="5.800000000000001" type="curve" smooth="yes"/>
      <point x="13.540000000000001" y="-118.7"/>
      <point x="42.15" y="-199.44"/>
      <point x="101.97" y="-220.0" type="curve"/>
      <point x="120.99000000000001" y="-142.94" type="line"/>
      <point x="97.41" y="-126.22"/>
      <point x="80.13" y="-75.0"/>
      <point x="80.13" y="13.809999999999999" type="curve" smooth="yes"/>
      <point x="80.13" y="161.11"/>
      <point x="149.95" y="630.9"/>
      <point x="249.22" y="670.66" type="curve"/>
      <point x="255.98" y="749.43" type="line"/>
      <point x="85.95" y="703.26"/>
      <point x="13.540000000000001" y="232.68"/>
    </contour>
  </outline>
</glyph>
<glyph name="parenright" format="2">
  <advance width="195.11"/>
  <unicode hex="0029"/>
  <outline>
    <contour>
      <point x="179.14" y="524.2" type="curve" smooth="yes"/>
      <point x="179.14" y="648.7"/>
      <point x="151.1" y="729.44"/>
      <point x="91.28" y="750.0" type="curve"/>
      <point x="73.4" y="671.23" type="line"/>
      <point x="98.12" y="651.09"/>
      <point x="112.55" y="603.86"/>
      <point x="112.55" y="523.6" type="curve" smooth="yes"/>
      <point x="112.55" y="369.46"/>
      <point x="42.16" y="-102.61"/>
      <point x="-57.11" y="-141.8" type="curve"/>
      <point x="-63.3" y="-220.0" type="line"/>
      <point x="105.59" y="-170.41"/>
      <point x="179.14" y="298.46"/>
    </contour>
  </outline>
</glyph>
<glyph name="asterisk" format="2">
  <advance width="237.92000000000002"/>
  <unicode hex="002A"/>
  <outline>
    <contour>
      <point x="90.8" y="410.33" type="line"/>
      <point x="152.39" y="486.73" type="line"/>
      <point x="188.56" y="410.9" type="line"/>
      <point x="226.35" y="436.38" type="line"/>
      <point x="197.78" y="521.79" type="line"/>
      <point x="276.78999999999996" y="562.5" type="line"/>
      <point x="269.78" y="604.73" type="line"/>
      <point x="191.62" y="576.19" type="line"/>
      <point x="203.03" y="676.73" type="line"/>
      <point x="161.23" y="676.73" type="line"/>
      <point x="140.36" y="576.76" type="line"/>
      <point x="72.48" y="605.3" type="line"/>
      <point x="52.01" y="563.64" type="line"/>
      <point x="115.73" y="522.93" type="line"/>
      <point x="60.17" y="436.38" type="line"/>
    </contour>
  </outline>
</glyph>
<glyph name="plus" format="2">
  <advance width="360.21"/>
  <unicode hex="002B"/>
  <outline>
    <contour>
      <point x="118.25" y="111.13" type="line"/>
      <point x="191.0" y="111.13" type="line"/>
      <point x="215.82999999999998" y="266.96" type="line"/>
      <point x="318.77" y="266.96" type="line"/>
      <point x="331.23" y="346.59" type="line"/>
      <point x="228.29" y="346.59" type="line"/>
      <point x="253.12" y="502.99" type="line"/>
      <point x="180.37" y="502.99" type="line"/>
      <point x="155.54" y="346.59" type="line"/>
      <point x="52.03" y="346.59" type="line"/>
      <point x="39.57" y="266.96" type="line"/>
      <point x="143.08" y="266.96" type="line"/>
    </contour>
  </outline>
</glyph>
<glyph name="comma" format="2">
  <advance width="133.0"/>
  <unicode hex="002C"/>
  <outline>
    <contour>
      <point x="-5.4399999999999995" y="67.11" type="line"/>
      <point x="-5.3" y="45.5"/>
      <point x="-7.02" y="25.47"/>
      <point x="-8.309999999999999" y="13.32" type="curve" smooth="yes"/>
      <point x="-12.18" y="-45.8"/>
      <point x="-46.61" y="-129.21"/>
      <point x="-82.72" y="-167.79" type="curve"/>
      <point x="-29.42" y="-191.82" type="line"/>
      <point x="38.28" y="-126.21000000000001"/>
      <point x="70.46000000000001" y="-28.83"/>
      <point x="70.46000000000001" y="37.39" type="curve" smooth="yes"/>
      <point x="70.46000000000001" y="48.82"/>
      <point x="70.03" y="59.25"/>
      <point x="68.89" y="71.53" type="curve"/>
    </contour>
  </outline>
</glyph>
<glyph name="hyphen" format="2">
  <advance width="224.34"/>
  <unicode hex="002D"/>
  <outline>
    <contour>
      <point x="17.88" y="244.83" type="line"/>
      <point x="196.45" y="244.83" type="line"/>
      <point x="211.2" y="330.48" type="line"/>
      <point x="32.629999999999995" y="330.48" type="line"/>
    </contour>
  </outline>
</glyph>
<glyph name="period" format="2">
  <advance width="133.0"/>
  <unicode hex="002E"/>
  <outline>
    <contour>
      <point x="-15.73" y="35.8" type="curve" smooth="yes"/>
      <point x="-16.3" y="8.879999999999999"/>
      <point x="-6.2700000000000005" y="-3.01"/>
      <point x="21.93" y="-3.01" type="curve" smooth="yes"/>
      <point x="67.6" y="-3.01"/>
      <point x="77.92" y="38.41"/>
      <point x="79.63" y="79.47" type="curve" smooth="yes"/>
      <point x="80.19999999999999" y="106.1"/>
      <point x="69.03" y="117.42"/>
      <point x="41.83" y="117.42" type="curve" smooth="yes"/>
      <point x="-2.2700000000000005" y="117.42"/>
      <point x="-14.02" y="76.86"/>
    </contour>
  </outline>
</glyph>
<glyph name="slash" format="2">
  <advance width="266.53999999999996"/>
  <unicode hex="002F"/>
  <outline>
    <contour>
      <point x="-75.03" y="-210.0" type="line"/>
      <point x="-5.43" y="-210.0" type="line"/>
      <point x="338.57" y="740.0" type="line"/>
      <point x="268.11" y="740.0" type="line"/>
    </contour>
  </outline>
</glyph>
<glyph name="zero" format="2">
  <advance width="323.1"/>
  <unicode hex="0030"/>
  <outline>
    <contour>
      <point x="119.56" y="-10.0" type="curve" smooth="yes"/>
      <point x="277.65999999999997" y="-10.0"/>
      <point x="334.52" y="336.1"/>
      <point x="334.52" y="546.36" type="curve" smooth="yes"/>
      <point x="334.52" y="666.54"/>
      <point x="300.04" y="710.0"/>
      <point x="227.26" y="710.0" type="curve" smooth="yes"/>
      <point x="69.16" y="710.0"/>
      <point x="12.3" y="365.62"/>
      <point x="12.3" y="155.36" type="curve" smooth="yes"/>
      <point x="12.3" y="35.18"/>
      <point x="46.78" y="-10.0"/>
    </contour>
    <contour>
      <point x="129.88" y="74.36" type="curve" smooth="yes"/>
      <point x="102.78" y="74.36"/>
      <point x="91.36" y="94.9"/>
      <point x="92.36" y="155.22" type="curve" smooth="yes"/>
      <point x="93.5" y="294.06"/>
      <point x="143.62" y="625.64"/>
      <point x="216.94" y="625.64" type="curve" smooth="yes"/>
      <point x="244.04" y="625.64"/>
      <point x="255.46" y="605.1"/>
      <point x="254.46" y="544.78" type="curve" smooth="yes"/>
      <point x="253.32" y="405.94"/>
      <point x="203.2" y="74.36"/>
    </contour>
  </outline>
</glyph>
<glyph name="one" format="2">
  <advance width="323.1"/>
  <unicode hex="0031"/>
  <outline>
    <contour>
      <point x="2.1999999999999993" y="0.0" type="line"/>
      <point x="254.46" y="0.0" type="line"/>
      <point x="267.35" y="80.19999999999999" type="line"/>
      <point x="183.4" y="80.19999999999999" type="line"/>
      <point x="282.37" y="700.0" type="line"/>
      <point x="241.7" y="700.0" type="line"/>
      <point x="82.36" y="610.1" type="line"/>
      <point x="88.06" y="522.57" type="line"/>
      <point x="183.84" y="585.88" type="line"/>
      <point x="102.91" y="80.19999999999999" type="line"/>
      <point x="14.66" y="80.19999999999999" type="line"/>
    </contour>
  </outline>
</glyph>
<glyph name="two" format="2">
  <advance width="323.1"/>
  <unicode hex="0032"/>
  <outline>
    <contour>
      <point x="9.2" y="66.02" type="curve"/>
      <point x="1.7400000000000002" y="0.0" type="line"/>
      <point x="243.62" y="0.0" type="line"/>
      <point x="255.22" y="72.32" type="line"/>
      <point x="94.84" y="72.32" type="line"/>
      <point x="249.76" y="327.6"/>
      <point x="315.08" y="465.7"/>
      <point x="315.08" y="580.48" type="curve" smooth="yes"/>
      <point x="315.08" y="659.68"/>
      <point x="280.9" y="710.0"/>
      <point x="217.42000000000002" y="710.0" type="curve" smooth="yes"/>
      <point x="167.52" y="710.0"/>
      <point x="123.9" y="691.42"/>
      <point x="85.44" y="655.28" type="curve"/>
      <point x="104.9" y="582.08" type="line"/>
      <point x="133.74" y="608.62"/>
      <point x="156.76" y="622.2"/>
      <point x="186.04" y="622.2" type="curve" smooth="yes"/>
      <point x="216.16" y="622.2"/>
      <point x="231.58" y="596.8"/>
      <point x="231.58" y="556.28" type="curve" smooth="yes"/>
      <point x="231.44" y="467.52"/>
      <point x="183.14" y="350.9"/>
    </contour>
  </outline>
</glyph>
<glyph name="three" format="2">
  <advance width="323.1"/>
  <unicode hex="0033"/>
  <outline>
    <contour>
      <point x="-19.12" y="35.15" type="line"/>
      <point x="6.34" y="6.72"/>
      <point x="40.92" y="-10.0"/>
      <point x="91.25" y="-10.0" type="curve" smooth="yes"/>
      <point x="191.14" y="-10.0"/>
      <point x="272.65" y="89.38"/>
      <point x="272.65" y="244.09" type="curve" smooth="yes"/>
      <point x="272.65" y="318.13"/>
      <point x="246.05" y="355.55"/>
      <point x="218.76" y="370.14" type="curve"/>
      <point x="270.37" y="402.61"/>
      <point x="312.23" y="473.28"/>
      <point x="312.23" y="571.25" type="curve" smooth="yes"/>
      <point x="312.23" y="657.86"/>
      <point x="272.05" y="710.0"/>
      <point x="202.99" y="710.0" type="curve" smooth="yes"/>
      <point x="160.22" y="710.0"/>
      <point x="115.9" y="692.13"/>
      <point x="84.86" y="666.39" type="curve"/>
      <point x="102.31" y="597.21" type="line"/>
      <point x="120.87" y="611.91"/>
      <point x="143.3" y="620.91"/>
      <point x="170.31" y="620.91" type="curve" smooth="yes"/>
      <point x="204.87" y="620.91"/>
      <point x="227.44" y="586.1"/>
      <point x="227.44" y="535.57" type="curve" smooth="yes"/>
      <point x="227.44" y="466.52"/>
      <point x="191.74" y="396.06"/>
      <point x="147.77" y="396.06" type="curve" smooth="yes"/>
      <point x="112.48" y="396.06" type="line"/>
      <point x="101.31" y="328.18" type="line"/>
      <point x="144.74" y="328.18" type="line" smooth="yes"/>
      <point x="177.03" y="328.18"/>
      <point x="194.17" y="297.34"/>
      <point x="194.17" y="245.83" type="curve" smooth="yes"/>
      <point x="194.17" y="149.68"/>
      <point x="154.92" y="75.65"/>
      <point x="91.82" y="75.65" type="curve" smooth="yes"/>
      <point x="63.4" y="75.65"/>
      <point x="43.41" y="85.07"/>
      <point x="22.97" y="105.63" type="curve"/>
    </contour>
  </outline>
</glyph>
<glyph name="four" format="2">
  <advance width="323.1"/>
  <unicode hex="0034"/>
  <outline>
    <contour>
      <point x="5.98" y="144.27" type="line"/>
      <point x="148.41" y="144.27" type="line"/>
      <point x="125.72" y="0.0" type="line"/>
      <point x="209.65" y="0.0" type="line"/>
      <point x="232.34" y="144.27" type="line"/>
      <point x="283.04" y="144.27" type="line"/>
      <point x="294.64" y="218.88" type="line"/>
      <point x="244.37" y="218.88" type="line"/>
      <point x="320.94" y="699.43" type="line"/>
      <point x="229.25" y="702.28" type="line"/>
      <point x="14.16" y="217.17" type="line"/>
    </contour>
    <contour>
      <point x="66.41" y="218.88" type="line"/>
      <point x="219.13" y="561.22" type="line"/>
      <point x="163.88" y="218.88" type="line"/>
    </contour>
  </outline>
</glyph>
<glyph name="five" format="2">
  <advance width="323.1"/>
  <unicode hex="0035"/>
  <outline>
    <contour>
      <point x="-13.42" y="34.13" type="line"/>
      <point x="11.18" y="5.28"/>
      <point x="43.629999999999995" y="-10.0"/>
      <point x="91.11" y="-10.0" type="curve" smooth="yes"/>
      <point x="231.03" y="-10.0"/>
      <point x="281.95" y="151.67"/>
      <point x="281.95" y="267.03" type="curve" smooth="yes"/>
      <point x="281.95" y="355.22"/>
      <point x="247.35" y="399.64"/>
      <point x="186.91" y="402.22" type="curve" smooth="yes"/>
      <point x="148.81" y="403.08" type="line"/>
      <point x="193.76" y="614.21" type="line"/>
      <point x="319.92" y="614.21" type="line"/>
      <point x="332.81" y="700.0" type="line"/>
      <point x="140.92" y="700.0" type="line"/>
      <point x="60.3" y="336.89" type="line"/>
      <point x="67.58" y="325.03" type="line"/>
      <point x="134.6" y="325.03" type="line" smooth="yes"/>
      <point x="179.44" y="325.03"/>
      <point x="196.3" y="296.07"/>
      <point x="196.3" y="242.53" type="curve" smooth="yes"/>
      <point x="196.3" y="184.6"/>
      <point x="171.6" y="76.08"/>
      <point x="89.95" y="76.08" type="curve" smooth="yes"/>
      <point x="57.230000000000004" y="76.08"/>
      <point x="36.08" y="90.92"/>
      <point x="20.78" y="107.62" type="curve"/>
    </contour>
  </outline>
</glyph>
<glyph name="six" format="2">
  <advance width="323.1"/>
  <unicode hex="0036"/>
  <note>
14
</note>
  <outline>
    <contour>
      <point x="127.72" y="-10.0" type="curve" smooth="yes"/>
      <point x="230.8" y="-10.0"/>
      <point x="295.68" y="119.46"/>
      <point x="295.68" y="296.08" type="curve" smooth="yes"/>
      <point x="295.68" y="386.54"/>
      <point x="255.78" y="426.1"/>
      <point x="204.78" y="426.1" type="curve" smooth="yes"/>
      <point x="164.64" y="426.1"/>
      <point x="132.4" y="404.46"/>
      <point x="102.82" y="354.72" type="curve"/>
      <point x="93.52" y="247.56" type="line"/>
      <point x="112.08" y="309.02"/>
      <point x="140.88" y="352.92"/>
      <point x="173.96" y="352.92" type="curve" smooth="yes"/>
      <point x="201.5" y="352.92"/>
      <point x="214.62" y="325.96"/>
      <point x="214.62" y="272.44" type="curve" smooth="yes"/>
      <point x="214.62" y="170.0"/>
      <point x="177.1" y="67.34"/>
      <point x="133.01999999999998" y="67.34" type="curve" smooth="yes"/>
      <point x="108.19999999999999" y="67.34"/>
      <point x="95.08" y="94.0"/>
      <point x="95.08" y="143.48" type="curve" smooth="yes"/>
      <point x="95.08" y="251.76"/>
      <point x="115.06" y="367.48"/>
      <point x="144.6" y="482.5" type="curve" smooth="yes"/>
      <point x="168.72" y="573.66"/>
      <point x="204.56" y="628.22"/>
      <point x="262.88" y="628.22" type="curve" smooth="yes"/>
      <point x="285.6" y="628.22"/>
      <point x="302.6" y="618.5"/>
      <point x="321.02" y="605.08" type="curve"/>
      <point x="357.96" y="676.84" type="line"/>
      <point x="337.26" y="695.12"/>
      <point x="304.64" y="710.0"/>
      <point x="262.6" y="710.0" type="curve" smooth="yes"/>
      <point x="103.46" y="710.0"/>
      <point x="16.740000000000002" y="438.78"/>
      <point x="16.740000000000002" y="153.24" type="curve" smooth="yes"/>
      <point x="16.740000000000002" y="37.58"/>
      <point x="54.64" y="-10.0"/>
    </contour>
  </outline>
</glyph>
<glyph name="seven" format="2">
  <advance width="323.1"/>
  <unicode hex="0037"/>
  <note>
9
</note>
  <outline>
    <contour>
      <point x="43.87" y="0.0" type="curve"/>
      <point x="129.09" y="0.0" type="line"/>
      <point x="148.81" y="116.17"/>
      <point x="173.24" y="214.83"/>
      <point x="248.23000000000002" y="397.63" type="curve" smooth="yes"/>
      <point x="345.78999999999996" y="635.27" type="line"/>
      <point x="356.1" y="700.0" type="line"/>
      <point x="91.91" y="700.0" type="line"/>
      <point x="78.59" y="615.9300000000001" type="line"/>
      <point x="256.85" y="615.9300000000001" type="line"/>
      <point x="169.86" y="413.89" type="line" smooth="yes"/>
      <point x="100.44" y="252.83"/>
      <point x="65.87" y="137.85"/>
    </contour>
  </outline>
</glyph>
<glyph name="eight" format="2">
  <advance width="323.1"/>
  <unicode hex="0038"/>
  <outline>
    <contour>
      <point x="132.86" y="-10.0" type="curve" smooth="yes"/>
      <point x="237.2" y="-10.0"/>
      <point x="291.52" y="73.24"/>
      <point x="291.52" y="196.6" type="curve" smooth="yes"/>
      <point x="291.52" y="363.78"/>
      <point x="144.78" y="401.64"/>
      <point x="144.78" y="538.18" type="curve" smooth="yes"/>
      <point x="144.78" y="590.18"/>
      <point x="164.74" y="631.66"/>
      <point x="210.68" y="631.66" type="curve" smooth="yes"/>
      <point x="245.78" y="631.66"/>
      <point x="258.76" y="603.12"/>
      <point x="258.76" y="558.32" type="curve" smooth="yes"/>
      <point x="258.76" y="487.68"/>
      <point x="225.04" y="436.78"/>
      <point x="175.28" y="401.12" type="curve"/>
      <point x="216.38" y="354.0" type="line"/>
      <point x="288.06" y="402.42"/>
      <point x="334.52" y="478.96"/>
      <point x="334.52" y="577.24" type="curve" smooth="yes"/>
      <point x="334.52" y="651.96"/>
      <point x="298.48" y="710.0"/>
      <point x="212.54" y="710.0" type="curve" smooth="yes"/>
      <point x="108.74" y="710.0"/>
      <point x="64.72" y="627.28"/>
      <point x="64.72" y="527.02" type="curve" smooth="yes"/>
      <point x="64.72" y="348.06"/>
      <point x="211.46" y="325.38"/>
      <point x="211.46" y="180.84" type="curve" smooth="yes"/>
      <point x="211.46" y="113.92"/>
      <point x="185.5" y="65.75999999999999"/>
      <point x="137.3" y="65.75999999999999" type="curve" smooth="yes"/>
      <point x="97.92" y="65.75999999999999"/>
      <point x="79.08" y="93.44"/>
      <point x="79.08" y="144.94" type="curve" smooth="yes"/>
      <point x="79.08" y="227.3"/>
      <point x="111.22" y="292.9"/>
      <point x="169.26" y="326.56" type="curve"/>
      <point x="125.44" y="378.4" type="line"/>
      <point x="41.04" y="332.58"/>
      <point x="-2.84" y="235.88"/>
      <point x="-2.84" y="133.06" type="curve" smooth="yes"/>
      <point x="-2.84" y="45.9"/>
      <point x="35.62" y="-10.0"/>
    </contour>
  </outline>
</glyph>
<glyph name="nine" format="2">
  <advance width="323.1"/>
  <unicode hex="0039"/>
  <outline>
    <contour>
      <point x="219.82" y="710.0" type="curve" smooth="yes"/>
      <point x="116.74" y="710.0"/>
      <point x="51.0" y="580.54"/>
      <point x="51.0" y="403.92" type="curve" smooth="yes"/>
      <point x="51.0" y="313.46"/>
      <point x="88.32" y="274.76"/>
      <point x="138.46" y="274.76" type="curve" smooth="yes"/>
      <point x="179.46" y="274.76"/>
      <point x="215.14" y="292.96"/>
      <point x="243.86" y="353.88" type="curve"/>
      <point x="253.16" y="453.3" type="line"/>
      <point x="235.46" y="391.84"/>
      <point x="205.8" y="347.94"/>
      <point x="172.72" y="347.94" type="curve" smooth="yes"/>
      <point x="146.04" y="347.94"/>
      <point x="132.92000000000002" y="374.04"/>
      <point x="132.92000000000002" y="427.56" type="curve" smooth="yes"/>
      <point x="132.92000000000002" y="530.86"/>
      <point x="170.44" y="632.66"/>
      <point x="213.66" y="632.66" type="curve" smooth="yes"/>
      <point x="237.62" y="632.66"/>
      <point x="251.6" y="606.0"/>
      <point x="251.6" y="557.38" type="curve" smooth="yes"/>
      <point x="251.6" y="456.84"/>
      <point x="232.48" y="333.38"/>
      <point x="202.07999999999998" y="217.5" type="curve" smooth="yes"/>
      <point x="178.82" y="126.34"/>
      <point x="143.84" y="71.78"/>
      <point x="87.94" y="71.78" type="curve" smooth="yes"/>
      <point x="66.08" y="71.78"/>
      <point x="45.08" y="81.36"/>
      <point x="25.66" y="101.47999999999999" type="curve"/>
      <point x="-11.28" y="28.86" type="line"/>
      <point x="11.28" y="4.74"/>
      <point x="47.9" y="-10.0"/>
      <point x="91.66" y="-10.0" type="curve" smooth="yes"/>
      <point x="242.66" y="-10.0"/>
      <point x="329.94" y="261.22"/>
      <point x="329.94" y="547.62" type="curve" smooth="yes"/>
      <point x="329.94" y="663.28"/>
      <point x="292.04" y="710.0"/>
    </contour>
  </outline>
</glyph>
<glyph name="less" format="2">
  <advance width="358.63"/>
  <unicode hex="003C"/>
  <outline>
    <contour>
      <point x="299.09" y="97.17" type="line"/>
      <point x="310.26" y="170.76999999999998" type="line"/>
      <point x="107.74000000000001" y="298.89" type="line"/>
      <point x="351.35" y="428.01" type="line"/>
      <point x="362.52" y="502.32" type="line"/>
      <point x="42.42" y="340.84" type="line"/>
      <point x="29.39" y="259.22" type="line"/>
    </contour>
  </outline>
</glyph>
<glyph name="equal" format="2">
  <advance width="342.72"/>
  <unicode hex="003D"/>
  <outline>
    <contour>
      <point x="294.59" y="233.12" type="line"/>
      <point x="35.17" y="233.12" type="line"/>
      <point x="23.57" y="152.92000000000002" type="line"/>
      <point x="282.99" y="152.92000000000002" type="line"/>
    </contour>
    <contour>
      <point x="326.16" y="447.0" type="line"/>
      <point x="67.17" y="447.0" type="line"/>
      <point x="55.14" y="366.8" type="line"/>
      <point x="314.56" y="366.8" type="line"/>
    </contour>
  </outline>
</glyph>
<glyph name="greater" format="2">
  <advance width="358.63"/>
  <unicode hex="003E"/>
  <outline>
    <contour>
      <point x="324.36" y="257.51" type="line"/>
      <point x="337.39" y="339.13" type="line"/>
      <point x="67.55" y="501.18" type="line"/>
      <point x="56.38" y="428.01" type="line"/>
      <point x="259.9" y="299.46" type="line"/>
      <point x="15.86" y="171.34" type="line"/>
      <point x="4.12" y="96.03" type="line"/>
    </contour>
  </outline>
</glyph>
<glyph name="question" format="2">
  <advance width="276.2"/>
  <unicode hex="003F"/>
  <outline>
    <contour>
      <point x="84.14" y="262.28" type="line"/>
      <point x="155.46" y="262.28" type="line"/>
      <point x="167.46" y="337.7" type="line"/>
      <point x="248.18" y="411.66"/>
      <point x="311.06" y="481.7"/>
      <point x="311.06" y="608.78" type="curve" smooth="yes"/>
      <point x="311.06" y="697.52"/>
      <point x="268.46" y="750.0"/>
      <point x="196.07999999999998" y="750.0" type="curve" smooth="yes"/>
      <point x="155.34" y="750.0"/>
      <point x="110.3" y="729.86"/>
      <point x="75.14" y="696.14" type="curve"/>
      <point x="95.32" y="618.64" type="line"/>
      <point x="123.02" y="644.76"/>
      <point x="145.86" y="657.9"/>
      <point x="170.72" y="657.9" type="curve" smooth="yes"/>
      <point x="200.98" y="657.9"/>
      <point x="223.26" y="637.82"/>
      <point x="223.26" y="585.14" type="curve" smooth="yes"/>
      <point x="223.26" y="495.94"/>
      <point x="179.82" y="442.0"/>
      <point x="100.72" y="376.8" type="curve"/>
    </contour>
    <contour>
      <point x="40.14" y="34.08" type="curve" smooth="yes"/>
      <point x="40.0" y="7.16"/>
      <point x="49.6" y="-4.3"/>
      <point x="76.94" y="-4.3" type="curve" smooth="yes"/>
      <point x="123.03999999999999" y="-4.3"/>
      <point x="135.07999999999998" y="35.4"/>
      <point x="135.5" y="76.46000000000001" type="curve" smooth="yes"/>
      <point x="135.64" y="104.38"/>
      <point x="124.9" y="115.7"/>
      <point x="98.56" y="115.7" type="curve" smooth="yes"/>
      <point x="53.6" y="115.7"/>
      <point x="40.56" y="76.0"/>
    </contour>
  </outline>
</glyph>
<glyph name="at" format="2">
  <advance width="546.12"/>
  <unicode hex="0040"/>
  <outline>
    <contour>
      <point x="217.3" y="-124.0" type="curve" smooth="yes"/>
      <point x="264.0" y="-124.0"/>
      <point x="320.06" y="-103.3"/>
      <point x="353.08" y="-66.2" type="curve"/>
      <point x="337.36" y="-33.54" type="line"/>
      <point x="304.32" y="-64.5"/>
      <point x="263.44" y="-81.34"/>
      <point x="218.44" y="-81.34" type="curve" smooth="yes"/>
      <point x="121.5" y="-81.34"/>
      <point x="55.26" y="-17.62"/>
      <point x="55.26" y="134.34" type="curve" smooth="yes"/>
      <point x="55.26" y="396.98"/>
      <point x="172.68" y="667.2"/>
      <point x="349.08" y="667.2" type="curve" smooth="yes"/>
      <point x="450.22" y="667.2"/>
      <point x="505.56" y="615.98"/>
      <point x="505.56" y="477.62" type="curve" smooth="yes"/>
      <point x="505.56" y="330.68"/>
      <point x="458.08" y="113.84"/>
      <point x="389.9" y="113.84" type="curve" smooth="yes"/>
      <point x="353.02" y="113.84"/>
      <point x="357.28" y="168.64"/>
      <point x="366.86" y="209.52" type="curve" smooth="yes"/>
      <point x="441.86" y="525.3" type="line"/>
      <point x="406.53999999999996" y="543.18"/>
      <point x="374.06" y="552.34"/>
      <point x="331.56" y="552.34" type="curve" smooth="yes"/>
      <point x="207.54" y="552.34"/>
      <point x="128.98" y="312.46"/>
      <point x="128.98" y="150.36" type="curve" smooth="yes"/>
      <point x="128.98" y="87.16"/>
      <point x="155.44" y="56.7"/>
      <point x="196.92000000000002" y="56.7" type="curve" smooth="yes"/>
      <point x="235.51999999999998" y="56.7"/>
      <point x="268.96" y="86.0"/>
      <point x="295.98" y="136.54" type="curve"/>
      <point x="305.15999999999997" y="105.06"/>
      <point x="315.1" y="54.980000000000004"/>
      <point x="373.7" y="54.980000000000004" type="curve" smooth="yes"/>
      <point x="484.1" y="54.980000000000004"/>
      <point x="550.94" y="300.98"/>
      <point x="550.94" y="487.06" type="curve" smooth="yes"/>
      <point x="550.94" y="637.76"/>
      <point x="471.24" y="710.0"/>
      <point x="356.96" y="710.0" type="curve" smooth="yes"/>
      <point x="143.76" y="710.0"/>
      <point x="9.02" y="428.32"/>
      <point x="9.02" y="122.18" type="curve" smooth="yes"/>
      <point x="9.02" y="-36.5"/>
      <point x="83.84" y="-124.0"/>
    </contour>
    <contour>
      <point x="236.04" y="137.48" type="curve" smooth="yes"/>
      <point x="221.48000000000002" y="137.48"/>
      <point x="213.2" y="151.18"/>
      <point x="213.2" y="177.0" type="curve" smooth="yes"/>
      <point x="213.2" y="286.66"/>
      <point x="280.0" y="487.32"/>
      <point x="326.4" y="487.32" type="curve" smooth="yes"/>
      <point x="336.82" y="487.32"/>
      <point x="347.8" y="485.18"/>
      <point x="357.5" y="480.04" type="curve"/>
      <point x="296.94" y="227.28" type="line" smooth="yes"/>
      <point x="281.82" y="169.98"/>
      <point x="256.72" y="137.48"/>
    </contour>
  </outline>
</glyph>
<glyph name="A" format="2">
  <advance width="335.77"/>
  <unicode hex="0041"/>
  <anchor x="122.39" y="0.0" name="bottom"/>
  <anchor x="279.51" y="0.0" name="ogonek"/>
  <anchor x="229.38" y="700.0" name="top"/>
  <outline>
    <contour>
      <point x="-31.740000000000002" y="0.0" type="line"/>
      <point x="51.33" y="0.0" type="line"/>
      <point x="100.12" y="167.25" type="line"/>
      <point x="199.45" y="167.25" type="line"/>
      <point x="195.58" y="0.0" type="line"/>
      <point x="279.51" y="0.0" type="line"/>
      <point x="291.98" y="705.7" type="line"/>
      <point x="170.92000000000002" y="705.7" type="line"/>
    </contour>
    <contour>
      <point x="119.02" y="246.88" type="line"/>
      <point x="217.94" y="615.76" type="line"/>
      <point x="206.33" y="246.88" type="line"/>
    </contour>
  </outline>
</glyph>
<glyph name="B" format="2">
  <advance width="318.90999999999997"/>
  <unicode hex="0042"/>
  <outline>
    <contour>
      <point x="-9.309999999999999" y="-1.2700000000000005" type="line"/>
      <point x="32.9" y="-7.71"/>
      <point x="58.489999999999995" y="-10.0"/>
      <point x="99.56" y="-10.0" type="curve" smooth="yes"/>
      <point x="246.19" y="-10.0"/>
      <point x="294.65" y="130.27"/>
      <point x="294.65" y="246.32" type="curve" smooth="yes"/>
      <point x="294.65" y="311.16"/>
      <point x="272.38" y="352.89"/>
      <point x="236.68" y="369.76" type="curve"/>
      <point x="304.78999999999996" y="405.06"/>
      <point x="332.64" y="505.25"/>
      <point x="332.64" y="580.94" type="curve" smooth="yes"/>
      <point x="332.64" y="662.39"/>
      <point x="294.04" y="710.0"/>
      <point x="207.55" y="710.0" type="curve" smooth="yes"/>
      <point x="185.25" y="710.0"/>
      <point x="148.05" y="707.57"/>
      <point x="100.97" y="700.13" type="curve"/>
    </contour>
    <contour>
      <point x="132.76" y="389.8" type="line"/>
      <point x="170.43" y="629.95" type="line"/>
      <point x="182.13" y="632.52"/>
      <point x="192.82999999999998" y="633.95"/>
      <point x="203.25" y="633.95" type="curve" smooth="yes"/>
      <point x="238.19" y="633.95"/>
      <point x="256.02" y="613.12"/>
      <point x="256.02" y="558.32" type="curve" smooth="yes"/>
      <point x="256.02" y="481.21"/>
      <point x="221.48" y="389.8"/>
      <point x="164.13" y="389.8" type="curve" smooth="yes"/>
    </contour>
    <contour>
      <point x="121.16" y="315.76" type="line"/>
      <point x="162.09" y="315.76" type="line" smooth="yes"/>
      <point x="193.48" y="315.76"/>
      <point x="215.02" y="287.37"/>
      <point x="215.02" y="234.72" type="curve" smooth="yes"/>
      <point x="215.02" y="149.63"/>
      <point x="185.9" y="66.62"/>
      <point x="112.17" y="66.62" type="curve" smooth="yes"/>
      <point x="103.47" y="66.62"/>
      <point x="94.47999999999999" y="67.19"/>
      <point x="81.92" y="69.62" type="curve"/>
    </contour>
  </outline>
</glyph>
<glyph name="C" format="2">
  <advance width="280.28"/>
  <unicode hex="0043"/>
  <anchor x="147.75" y="0.0" name="bottom"/>
  <anchor x="252.79" y="700.0" name="top"/>
  <outline>
    <contour>
      <point x="165.38" y="-10.0" type="curve" smooth="yes"/>
      <point x="193.11" y="-10.0"/>
      <point x="215.41" y="-7.0"/>
      <point x="234.43" y="0.5800000000000001" type="curve"/>
      <point x="229.86" y="75.19999999999999" type="line"/>
      <point x="216.43" y="71.19999999999999"/>
      <point x="199.57" y="68.77"/>
      <point x="184.01" y="68.77" type="curve" smooth="yes"/>
      <point x="129.04" y="68.77"/>
      <point x="102.75999999999999" y="103.3"/>
      <point x="102.75999999999999" y="201.4" type="curve" smooth="yes"/>
      <point x="102.75999999999999" y="435.35"/>
      <point x="166.42000000000002" y="631.23"/>
      <point x="260.96" y="631.23" type="curve" smooth="yes"/>
      <point x="277.39" y="631.23"/>
      <point x="290.81" y="628.23"/>
      <point x="309.95" y="621.37" type="curve"/>
      <point x="336.3" y="692.69" type="line"/>
      <point x="316.71" y="704.42"/>
      <point x="287.68" y="710.0"/>
      <point x="257.94" y="710.0" type="curve" smooth="yes"/>
      <point x="115.58" y="710.0"/>
      <point x="20.98" y="494.9"/>
      <point x="20.98" y="187.07" type="curve" smooth="yes"/>
      <point x="20.98" y="51.03"/>
      <point x="69.18" y="-10.0"/>
    </contour>
  </outline>
</glyph>
<glyph name="D" format="2">
  <advance width="338.61"/>
  <unicode hex="0044"/>
  <anchor x="116.25" y="0.0" name="bottom"/>
  <anchor x="180.32797" y="350.0" name="center"/>
  <anchor x="213.39" y="700.0" name="top"/>
  <outline>
    <contour>
      <point x="93.99000000000001" y="-10.0" type="curve" smooth="yes"/>
      <point x="250.78" y="-10.0"/>
      <point x="337.49" y="200.56"/>
      <point x="337.49" y="477.43" type="curve" smooth="yes"/>
      <point x="337.49" y="642.87"/>
      <point x="291.58" y="710.0"/>
      <point x="188.24" y="710.0" type="curve" smooth="yes"/>
      <point x="159.34" y="710.0"/>
      <point x="134.73" y="708.14"/>
      <point x="100.97" y="703.13" type="curve"/>
      <point x="-10.17" y="-1.2700000000000005" type="line"/>
      <point x="22.16" y="-7.28"/>
      <point x="55.51" y="-10.0"/>
    </contour>
    <contour>
      <point x="106.31" y="63.76" type="curve" smooth="yes"/>
      <point x="96.75" y="63.76"/>
      <point x="89.33" y="64.75999999999999"/>
      <point x="80.49000000000001" y="66.33" type="curve"/>
      <point x="170.0" y="629.37" type="line"/>
      <point x="179.13" y="630.37"/>
      <point x="185.55" y="630.8"/>
      <point x="192.97" y="630.8" type="curve" smooth="yes"/>
      <point x="239.61" y="630.8"/>
      <point x="257.0" y="589.86"/>
      <point x="257.0" y="477.15" type="curve" smooth="yes"/>
      <point x="257.0" y="274.77"/>
      <point x="188.63" y="63.76"/>
    </contour>
  </outline>
</glyph>
<glyph name="E" format="2">
  <advance width="274.15"/>
  <unicode hex="0045"/>
  <anchor x="107.2" y="0.0" name="bottom"/>
  <anchor x="219.57999999999998" y="0.0" name="ogonek"/>
  <anchor x="213.92" y="700.0" name="top"/>
  <anchor x="85.99459" y="700.0" name="topleft"/>
  <outline>
    <contour>
      <point x="-9.6" y="0.0" type="line"/>
      <point x="219.57999999999998" y="0.0" type="line"/>
      <point x="232.04" y="78.77" type="line"/>
      <point x="82.92" y="78.77" type="line"/>
      <point x="120.87" y="319.6" type="line"/>
      <point x="243.55" y="319.6" type="line"/>
      <point x="256.01" y="394.07" type="line"/>
      <point x="132.9" y="394.07" type="line"/>
      <point x="168.0" y="619.08" type="line"/>
      <point x="308.12" y="619.08" type="line"/>
      <point x="322.01" y="700.0" type="line"/>
      <point x="100.4" y="700.0" type="line"/>
    </contour>
  </outline>
</glyph>
<glyph name="F" format="2">
  <advance width="261.59"/>
  <unicode hex="0046"/>
  <outline>
    <contour>
      <point x="-10.03" y="0.0" type="line"/>
      <point x="69.89" y="0.0" type="line"/>
      <point x="116.86" y="293.24" type="line"/>
      <point x="228.42000000000002" y="293.24" type="line"/>
      <point x="241.31" y="374.16" type="line"/>
      <point x="129.32" y="374.16" type="line"/>
      <point x="168.0" y="619.08" type="line"/>
      <point x="307.83" y="619.08" type="line"/>
      <point x="321.15" y="700.0" type="line"/>
      <point x="100.4" y="700.0" type="line"/>
    </contour>
  </outline>
</glyph>
<glyph name="G" format="2">
  <advance width="313.47"/>
  <unicode hex="0047"/>
  <anchor x="157.39" y="0.0" name="bottom"/>
  <anchor x="254.66" y="700.0" name="top"/>
  <outline>
    <contour>
      <point x="163.38" y="-10.0" type="curve" smooth="yes"/>
      <point x="190.56" y="-10.0"/>
      <point x="224.9" y="-3.99"/>
      <point x="247.22" y="11.19" type="curve"/>
      <point x="304.23" y="371.68" type="line"/>
      <point x="176.11" y="371.68" type="line"/>
      <point x="164.94" y="300.22" type="line"/>
      <point x="220.74" y="300.22" type="line"/>
      <point x="183.78" y="68.33" type="line"/>
      <point x="178.93" y="66.33"/>
      <point x="169.36" y="65.33"/>
      <point x="162.07999999999998" y="65.33" type="curve" smooth="yes"/>
      <point x="118.72" y="65.33"/>
      <point x="98.89" y="98.14"/>
      <point x="98.89" y="191.94" type="curve" smooth="yes"/>
      <point x="98.89" y="423.31"/>
      <point x="161.69" y="630.8"/>
      <point x="257.95" y="630.8" type="curve" smooth="yes"/>
      <point x="281.26" y="630.8"/>
      <point x="301.56" y="623.9300000000001"/>
      <point x="320.27" y="617.5" type="curve"/>
      <point x="345.76" y="691.83" type="line"/>
      <point x="321.58" y="703.71"/>
      <point x="289.4" y="710.0"/>
      <point x="257.51" y="710.0" type="curve" smooth="yes"/>
      <point x="96.09" y="710.0"/>
      <point x="20.55" y="451.47"/>
      <point x="20.55" y="187.5" type="curve" smooth="yes"/>
      <point x="20.55" y="52.75"/>
      <point x="69.61" y="-10.0"/>
    </contour>
  </outline>
</glyph>
<glyph name="H" format="2">
  <advance width="342.73"/>
  <unicode hex="0048"/>
  <anchor x="127.84092" y="0.0" name="bottom"/>
  <anchor x="183.59797" y="350.0" name="center"/>
  <anchor x="238.78458999999998" y="700.0" name="top"/>
  <anchor x="85.99459" y="700.0" name="topleft"/>
  <outline>
    <contour>
      <point x="-10.03" y="0.0" type="line"/>
      <point x="71.03" y="0.0" type="line"/>
      <point x="113.59" y="270.36" type="line"/>
      <point x="227.4" y="270.36" type="line"/>
      <point x="185.27" y="0.0" type="line"/>
      <point x="265.33" y="0.0" type="line"/>
      <point x="376.33" y="700.0" type="line"/>
      <point x="295.84" y="700.0" type="line"/>
      <point x="239.86" y="347.84" type="line"/>
      <point x="125.47999999999999" y="347.84" type="line"/>
      <point x="181.46" y="700.0" type="line"/>
      <point x="100.4" y="700.0" type="line"/>
    </contour>
  </outline>
</glyph>
<glyph name="I" format="2">
  <advance width="147.86"/>
  <unicode hex="0049"/>
  <anchor x="30.12092" y="0.0" name="bottom"/>
  <anchor x="71.76204" y="4.3" name="ogonek"/>
  <anchor x="141.06459" y="700.0" name="top"/>
  <anchor x="85.99459" y="700.0" name="topleft"/>
  <outline>
    <contour>
      <point x="-10.03" y="0.0" type="line"/>
      <point x="70.46000000000001" y="0.0" type="line"/>
      <point x="181.46" y="700.0" type="line"/>
      <point x="100.4" y="700.0" type="line"/>
    </contour>
  </outline>
</glyph>
<glyph name="J" format="2">
  <advance width="234.56"/>
  <unicode hex="004A"/>
  <anchor x="46.04092" y="0.0" name="bottom"/>
  <anchor x="183.66" y="700.0" name="top"/>
  <outline>
    <contour>
      <point x="-39.0" y="8.61" type="line"/>
      <point x="-17.56" y="-1.9800000000000004"/>
      <point x="6.9" y="-10.0"/>
      <point x="39.39" y="-10.0" type="curve" smooth="yes"/>
      <point x="125.96000000000001" y="-10.0"/>
      <point x="167.59" y="50.31"/>
      <point x="182.75" y="145.41" type="curve" smooth="yes"/>
      <point x="270.73" y="700.0" type="line"/>
      <point x="90.89" y="700.0" type="line"/>
      <point x="78.86" y="624.67" type="line"/>
      <point x="178.21" y="624.67" type="line"/>
      <point x="106.42" y="175.09" type="line" smooth="yes"/>
      <point x="94.13" y="98.92"/>
      <point x="69.3" y="76.51"/>
      <point x="25.049999999999997" y="76.51" type="curve" smooth="yes"/>
      <point x="13.2" y="76.51"/>
      <point x="-3.09" y="80.37"/>
      <point x="-16.37" y="85.37" type="curve"/>
    </contour>
  </outline>
</glyph>
<glyph name="K" format="2">
  <advance width="325.12"/>
  <unicode hex="004B"/>
  <anchor x="136.28" y="0.0" name="bottom"/>
  <anchor x="227.14" y="700.0" name="top"/>
  <outline>
    <contour>
      <point x="-10.459999999999999" y="0.0" type="line"/>
      <point x="70.46000000000001" y="0.0" type="line"/>
      <point x="181.46" y="700.0" type="line"/>
      <point x="100.4" y="700.0" type="line"/>
    </contour>
    <contour>
      <point x="248.32" y="-9.86" type="curve" smooth="yes"/>
      <point x="260.2" y="-9.86"/>
      <point x="276.38" y="-5.42"/>
      <point x="283.24" y="-1.56" type="curve"/>
      <point x="290.42" y="95.56" type="line"/>
      <point x="287.56" y="95.42"/>
      <point x="283.7" y="94.42"/>
      <point x="279.7" y="94.42" type="curve" smooth="yes"/>
      <point x="264.4" y="94.42"/>
      <point x="246.5" y="104.14"/>
      <point x="226.64" y="164.54" type="curve" smooth="yes"/>
      <point x="131.48" y="455.42" type="line"/>
      <point x="104.97999999999999" y="313.82" type="line"/>
      <point x="180.26" y="77.98" type="line" smooth="yes"/>
      <point x="202.4" y="7.6"/>
      <point x="217.28" y="-9.86"/>
    </contour>
    <contour>
      <point x="171.4" y="282.96" type="line"/>
      <point x="245.92000000000002" y="373.18"/>
      <point x="330.03999999999996" y="514.44"/>
      <point x="375.28" y="685.94" type="curve"/>
      <point x="307.4" y="705.7" type="line"/>
      <point x="262.15999999999997" y="548.1"/>
      <point x="194.2" y="422.84"/>
      <point x="144.04" y="357.7" type="curve"/>
    </contour>
  </outline>
</glyph>
<glyph name="L" format="2">
  <advance width="251.31"/>
  <unicode hex="004C"/>
  <anchor x="100.37" y="0.0" name="bottom"/>
  <anchor x="131.04797" y="350.0" name="center"/>
  <anchor x="140.36" y="700.0" name="top"/>
  <anchor x="234.82" y="700.0" name="topright"/>
  <outline>
    <contour>
      <point x="-10.6" y="0.0" type="line"/>
      <point x="199.59" y="0.0" type="line"/>
      <point x="212.05" y="78.77" type="line"/>
      <point x="82.35" y="78.77" type="line"/>
      <point x="180.89" y="700.0" type="line"/>
      <point x="100.4" y="700.0" type="line"/>
    </contour>
  </outline>
</glyph>
<glyph name="M" format="2">
  <advance width="392.99"/>
  <unicode hex="004D"/>
  <outline>
    <contour>
      <point x="-10.03" y="0.0" type="line"/>
      <point x="63.58" y="0.0" type="line"/>
      <point x="147.09" y="534.04" type="line"/>
      <point x="163.35" y="213.79" type="line"/>
      <point x="207.28" y="213.79" type="line"/>
      <point x="326.2" y="532.6" type="line"/>
      <point x="241.55" y="0.0" type="line"/>
      <point x="315.59000000000003" y="0.0" type="line"/>
      <point x="426.59000000000003" y="700.0" type="line"/>
      <point x="334.37" y="700.0" type="line"/>
      <point x="205.87" y="353.17" type="line"/>
      <point x="187.03" y="700.0" type="line"/>
      <point x="100.4" y="700.0" type="line"/>
    </contour>
  </outline>
</glyph>
<glyph name="N" format="2">
  <advance width="348.33"/>
  <unicode hex="004E"/>
  <anchor x="138.09" y="0.0" name="bottom"/>
  <anchor x="241.38" y="700.0" name="top"/>
  <outline>
    <contour>
      <point x="-10.03" y="0.0" type="line"/>
      <point x="63.15" y="0.0" type="line"/>
      <point x="141.5" y="496.62" type="line"/>
      <point x="188.3" y="0.0" type="line"/>
      <point x="270.93" y="0.0" type="line"/>
      <point x="381.93" y="700.0" type="line"/>
      <point x="308.75" y="700.0" type="line"/>
      <point x="227.96" y="190.04" type="line"/>
      <point x="184.17000000000002" y="700.0" type="line"/>
      <point x="100.4" y="700.0" type="line"/>
    </contour>
  </outline>
</glyph>
<glyph name="O" format="2">
  <advance width="349.32"/>
  <unicode hex="004F"/>
  <note>
8
</note>
  <anchor x="131.66" y="0.0" name="bottom"/>
  <anchor x="186.8" y="350.0" name="center"/>
  <anchor x="181.72" y="1.72" name="ogonek"/>
  <anchor x="245.07999999999998" y="700.0" name="top"/>
  <anchor x="88.86" y="700.0" name="topleft"/>
  <anchor x="312.02" y="700.0" name="topright"/>
  <outline>
    <contour>
      <point x="134.1" y="-10.0" type="curve" smooth="yes"/>
      <point x="299.84000000000003" y="-10.0"/>
      <point x="356.76" y="345.4"/>
      <point x="356.76" y="542.2" type="curve" smooth="yes"/>
      <point x="356.76" y="666.26"/>
      <point x="317.14" y="710.0"/>
      <point x="239.22" y="710.0" type="curve" smooth="yes"/>
      <point x="73.48" y="710.0"/>
      <point x="16.56" y="354.6"/>
      <point x="16.56" y="157.8" type="curve" smooth="yes"/>
      <point x="16.56" y="33.74"/>
      <point x="56.18" y="-10.0"/>
    </contour>
    <contour>
      <point x="141.98" y="73.36" type="curve" smooth="yes"/>
      <point x="112.03999999999999" y="73.36"/>
      <point x="98.34" y="90.18"/>
      <point x="98.34" y="156.07999999999998" type="curve" smooth="yes"/>
      <point x="98.34" y="290.98"/>
      <point x="151.1" y="626.64"/>
      <point x="231.34" y="626.64" type="curve" smooth="yes"/>
      <point x="261.28" y="626.64"/>
      <point x="274.98" y="609.82"/>
      <point x="274.98" y="543.92" type="curve" smooth="yes"/>
      <point x="274.98" y="409.02"/>
      <point x="222.22" y="73.36"/>
    </contour>
  </outline>
</glyph>
<glyph name="P" format="2">
  <advance width="313.65999999999997"/>
  <unicode hex="0050"/>
  <outline>
    <contour>
      <point x="-9.6" y="0.0" type="line"/>
      <point x="70.89" y="0.0" type="line"/>
      <point x="108.43" y="235.66" type="line"/>
      <point x="121.6" y="233.37"/>
      <point x="127.88" y="233.37"/>
      <point x="156.29" y="233.37" type="curve" smooth="yes"/>
      <point x="262.47" y="233.37"/>
      <point x="337.23" y="371.85"/>
      <point x="337.23" y="558.76" type="curve" smooth="yes"/>
      <point x="337.23" y="664.53"/>
      <point x="299.06" y="710.0"/>
      <point x="213.85" y="710.0" type="curve" smooth="yes"/>
      <point x="183.67" y="710.0"/>
      <point x="139.88" y="707.57"/>
      <point x="101.4" y="703.14" type="curve"/>
    </contour>
    <contour>
      <point x="170.86" y="628.95" type="line"/>
      <point x="180.85" y="631.52"/>
      <point x="190.84" y="632.52"/>
      <point x="202.68" y="632.52" type="curve" smooth="yes"/>
      <point x="241.77" y="632.52"/>
      <point x="258.46" y="609.96"/>
      <point x="258.46" y="544.73" type="curve" smooth="yes"/>
      <point x="258.46" y="423.83"/>
      <point x="211.63" y="310.85"/>
      <point x="151.99" y="310.85" type="curve" smooth="yes"/>
      <point x="141.86" y="310.85"/>
      <point x="131.59" y="311.42"/>
      <point x="120.46000000000001" y="312.85" type="curve"/>
    </contour>
  </outline>
</glyph>
<glyph name="Q" format="2">
  <advance width="348.03"/>
  <unicode hex="0051"/>
  <note>
14
</note>
  <outline>
    <contour>
      <point x="238.26999999999998" y="-171.83" type="curve" smooth="yes"/>
      <point x="252.99" y="-171.83"/>
      <point x="269.99" y="-170.4"/>
      <point x="285.13" y="-165.26" type="curve"/>
      <point x="291.45" y="-91.93" type="line"/>
      <point x="280.74" y="-95.5"/>
      <point x="267.03" y="-97.5"/>
      <point x="254.03" y="-97.5" type="curve" smooth="yes"/>
      <point x="212.46" y="-97.5"/>
      <point x="179.34" y="-76.50999999999999"/>
      <point x="179.48" y="8.17" type="curve"/>
      <point x="114.18" y="7.029999999999999" type="line"/>
      <point x="111.46" y="-132.12"/>
      <point x="174.96" y="-171.83"/>
    </contour>
    <component base="O"/>
  </outline>
</glyph>
<glyph name="R" format="2">
  <advance width="321.1"/>
  <unicode hex="0052"/>
  <anchor x="133.26" y="0.0" name="bottom"/>
  <anchor x="208.66" y="700.0" name="top"/>
  <outline>
    <contour>
      <point x="-10.459999999999999" y="0.0" type="line"/>
      <point x="70.46000000000001" y="0.0" type="line"/>
      <point x="111.58" y="262.0" type="line"/>
      <point x="117.72" y="262.0"/>
      <point x="125.42" y="261.0"/>
      <point x="153.46" y="261.0" type="curve"/>
      <point x="153.46" y="261.0" type="line"/>
      <point x="256.76" y="261.0"/>
      <point x="339.52" y="379.88"/>
      <point x="339.52" y="550.18" type="curve" smooth="yes"/>
      <point x="339.52" y="657.52"/>
      <point x="292.18" y="710.0"/>
      <point x="206.54" y="710.0" type="curve" smooth="yes"/>
      <point x="167.9" y="710.0"/>
      <point x="135.58" y="707.14"/>
      <point x="101.4" y="702.28" type="curve"/>
    </contour>
    <contour>
      <point x="240.88" y="-10.0" type="curve" smooth="yes"/>
      <point x="250.46" y="-10.0"/>
      <point x="268.64" y="-6.14"/>
      <point x="275.08" y="-2.42" type="curve"/>
      <point x="281.4" y="84.96" type="line"/>
      <point x="277.26" y="83.82"/>
      <point x="274.4" y="83.82"/>
      <point x="272.4" y="83.82" type="curve" smooth="yes"/>
      <point x="247.94" y="83.96"/>
      <point x="237.9" y="105.84"/>
      <point x="209.66" y="304.94" type="curve"/>
      <point x="142.5" y="285.32" type="line"/>
      <point x="185.34" y="4.14"/>
      <point x="197.56" y="-10.0"/>
    </contour>
    <contour>
      <point x="151.14" y="336.9" type="curve" smooth="yes"/>
      <point x="141.3" y="336.9"/>
      <point x="131.88" y="337.76"/>
      <point x="123.32" y="338.76" type="curve"/>
      <point x="170.86" y="630.38" type="line"/>
      <point x="183.56" y="633.38"/>
      <point x="194.12" y="634.38"/>
      <point x="203.68" y="634.38" type="curve" smooth="yes"/>
      <point x="243.62" y="634.38"/>
      <point x="259.46" y="605.26"/>
      <point x="259.46" y="551.46" type="curve" smooth="yes"/>
      <point x="259.46" y="423.96"/>
      <point x="209.64" y="336.9"/>
    </contour>
  </outline>
</glyph>
<glyph name="S" format="2">
  <advance width="291.21"/>
  <unicode hex="0053"/>
  <anchor x="97.57" y="0.0" name="bottom"/>
  <anchor x="222.39" y="700.0" name="top"/>
  <outline>
    <contour>
      <point x="319.22" y="686.54" type="line"/>
      <point x="297.77" y="700.7"/>
      <point x="263.87" y="710.0"/>
      <point x="224.1" y="710.0" type="curve" smooth="yes"/>
      <point x="125.59" y="710.0"/>
      <point x="57.53" y="634.54"/>
      <point x="57.53" y="510.22" type="curve" smooth="yes"/>
      <point x="57.53" y="370.59000000000003"/>
      <point x="177.47" y="285.4"/>
      <point x="177.47" y="182.05" type="curve" smooth="yes"/>
      <point x="177.47" y="117.28"/>
      <point x="141.22" y="69.34"/>
      <point x="84.25" y="69.34" type="curve" smooth="yes"/>
      <point x="54.39" y="69.34"/>
      <point x="32.379999999999995" y="75.49000000000001"/>
      <point x="2.049999999999999" y="89.78999999999999" type="curve"/>
      <point x="-26.15" y="17.18" type="line"/>
      <point x="0.02999999999999936" y="-0.56"/>
      <point x="40.5" y="-10.0"/>
      <point x="86.27" y="-10.0" type="curve" smooth="yes"/>
      <point x="187.05" y="-10.0"/>
      <point x="258.53" y="71.31"/>
      <point x="258.53" y="186.62" type="curve" smooth="yes"/>
      <point x="258.53" y="327.4"/>
      <point x="141.17000000000002" y="412.74"/>
      <point x="141.17000000000002" y="515.66" type="curve" smooth="yes"/>
      <point x="141.17000000000002" y="590.15"/>
      <point x="177.72" y="631.8"/>
      <point x="229.26999999999998" y="631.8" type="curve" smooth="yes"/>
      <point x="252.26999999999998" y="631.8"/>
      <point x="272.01" y="627.94"/>
      <point x="292.88" y="617.22" type="curve"/>
    </contour>
  </outline>
</glyph>
<glyph name="T" format="2">
  <advance width="281.34"/>
  <unicode hex="0054"/>
  <anchor x="96.86092" y="0.0" name="bottom"/>
  <anchor x="152.61796999999999" y="350.0" name="center"/>
  <anchor x="207.80459" y="700.0" name="top"/>
  <outline>
    <contour>
      <point x="330.02" y="623.81" type="line"/>
      <point x="342.48" y="700.0" type="line"/>
      <point x="73.29" y="700.0" type="line"/>
      <point x="60.83" y="623.81" type="line"/>
      <point x="155.11" y="623.81" type="line"/>
      <point x="56.14" y="0.0" type="line"/>
      <point x="136.63" y="0.0" type="line"/>
      <point x="235.6" y="623.81" type="line"/>
    </contour>
  </outline>
</glyph>
<glyph name="U" format="2">
  <advance width="335.3"/>
  <unicode hex="0055"/>
  <anchor x="123.84092" y="0.0" name="bottom"/>
  <anchor x="169.42000000000002" y="0.0" name="ogonek"/>
  <anchor x="233.64459" y="700.0" name="top"/>
  <anchor x="358.57" y="700.0" name="topright"/>
  <outline>
    <contour>
      <point x="120.78999999999999" y="-10.0" type="curve" smooth="yes"/>
      <point x="215.44" y="-10.0"/>
      <point x="266.76" y="44.17"/>
      <point x="286.2" y="165.24" type="curve" smooth="yes"/>
      <point x="371.47" y="700.0" type="line"/>
      <point x="290.41" y="700.0" type="line"/>
      <point x="202.99" y="148.9" type="line" smooth="yes"/>
      <point x="194.72" y="93.71000000000001"/>
      <point x="173.33" y="66.62"/>
      <point x="135.25" y="66.62" type="curve" smooth="yes"/>
      <point x="99.31" y="66.62"/>
      <point x="82.77" y="92.86"/>
      <point x="90.33" y="137.5" type="curve" smooth="yes"/>
      <point x="178.75" y="700.0" type="line"/>
      <point x="98.26" y="700.0" type="line"/>
      <point x="11.85" y="150.99" type="line" smooth="yes"/>
      <point x="8.56" y="131.39"/>
      <point x="7.7" y="122.08"/>
      <point x="7.7" y="106.22" type="curve" smooth="yes"/>
      <point x="7.7" y="29.59"/>
      <point x="46.58" y="-10.0"/>
    </contour>
  </outline>
</glyph>
<glyph name="V" format="2">
  <advance width="328.4"/>
  <unicode hex="0056"/>
  <outline>
    <contour>
      <point x="171.26" y="0.0" type="line"/>
      <point x="318.37" y="400.32"/>
      <point x="363.53" y="528.38"/>
      <point x="375.57" y="667.31" type="curve" smooth="yes"/>
      <point x="376.0" y="678.73"/>
      <point x="375.86" y="688.01"/>
      <point x="374.15" y="700.0" type="curve"/>
      <point x="285.63" y="700.0" type="line"/>
      <point x="286.77" y="689.87"/>
      <point x="287.34" y="682.02"/>
      <point x="287.34" y="673.6" type="curve" smooth="yes"/>
      <point x="281.75" y="550.73"/>
      <point x="246.19" y="439.29"/>
      <point x="136.73" y="98.88" type="curve"/>
      <point x="164.66" y="700.0" type="line"/>
      <point x="71.13" y="700.0" type="line"/>
      <point x="62.4" y="0.0" type="line"/>
    </contour>
  </outline>
</glyph>
<glyph name="W" format="2">
  <advance width="513.28"/>
  <unicode hex="0057"/>
  <anchor x="210.14" y="0.0" name="bottom"/>
  <anchor x="327.7" y="700.0" name="top"/>
  <outline>
    <contour>
      <point x="364.48" y="-1.0" type="line"/>
      <point x="524.0" y="467.94"/>
      <point x="556.58" y="584.52"/>
      <point x="560.02" y="670.6" type="curve" smooth="yes"/>
      <point x="560.02" y="681.16"/>
      <point x="559.88" y="689.44"/>
      <point x="557.74" y="700.0" type="curve"/>
      <point x="471.66" y="700.0" type="line"/>
      <point x="472.8" y="690.44"/>
      <point x="473.94" y="682.16"/>
      <point x="473.94" y="673.6" type="curve" smooth="yes"/>
      <point x="471.36" y="566.6"/>
      <point x="447.64" y="487.64"/>
      <point x="330.36" y="115.5" type="curve"/>
      <point x="363.1" y="639.32" type="line"/>
      <point x="276.04" y="639.32" type="line"/>
      <point x="232.38" y="469.1"/>
      <point x="177.54" y="274.94"/>
      <point x="129.57999999999998" y="119.34" type="curve"/>
      <point x="160.5" y="700.0" type="line"/>
      <point x="72.7" y="700.0" type="line"/>
      <point x="52.96" y="-1.0" type="line"/>
      <point x="144.92000000000002" y="-1.0" type="line"/>
      <point x="203.62" y="176.64"/>
      <point x="252.86" y="334.8"/>
      <point x="294.36" y="484.92" type="curve"/>
      <point x="266.36" y="-1.0" type="line"/>
    </contour>
  </outline>
</glyph>
<glyph name="X" format="2">
  <advance width="341.5"/>
  <unicode hex="0058"/>
  <outline>
    <contour>
      <point x="218.0" y="-3.42" type="line"/>
      <point x="302.36" y="-1.0" type="line"/>
      <point x="235.54" y="325.5" type="line"/>
      <point x="306.76" y="470.64"/>
      <point x="379.82" y="603.78"/>
      <point x="379.82" y="700.0" type="curve"/>
      <point x="295.46" y="700.0" type="line"/>
      <point x="295.32" y="607.78"/>
      <point x="251.7" y="524.22"/>
      <point x="199.57999999999998" y="414.14" type="curve"/>
      <point x="146.07999999999998" y="704.28" type="line"/>
      <point x="66.3" y="701.72" type="line"/>
      <point x="131.26" y="370.78" type="line"/>
      <point x="54.42" y="228.6"/>
      <point x="-18.04" y="109.14"/>
      <point x="-17.619999999999997" y="0.0" type="curve"/>
      <point x="68.32" y="0.0" type="line"/>
      <point x="67.9" y="90.54"/>
      <point x="107.7" y="174.02"/>
      <point x="163.92" y="285.58" type="curve"/>
    </contour>
  </outline>
</glyph>
<glyph name="Y" format="2">
  <advance width="316.96"/>
  <unicode hex="0059"/>
  <anchor x="114.7" y="0.0" name="bottom"/>
  <anchor x="225.13" y="700.0" name="top"/>
  <anchor x="92.57" y="700.0" name="topleft"/>
  <outline>
    <contour>
      <point x="71.16" y="0.0" type="line"/>
      <point x="150.36" y="0.0" type="line"/>
      <point x="194.05" y="268.99" type="line"/>
      <point x="266.37" y="388.08"/>
      <point x="327.65" y="512.11"/>
      <point x="369.13" y="661.59" type="curve" smooth="yes"/>
      <point x="372.13" y="674.44"/>
      <point x="374.99" y="687.72"/>
      <point x="377.42" y="700.57" type="curve"/>
      <point x="286.32" y="702.85" type="line"/>
      <point x="284.75" y="691.0"/>
      <point x="282.75" y="678.72"/>
      <point x="280.18" y="666.87" type="curve" smooth="yes"/>
      <point x="256.04" y="550.62"/>
      <point x="219.23" y="448.48"/>
      <point x="169.7" y="355.18" type="curve"/>
      <point x="163.09" y="702.28" type="line"/>
      <point x="70.7" y="700.57" type="line"/>
      <point x="113.71" y="268.99" type="line"/>
    </contour>
  </outline>
</glyph>
<glyph name="Z" format="2">
  <advance width="291.48"/>
  <unicode hex="005A"/>
  <anchor x="104.38" y="0.0" name="bottom"/>
  <anchor x="155.96" y="350.0" name="center"/>
  <anchor x="214.38" y="700.0" name="top"/>
  <outline>
    <contour>
      <point x="-31.86" y="0.0" type="line"/>
      <point x="238.04" y="0.0" type="line"/>
      <point x="251.36" y="77.47999999999999" type="line"/>
      <point x="61.94" y="77.47999999999999" type="line"/>
      <point x="330.6" y="621.36" type="line"/>
      <point x="342.92" y="700.0" type="line"/>
      <point x="93.7" y="700.0" type="line"/>
      <point x="81.24" y="622.52" type="line"/>
      <point x="250.12" y="622.52" type="line"/>
      <point x="-19.4" y="76.92" type="line"/>
    </contour>
  </outline>
</glyph>
<glyph name="bracketleft" format="2">
  <advance width="195.11"/>
  <unicode hex="005B"/>
  <outline>
    <contour>
      <point x="38.14" y="-136.1" type="line"/>
      <point x="166.8" y="666.1" type="line"/>
      <point x="249.22" y="666.1" type="line"/>
      <point x="261.68" y="740.0" type="line"/>
      <point x="110.67" y="740.0" type="line"/>
      <point x="-42.34" y="-210.0" type="line"/>
      <point x="107.67" y="-210.0" type="line"/>
      <point x="120.56" y="-136.1" type="line"/>
    </contour>
  </outline>
</glyph>
<glyph name="backslash" format="2">
  <advance width="297.64"/>
  <unicode hex="005C"/>
  <outline>
    <contour>
      <point x="141.45" y="740.0" type="line"/>
      <point x="72.71" y="740.0" type="line"/>
      <point x="194.05" y="-210.0" type="line"/>
      <point x="262.36" y="-210.0" type="line"/>
    </contour>
  </outline>
</glyph>
<glyph name="bracketright" format="2">
  <advance width="195.11"/>
  <unicode hex="005D"/>
  <outline>
    <contour>
      <point x="-56.54" y="-136.1" type="line"/>
      <point x="-69.0" y="-210.0" type="line"/>
      <point x="80.44" y="-210.0" type="line"/>
      <point x="234.45" y="740.0" type="line"/>
      <point x="84.01" y="740.0" type="line"/>
      <point x="71.12" y="666.1" type="line"/>
      <point x="153.54" y="666.1" type="line"/>
      <point x="24.45" y="-136.1" type="line"/>
    </contour>
  </outline>
</glyph>
<glyph name="asciicircum" format="2">
  <advance width="360.07"/>
  <unicode hex="005E"/>
  <outline>
    <contour>
      <point x="39.16" y="263.09" type="line"/>
      <point x="98.15" y="263.09" type="line"/>
      <point x="233.14" y="614.04" type="line"/>
      <point x="259.19" y="263.09" type="line"/>
      <point x="317.75" y="263.09" type="line"/>
      <point x="283.55" y="705.7" type="line"/>
      <point x="207.22" y="705.7" type="line"/>
    </contour>
  </outline>
</glyph>
<glyph name="underscore" format="2">
  <advance width="549.72"/>
  <unicode hex="005F"/>
  <outline>
    <contour>
      <point x="-70.16" y="-167.39" type="line"/>
      <point x="478.7" y="-167.39" type="line"/>
      <point x="492.88" y="-83.75" type="line"/>
      <point x="-55.980000000000004" y="-83.75" type="line"/>
    </contour>
  </outline>
</glyph>
<glyph name="a" format="2">
  <advance width="316.5"/>
  <unicode hex="0061"/>
  <note>
15
</note>
  <anchor x="122.11" y="0.0" name="bottom"/>
  <anchor x="282.62" y="6.02" name="ogonek"/>
  <anchor x="206.66" y="538.6" name="top"/>
  <outline>
    <contour>
      <point x="225.42000000000002" y="-10.0" type="curve" smooth="yes"/>
      <point x="246.3" y="-10.0"/>
      <point x="268.47" y="-3.42"/>
      <point x="282.62" y="6.02" type="curve"/>
      <point x="289.23" y="75.92" type="line"/>
      <point x="281.1" y="72.64"/>
      <point x="274.25" y="70.92999999999999"/>
      <point x="267.69" y="70.92999999999999" type="curve" smooth="yes"/>
      <point x="255.26999999999998" y="70.92999999999999"/>
      <point x="250.99" y="77.21000000000001"/>
      <point x="250.99" y="90.63" type="curve" smooth="yes"/>
      <point x="250.99" y="97.34"/>
      <point x="254.56" y="120.75"/>
      <point x="318.96" y="524.0" type="curve"/>
      <point x="289.77" y="537.87"/>
      <point x="254.43" y="548.6"/>
      <point x="216.07999999999998" y="548.6" type="curve" smooth="yes"/>
      <point x="92.31" y="548.6"/>
      <point x="11.84" y="392.65"/>
      <point x="11.84" y="142.31" type="curve" smooth="yes"/>
      <point x="11.84" y="44.019999999999996"/>
      <point x="43.29" y="-10.0"/>
      <point x="99.88" y="-10.0" type="curve" smooth="yes"/>
      <point x="129.61" y="-10.0"/>
      <point x="151.48" y="1.72"/>
      <point x="170.78" y="21.89" type="curve"/>
      <point x="181.23" y="0.86"/>
      <point x="198.1" y="-10.0"/>
    </contour>
    <contour>
      <point x="169.07" y="84.33" type="line"/>
      <point x="159.23" y="76.63"/>
      <point x="145.97" y="71.64"/>
      <point x="133.28" y="71.64" type="curve" smooth="yes"/>
      <point x="110.18" y="71.64"/>
      <point x="96.63" y="99.3"/>
      <point x="96.63" y="153.77" type="curve" smooth="yes"/>
      <point x="96.63" y="340.46"/>
      <point x="147.14" y="472.26"/>
      <point x="206.91" y="472.26" type="curve" smooth="yes"/>
      <point x="215.75" y="472.26"/>
      <point x="222.74" y="470.55"/>
      <point x="229.16" y="466.7" type="curve"/>
    </contour>
  </outline>
</glyph>
<glyph name="b" format="2">
  <advance width="315.19"/>
  <unicode hex="0062"/>
  <note>
12
</note>
  <outline>
    <contour>
      <point x="189.45" y="740.0" type="line"/>
      <point x="108.96000000000001" y="740.0" type="line"/>
      <point x="-6.18" y="10.45" type="line"/>
      <point x="17.97" y="-0.8399999999999999"/>
      <point x="48.3" y="-10.0"/>
      <point x="91.09" y="-10.0" type="curve" smooth="yes"/>
      <point x="240.06" y="-10.0"/>
      <point x="304.07" y="197.67"/>
      <point x="303.21" y="388.98" type="curve" smooth="yes"/>
      <point x="302.78" y="500.44"/>
      <point x="273.62" y="548.6"/>
      <point x="216.89" y="548.6" type="curve" smooth="yes"/>
      <point x="195.89" y="548.6"/>
      <point x="176.17000000000002" y="541.6"/>
      <point x="155.74" y="528.16" type="curve"/>
    </contour>
    <contour>
      <point x="182.21" y="466.53" type="curve" smooth="yes"/>
      <point x="211.87" y="466.53"/>
      <point x="221.0" y="430.45"/>
      <point x="221.0" y="383.4" type="curve" smooth="yes"/>
      <point x="221.0" y="226.9"/>
      <point x="175.9" y="65.62"/>
      <point x="108.00999999999999" y="65.62" type="curve" smooth="yes"/>
      <point x="99.74000000000001" y="65.62"/>
      <point x="91.03999999999999" y="67.33"/>
      <point x="84.05" y="71.18" type="curve"/>
      <point x="144.14" y="453.84000000000003" type="line"/>
      <point x="153.98" y="460.97"/>
      <point x="171.66" y="466.53"/>
    </contour>
  </outline>
</glyph>
<glyph name="c" format="2">
  <advance width="249.78"/>
  <unicode hex="0063"/>
  <note>
10
</note>
  <anchor x="115.64" y="0.0" name="bottom"/>
  <anchor x="202.52" y="538.6" name="top"/>
  <outline>
    <contour>
      <point x="127.4" y="-10.0" type="curve" smooth="yes"/>
      <point x="155.0" y="-10.0"/>
      <point x="185.76" y="-4.42"/>
      <point x="206.64" y="4.02" type="curve"/>
      <point x="196.76" y="75.92" type="line"/>
      <point x="184.04" y="72.78"/>
      <point x="165.9" y="70.64"/>
      <point x="150.32" y="70.64" type="curve" smooth="yes"/>
      <point x="111.47999999999999" y="70.64"/>
      <point x="94.06" y="108.08"/>
      <point x="94.06" y="168.88" type="curve" smooth="yes"/>
      <point x="94.06" y="317.84"/>
      <point x="144.72" y="467.68"/>
      <point x="211.4" y="467.68" type="curve" smooth="yes"/>
      <point x="228.12" y="467.68"/>
      <point x="239.56" y="465.82"/>
      <point x="256.0" y="459.96" type="curve"/>
      <point x="284.5" y="537.3" type="line"/>
      <point x="263.2" y="544.88"/>
      <point x="240.3" y="548.6"/>
      <point x="213.54" y="548.6" type="curve" smooth="yes"/>
      <point x="84.56" y="548.6"/>
      <point x="11.56" y="370.38"/>
      <point x="11.56" y="145.96" type="curve" smooth="yes"/>
      <point x="11.56" y="46.76"/>
      <point x="53.18" y="-10.0"/>
    </contour>
  </outline>
</glyph>
<glyph name="d" format="2">
  <advance width="314.64"/>
  <unicode hex="0064"/>
  <note>
17
</note>
  <anchor x="125.15" y="0.0" name="bottom"/>
  <anchor x="161.95" y="329.15" name="center"/>
  <anchor x="218.24" y="740.0" name="top"/>
  <anchor x="395.89" y="740.0" name="topright"/>
  <outline>
    <contour>
      <point x="222.99" y="-10.0" type="curve" smooth="yes"/>
      <point x="241.87" y="-10.0"/>
      <point x="264.47" y="-4.42"/>
      <point x="280.19" y="6.02" type="curve"/>
      <point x="286.8" y="75.92" type="line"/>
      <point x="279.38" y="73.21000000000001"/>
      <point x="271.82" y="70.92999999999999"/>
      <point x="264.69" y="70.92999999999999" type="curve" smooth="yes"/>
      <point x="253.41" y="70.92999999999999"/>
      <point x="248.99" y="76.64"/>
      <point x="248.99" y="88.91" type="curve" smooth="yes"/>
      <point x="248.99" y="101.21000000000001"/>
      <point x="292.39" y="368.93"/>
      <point x="351.1" y="740.0" type="curve"/>
      <point x="271.04" y="740.0" type="line"/>
      <point x="238.47" y="537.16" type="line"/>
      <point x="222.04" y="544.74"/>
      <point x="206.89" y="548.6"/>
      <point x="189.74" y="548.6" type="curve" smooth="yes"/>
      <point x="85.6" y="548.6"/>
      <point x="11.56" y="374.38"/>
      <point x="11.56" y="142.23" type="curve" smooth="yes"/>
      <point x="11.56" y="39.74"/>
      <point x="41.72" y="-10.0"/>
      <point x="99.03" y="-10.0" type="curve" smooth="yes"/>
      <point x="127.62" y="-10.0"/>
      <point x="152.2" y="5.87"/>
      <point x="168.35" y="24.17" type="curve"/>
      <point x="179.37" y="0.72"/>
      <point x="195.1" y="-10.0"/>
    </contour>
    <contour>
      <point x="130.85" y="72.21000000000001" type="curve" smooth="yes"/>
      <point x="106.32" y="72.21000000000001"/>
      <point x="93.63" y="99.74000000000001"/>
      <point x="93.63" y="140.38" type="curve" smooth="yes"/>
      <point x="93.63" y="306.36"/>
      <point x="136.15" y="472.26"/>
      <point x="203.06" y="472.26" type="curve" smooth="yes"/>
      <point x="211.33" y="472.26"/>
      <point x="217.46" y="470.55"/>
      <point x="227.3" y="467.27" type="curve"/>
      <point x="167.21" y="86.03999999999999" type="line"/>
      <point x="157.37" y="77.19999999999999"/>
      <point x="145.39" y="72.21000000000001"/>
    </contour>
  </outline>
</glyph>
<glyph name="e" format="2">
  <advance width="290.06"/>
  <unicode hex="0065"/>
  <note>
14 points
</note>
  <anchor x="139.96" y="0.0" name="bottom"/>
  <anchor x="203.84" y="0.0" name="ogonek"/>
  <anchor x="204.36" y="539.74" name="top"/>
  <outline>
    <contour>
      <point x="76.84" y="282.64" type="curve"/>
      <point x="62.66" y="214.76" type="line"/>
      <point x="94.68" y="217.32"/>
      <point x="127.97999999999999" y="226.46"/>
      <point x="158.42000000000002" y="240.6" type="curve" smooth="yes"/>
      <point x="242.88" y="279.16"/>
      <point x="303.18" y="358.18"/>
      <point x="303.18" y="451.36" type="curve" smooth="yes"/>
      <point x="303.18" y="508.56"/>
      <point x="275.0" y="548.6"/>
      <point x="212.64" y="548.6" type="curve" smooth="yes"/>
      <point x="84.68" y="548.6"/>
      <point x="14.84" y="382.56"/>
      <point x="14.84" y="178.48" type="curve" smooth="yes"/>
      <point x="14.84" y="57.019999999999996"/>
      <point x="57.46" y="-10.0"/>
      <point x="141.1" y="-10.0" type="curve" smooth="yes"/>
      <point x="174.56" y="-10.0"/>
      <point x="215.01999999999998" y="-1.28"/>
      <point x="245.2" y="17.6" type="curve"/>
      <point x="228.88" y="93.66" type="line"/>
      <point x="199.72" y="79.08"/>
      <point x="174.42000000000002" y="73.22"/>
      <point x="150.7" y="73.22" type="curve" smooth="yes"/>
      <point x="113.02" y="73.22"/>
      <point x="91.32" y="109.0"/>
      <point x="91.32" y="192.38" type="curve" smooth="yes"/>
      <point x="91.32" y="358.54"/>
      <point x="142.68" y="473.12"/>
      <point x="200.18" y="473.12" type="curve" smooth="yes"/>
      <point x="217.58" y="473.12"/>
      <point x="229.28" y="462.72"/>
      <point x="229.28" y="433.6" type="curve" smooth="yes"/>
      <point x="229.28" y="380.22"/>
      <point x="195.04" y="333.72"/>
      <point x="143.8" y="304.32" type="curve" smooth="yes"/>
      <point x="123.82" y="292.76"/>
      <point x="101.25999999999999" y="285.2"/>
    </contour>
  </outline>
</glyph>
<glyph name="f" format="2">
  <advance width="200.42000000000002"/>
  <unicode hex="0066"/>
  <outline>
    <contour>
      <point x="-58.36" y="-220.0" type="curve" smooth="yes"/>
      <point x="26.0" y="-220.0"/>
      <point x="66.89" y="-160.12"/>
      <point x="85.75999999999999" y="-40.47" type="curve" smooth="yes"/>
      <point x="160.01" y="428.02" type="line"/>
      <point x="224.81" y="428.02" type="line"/>
      <point x="236.84" y="503.35" type="line"/>
      <point x="172.04" y="503.35" type="line"/>
      <point x="191.01" y="625.02"/>
      <point x="214.69" y="667.36"/>
      <point x="258.63" y="667.36" type="curve" smooth="yes"/>
      <point x="270.34" y="667.36"/>
      <point x="284.05" y="664.36"/>
      <point x="296.48" y="660.5" type="curve"/>
      <point x="321.11" y="733.54" type="line"/>
      <point x="299.52" y="743.27"/>
      <point x="278.64" y="750.0"/>
      <point x="250.3" y="750.0" type="curve" smooth="yes"/>
      <point x="169.43" y="750.0"/>
      <point x="117.68" y="676.57"/>
      <point x="91.55" y="503.35" type="curve"/>
      <point x="41.72" y="496.92" type="line"/>
      <point x="30.259999999999998" y="428.02" type="line"/>
      <point x="79.52" y="428.02" type="line"/>
      <point x="6.2700000000000005" y="-36.760000000000005" type="line" smooth="yes"/>
      <point x="-4.15" y="-101.56"/>
      <point x="-23.14" y="-138.07"/>
      <point x="-64.37" y="-138.07" type="curve" smooth="yes"/>
      <point x="-75.36" y="-138.07"/>
      <point x="-85.93" y="-136.93"/>
      <point x="-101.07" y="-131.93" type="curve"/>
      <point x="-123.56" y="-208.27" type="line"/>
      <point x="-102.25" y="-216.28"/>
      <point x="-81.23" y="-220.0"/>
    </contour>
  </outline>
</glyph>
<glyph name="g" format="2">
  <advance width="312.92"/>
  <unicode hex="0067"/>
  <note>
16
</note>
  <anchor x="74.82" y="-214.3" name="bottom"/>
  <anchor x="203.52" y="538.6" name="top"/>
  <outline>
    <contour>
      <point x="-18.18" y="-199.24" type="line"/>
      <point x="13.879999999999999" y="-213.7"/>
      <point x="48.08" y="-220.0"/>
      <point x="73.96000000000001" y="-220.0" type="curve" smooth="yes"/>
      <point x="158.62" y="-220.0"/>
      <point x="206.95999999999998" y="-165.54"/>
      <point x="227.26" y="-38.32" type="curve" smooth="yes"/>
      <point x="318.96" y="529.3" type="line"/>
      <point x="294.94" y="540.02"/>
      <point x="257.3" y="548.6"/>
      <point x="222.24" y="548.6" type="curve" smooth="yes"/>
      <point x="76.72" y="548.6"/>
      <point x="10.84" y="362.1"/>
      <point x="10.84" y="142.02" type="curve" smooth="yes"/>
      <point x="10.84" y="55.9"/>
      <point x="36.7" y="-2.26"/>
      <point x="93.16" y="-2.26" type="curve" smooth="yes"/>
      <point x="112.16" y="-2.26"/>
      <point x="135.46" y="3.74"/>
      <point x="156.9" y="18.6" type="curve"/>
      <point x="149.2" y="-37.900000000000006" type="line" smooth="yes"/>
      <point x="138.36" y="-114.53999999999999"/>
      <point x="113.36" y="-140.22"/>
      <point x="75.4" y="-140.22" type="curve" smooth="yes"/>
      <point x="56.96" y="-140.22"/>
      <point x="27.619999999999997" y="-133.92000000000002"/>
      <point x="6.459999999999999" y="-125.48" type="curve"/>
    </contour>
    <contour>
      <point x="228.3" y="470.28" type="curve"/>
      <point x="167.64" y="88.47999999999999" type="line"/>
      <point x="158.94" y="80.64"/>
      <point x="143.4" y="75.08"/>
      <point x="132.28" y="75.08" type="curve" smooth="yes"/>
      <point x="108.32" y="75.08"/>
      <point x="94.34" y="101.3"/>
      <point x="94.34" y="146.44" type="curve" smooth="yes"/>
      <point x="94.34" y="305.76"/>
      <point x="136.84" y="475.7"/>
      <point x="204.9" y="475.7" type="curve" smooth="yes"/>
      <point x="211.18" y="475.7"/>
      <point x="219.74" y="473.56"/>
    </contour>
  </outline>
</glyph>
<glyph name="h" format="2">
  <advance width="317.62"/>
  <unicode hex="0068"/>
  <note>
16
</note>
  <anchor x="116.66" y="0.0" name="bottom"/>
  <anchor x="173.95" y="370.0" name="center"/>
  <anchor x="233.8" y="740.0" name="top"/>
  <outline>
    <contour>
      <point x="251.25" y="89.91" type="curve" smooth="yes"/>
      <point x="251.25" y="111.02"/>
      <point x="309.51" y="443.28"/>
      <point x="309.51" y="470.14" type="curve" smooth="yes"/>
      <point x="309.51" y="517.74"/>
      <point x="287.92" y="548.6"/>
      <point x="239.62" y="548.6" type="curve" smooth="yes"/>
      <point x="210.75" y="548.6"/>
      <point x="182.32999999999998" y="538.6"/>
      <point x="154.01999999999998" y="518.29" type="curve"/>
      <point x="189.45" y="740.0" type="line"/>
      <point x="108.96000000000001" y="740.0" type="line"/>
      <point x="-8.47" y="0.0" type="line"/>
      <point x="72.02" y="0.0" type="line"/>
      <point x="143.57" y="449.56" type="line"/>
      <point x="157.55" y="460.26"/>
      <point x="179.07999999999998" y="467.39"/>
      <point x="192.06" y="467.39" type="curve" smooth="yes"/>
      <point x="217.3" y="467.39"/>
      <point x="223.72" y="451.99"/>
      <point x="223.72" y="432.31" type="curve" smooth="yes"/>
      <point x="223.72" y="412.18"/>
      <point x="167.03" y="88.22"/>
      <point x="167.03" y="50.79" type="curve" smooth="yes"/>
      <point x="167.03" y="15.9"/>
      <point x="191.91" y="-10.0"/>
      <point x="229.11" y="-10.0" type="curve" smooth="yes"/>
      <point x="246.85" y="-10.0"/>
      <point x="264.59" y="-5.13"/>
      <point x="281.6" y="5.31" type="curve"/>
      <point x="288.78" y="75.78" type="line"/>
      <point x="280.65" y="72.5"/>
      <point x="274.94" y="71.92999999999999"/>
      <point x="270.65999999999997" y="71.92999999999999" type="curve" smooth="yes"/>
      <point x="256.82" y="71.92999999999999"/>
      <point x="251.25" y="77.92"/>
    </contour>
  </outline>
</glyph>
<glyph name="i" format="2">
  <advance width="151.98"/>
  <unicode hex="0069"/>
  <note>
Ajuster pts sur points
8
</note>
  <anchor x="31.919999999999998" y="0.0" name="bottom"/>
  <anchor x="72.44999999999999" y="0.0" name="ogonek"/>
  <anchor x="117.21000000000001" y="538.6" name="top"/>
  <outline>
    <contour>
      <point x="-7.470000000000001" y="0.0" type="line"/>
      <point x="72.44999999999999" y="0.0" type="line"/>
      <point x="157.74" y="538.6" type="line"/>
      <point x="77.25" y="538.6" type="line"/>
    </contour>
    <contour>
      <point x="151.51" y="744.4" type="curve" smooth="yes"/>
      <point x="109.13" y="744.4"/>
      <point x="95.8" y="711.87"/>
      <point x="94.09" y="668.52" type="curve" smooth="yes"/>
      <point x="93.52" y="641.17"/>
      <point x="107.55" y="629.99"/>
      <point x="132.04" y="629.99" type="curve" smooth="yes"/>
      <point x="174.85" y="629.99"/>
      <point x="187.75" y="663.38"/>
      <point x="189.46" y="706.3" type="curve" smooth="yes"/>
      <point x="190.03" y="733.65"/>
      <point x="175.57" y="744.4"/>
    </contour>
  </outline>
</glyph>
<glyph name="j" format="2">
  <advance width="157.54"/>
  <unicode hex="006A"/>
  <note>
idem /i
12
</note>
  <outline>
    <contour>
      <point x="157.07" y="744.4" type="curve" smooth="yes"/>
      <point x="114.69" y="744.4"/>
      <point x="101.36" y="711.87"/>
      <point x="99.65" y="668.52" type="curve" smooth="yes"/>
      <point x="99.08" y="641.17"/>
      <point x="113.54" y="629.99"/>
      <point x="138.03" y="629.99" type="curve" smooth="yes"/>
      <point x="180.41" y="629.99"/>
      <point x="193.31" y="663.38"/>
      <point x="195.01999999999998" y="706.3" type="curve" smooth="yes"/>
      <point x="195.59" y="733.65"/>
      <point x="181.13" y="744.4"/>
    </contour>
    <contour>
      <point x="163.73" y="538.6" type="line"/>
      <point x="82.81" y="538.6" type="line"/>
      <point x="-8.18" y="-34.18" type="line" smooth="yes"/>
      <point x="-18.6" y="-98.98"/>
      <point x="-37.16" y="-138.07"/>
      <point x="-78.39" y="-138.07" type="curve" smooth="yes"/>
      <point x="-90.38" y="-138.07"/>
      <point x="-100.95" y="-136.93"/>
      <point x="-115.66" y="-131.93" type="curve"/>
      <point x="-136.0" y="-209.13" type="line"/>
      <point x="-114.69" y="-217.14"/>
      <point x="-90.66" y="-220.0"/>
      <point x="-69.94" y="-220.0" type="curve" smooth="yes"/>
      <point x="14.990000000000002" y="-220.0"/>
      <point x="52.44" y="-161.12"/>
      <point x="71.74000000000001" y="-38.32" type="curve" smooth="yes"/>
    </contour>
  </outline>
</glyph>
<glyph name="k" format="2">
  <advance width="303.62"/>
  <unicode hex="006B"/>
  <anchor x="128.52" y="0.0" name="bottom"/>
  <anchor x="149.92" y="740.0" name="top"/>
  <outline>
    <contour>
      <point x="-8.04" y="0.0" type="line"/>
      <point x="72.88" y="0.0" type="line"/>
      <point x="189.88" y="740.0" type="line"/>
      <point x="108.96000000000001" y="740.0" type="line"/>
    </contour>
    <contour>
      <point x="238.96" y="-10.0" type="curve" smooth="yes"/>
      <point x="249.26" y="-10.0"/>
      <point x="259.56" y="-9.0"/>
      <point x="270.86" y="-4.28" type="curve"/>
      <point x="280.76" y="80.52" type="line"/>
      <point x="273.9" y="79.38"/>
      <point x="268.9" y="79.24"/>
      <point x="264.04" y="80.1" type="curve" smooth="yes"/>
      <point x="239.76" y="84.4"/>
      <point x="219.62" y="108.94"/>
      <point x="178.18" y="211.74" type="curve" smooth="yes"/>
      <point x="118.16" y="362.24" type="line"/>
      <point x="97.56" y="236.32" type="line"/>
      <point x="146.1" y="109.94" type="line" smooth="yes"/>
      <point x="179.24" y="24.16"/>
      <point x="200.52" y="-10.0"/>
    </contour>
    <contour>
      <point x="161.38" y="237.26" type="line"/>
      <point x="234.82" y="309.16"/>
      <point x="300.82" y="423.9"/>
      <point x="334.08" y="538.02" type="curve"/>
      <point x="259.46" y="548.46" type="line"/>
      <point x="227.5" y="432.92"/>
      <point x="177.22" y="359.54"/>
      <point x="121.12" y="300.12" type="curve"/>
    </contour>
  </outline>
</glyph>
<glyph name="l" format="2">
  <advance width="157.12"/>
  <unicode hex="006C"/>
  <anchor x="62.46" y="0.0" name="bottom"/>
  <anchor x="93.07" y="370.0" name="center"/>
  <anchor x="148.92" y="740.0" name="top"/>
  <anchor x="234.24" y="740.0" name="topright"/>
  <outline>
    <contour>
      <point x="108.96000000000001" y="740.0" type="line"/>
      <point x="4.69" y="81.24" type="line" smooth="yes"/>
      <point x="3.26" y="71.52"/>
      <point x="2.26" y="60.94"/>
      <point x="2.26" y="52.65" type="curve" smooth="yes"/>
      <point x="2.26" y="13.89"/>
      <point x="21.43" y="-10.0"/>
      <point x="64.33" y="-10.0" type="curve" smooth="yes"/>
      <point x="83.21000000000001" y="-10.0"/>
      <point x="107.38" y="-3.99"/>
      <point x="122.53" y="5.31" type="curve"/>
      <point x="129.71" y="75.78" type="line"/>
      <point x="119.87" y="72.5"/>
      <point x="111.88" y="71.36"/>
      <point x="106.46000000000001" y="71.36" type="curve" smooth="yes"/>
      <point x="92.05" y="71.36"/>
      <point x="87.34" y="77.5"/>
      <point x="87.34" y="89.07" type="curve" smooth="yes"/>
      <point x="87.34" y="97.49000000000001"/>
      <point x="89.47999999999999" y="108.47999999999999"/>
      <point x="92.19" y="126.31" type="curve" smooth="yes"/>
      <point x="189.45" y="740.0" type="line"/>
    </contour>
  </outline>
</glyph>
<glyph name="m" format="2">
  <advance width="473.42"/>
  <unicode hex="006D"/>
  <note>
24&gt;23 points
un point de trop dans la jointure avec 2e jambage
</note>
  <outline>
    <contour>
      <point x="383.62" y="-10.0" type="curve" smooth="yes"/>
      <point x="401.36" y="-10.0"/>
      <point x="421.68" y="-5.13"/>
      <point x="437.4" y="5.31" type="curve"/>
      <point x="444.58" y="75.78" type="line"/>
      <point x="436.45" y="72.5"/>
      <point x="430.74" y="71.92999999999999"/>
      <point x="426.46" y="71.92999999999999" type="curve" smooth="yes"/>
      <point x="412.62" y="71.92999999999999"/>
      <point x="406.48" y="79.21000000000001"/>
      <point x="406.48" y="92.49000000000001" type="curve" smooth="yes"/>
      <point x="406.48" y="121.34"/>
      <point x="464.74" y="446.29"/>
      <point x="464.74" y="472.72" type="curve" smooth="yes"/>
      <point x="464.74" y="516.88"/>
      <point x="444.15" y="548.6"/>
      <point x="395.42" y="548.6" type="curve" smooth="yes"/>
      <point x="369.69" y="548.6"/>
      <point x="334.53999999999996" y="540.17"/>
      <point x="297.52" y="510.29" type="curve"/>
      <point x="287.52" y="534.45"/>
      <point x="265.37" y="548.6"/>
      <point x="235.35" y="548.6" type="curve" smooth="yes"/>
      <point x="208.19" y="548.6"/>
      <point x="177.46" y="538.46"/>
      <point x="146.43" y="515.14" type="curve"/>
      <point x="150.72" y="538.6" type="line"/>
      <point x="76.68" y="538.6" type="line"/>
      <point x="-8.61" y="0.0" type="line"/>
      <point x="71.88" y="0.0" type="line"/>
      <point x="143.0" y="450.13" type="line"/>
      <point x="156.55" y="460.4"/>
      <point x="174.95" y="467.39"/>
      <point x="190.64" y="467.39" type="curve" smooth="yes"/>
      <point x="211.32" y="467.39"/>
      <point x="220.16" y="453.7"/>
      <point x="220.16" y="434.59000000000003" type="curve" smooth="yes"/>
      <point x="220.16" y="412.2"/>
      <point x="163.07" y="69.66"/>
      <point x="151.46" y="0.0" type="curve"/>
      <point x="232.09" y="0.0" type="line"/>
      <point x="240.69" y="52.03"/>
      <point x="290.47" y="359.85"/>
      <point x="299.07" y="430.12" type="curve" smooth="yes"/>
      <point x="299.5" y="435.98"/>
      <point x="299.78999999999996" y="443.56"/>
      <point x="299.65" y="448.42" type="curve"/>
      <point x="313.63" y="459.12"/>
      <point x="332.17" y="467.39"/>
      <point x="349.71" y="467.39" type="curve" smooth="yes"/>
      <point x="371.53" y="467.39"/>
      <point x="378.52" y="451.99"/>
      <point x="378.52" y="432.31" type="curve" smooth="yes"/>
      <point x="378.52" y="410.47"/>
      <point x="321.83" y="92.09"/>
      <point x="321.83" y="52.08" type="curve" smooth="yes"/>
      <point x="321.83" y="13.32"/>
      <point x="346.42" y="-10.0"/>
    </contour>
  </outline>
</glyph>
<glyph name="n" format="2">
  <advance width="316.48"/>
  <unicode hex="006E"/>
  <note>
16
</note>
  <anchor x="125.95" y="0.0" name="bottom"/>
  <anchor x="197.67" y="538.6" name="top"/>
  <outline>
    <contour>
      <point x="76.68" y="538.6" type="line"/>
      <point x="-8.61" y="0.0" type="line"/>
      <point x="71.88" y="0.0" type="line"/>
      <point x="143.43" y="449.56" type="line"/>
      <point x="157.41" y="460.26"/>
      <point x="177.94" y="467.96"/>
      <point x="191.35" y="467.96" type="curve" smooth="yes"/>
      <point x="216.59" y="467.96"/>
      <point x="223.58" y="451.99"/>
      <point x="223.58" y="432.31" type="curve" smooth="yes"/>
      <point x="223.58" y="407.45"/>
      <point x="166.89" y="92.09"/>
      <point x="166.89" y="48.64" type="curve" smooth="yes"/>
      <point x="166.89" y="16.33"/>
      <point x="190.34" y="-10.0"/>
      <point x="227.54" y="-10.0" type="curve" smooth="yes"/>
      <point x="245.28" y="-10.0"/>
      <point x="264.74" y="-5.13"/>
      <point x="280.46" y="5.31" type="curve"/>
      <point x="287.64" y="75.78" type="line"/>
      <point x="279.51" y="72.5"/>
      <point x="273.8" y="71.92999999999999"/>
      <point x="269.52" y="71.92999999999999" type="curve" smooth="yes"/>
      <point x="255.68" y="71.92999999999999"/>
      <point x="250.68" y="77.92"/>
      <point x="250.68" y="89.91" type="curve" smooth="yes"/>
      <point x="250.68" y="111.02"/>
      <point x="309.37" y="443.28"/>
      <point x="309.37" y="470.14" type="curve" smooth="yes"/>
      <point x="309.37" y="517.74"/>
      <point x="287.21" y="548.6"/>
      <point x="238.91" y="548.6" type="curve" smooth="yes"/>
      <point x="210.04" y="548.6"/>
      <point x="176.46" y="537.89"/>
      <point x="146.0" y="514.57" type="curve"/>
      <point x="149.86" y="538.6" type="line"/>
    </contour>
  </outline>
</glyph>
<glyph name="o" format="2">
  <advance width="310.06"/>
  <unicode hex="006F"/>
  <note>
8
</note>
  <anchor x="112.24" y="0.0" name="bottom"/>
  <anchor x="155.1" y="269.3" name="center"/>
  <anchor x="160.86" y="0.28" name="ogonek"/>
  <anchor x="193.94" y="538.6" name="top"/>
  <anchor x="258.14" y="528.6" name="topright"/>
  <outline>
    <contour>
      <point x="121.12" y="-10.0" type="curve" smooth="yes"/>
      <point x="253.76" y="-10.0"/>
      <point x="297.5" y="257.66"/>
      <point x="297.5" y="414.94" type="curve" smooth="yes"/>
      <point x="297.5" y="514.4"/>
      <point x="265.62" y="548.46"/>
      <point x="186.8" y="548.46" type="curve" smooth="yes"/>
      <point x="54.16" y="548.46"/>
      <point x="10.42" y="280.8"/>
      <point x="10.42" y="124.38" type="curve" smooth="yes"/>
      <point x="10.42" y="24.919999999999998"/>
      <point x="43.16" y="-10.0"/>
    </contour>
    <contour>
      <point x="122.84" y="68.06" type="curve" smooth="yes"/>
      <point x="101.88" y="68.06"/>
      <point x="88.62" y="76.75999999999999"/>
      <point x="88.62" y="124.1" type="curve" smooth="yes"/>
      <point x="88.62" y="191.44"/>
      <point x="122.18" y="470.4"/>
      <point x="185.94" y="470.4" type="curve" smooth="yes"/>
      <point x="206.9" y="470.4"/>
      <point x="220.16" y="462.56"/>
      <point x="220.16" y="415.22" type="curve" smooth="yes"/>
      <point x="220.16" y="347.02"/>
      <point x="186.6" y="68.06"/>
    </contour>
  </outline>
</glyph>
<glyph name="q" format="2">
  <advance width="313.21"/>
  <unicode hex="0071"/>
  <note>
12
</note>
  <outline>
    <contour>
      <point x="318.82" y="528.15" type="line"/>
      <point x="293.65999999999997" y="538.3"/>
      <point x="255.17000000000002" y="548.6"/>
      <point x="214.1" y="548.6" type="curve" smooth="yes"/>
      <point x="67.36" y="548.6"/>
      <point x="10.7" y="321.53"/>
      <point x="10.7" y="134.49" type="curve" smooth="yes"/>
      <point x="10.7" y="34.89"/>
      <point x="44.85" y="-10.0"/>
      <point x="98.18" y="-10.0" type="curve" smooth="yes"/>
      <point x="121.46" y="-10.0"/>
      <point x="141.47" y="0.0"/>
      <point x="155.9" y="11.72" type="curve"/>
      <point x="119.76" y="-210.0" type="line"/>
      <point x="200.53" y="-210.0" type="line"/>
    </contour>
    <contour>
      <point x="228.16" y="467.27" type="curve"/>
      <point x="167.5" y="85.47" type="line"/>
      <point x="157.66" y="76.63"/>
      <point x="142.82999999999998" y="71.64"/>
      <point x="131.71" y="71.64" type="curve" smooth="yes"/>
      <point x="105.47" y="71.64"/>
      <point x="93.92" y="104.3"/>
      <point x="93.92" y="138.38" type="curve" smooth="yes"/>
      <point x="93.92" y="274.98"/>
      <point x="127.6" y="472.26"/>
      <point x="203.49" y="472.26" type="curve" smooth="yes"/>
      <point x="210.05" y="472.26"/>
      <point x="218.89" y="470.55"/>
    </contour>
  </outline>
</glyph>
<glyph name="r" format="2">
  <advance width="215.14"/>
  <unicode hex="0072"/>
  <anchor x="30.919999999999998" y="0.0" name="bottom"/>
  <anchor x="177.95" y="538.6" name="top"/>
  <outline>
    <contour>
      <point x="149.86" y="538.6" type="line"/>
      <point x="76.68" y="538.6" type="line"/>
      <point x="-8.61" y="0.0" type="line"/>
      <point x="70.59" y="0.0" type="line"/>
      <point x="137.71" y="420.98" type="line"/>
      <point x="162.4" y="445.94"/>
      <point x="182.52" y="455.35"/>
      <point x="203.93" y="455.35" type="curve" smooth="yes"/>
      <point x="213.35" y="455.35"/>
      <point x="226.5" y="453.78"/>
      <point x="238.07" y="449.78" type="curve"/>
      <point x="265.28" y="540.74" type="line"/>
      <point x="251.99" y="547.03"/>
      <point x="239.85" y="548.6"/>
      <point x="225.85" y="548.6" type="curve" smooth="yes"/>
      <point x="199.29" y="548.6"/>
      <point x="170.73" y="532.46"/>
      <point x="143.43" y="500.44" type="curve"/>
    </contour>
  </outline>
</glyph>
<glyph name="s" format="2">
  <advance width="264.04"/>
  <unicode hex="0073"/>
  <anchor x="84.68" y="0.0" name="bottom"/>
  <anchor x="186.66" y="538.6" name="top"/>
  <outline>
    <contour>
      <point x="-22.88" y="13.6" type="line"/>
      <point x="4.58" y="-1.56"/>
      <point x="37.18" y="-10.0"/>
      <point x="81.82" y="-10.0" type="curve" smooth="yes"/>
      <point x="180.0" y="-10.0"/>
      <point x="234.78" y="59.66"/>
      <point x="234.78" y="159.78" type="curve" smooth="yes"/>
      <point x="234.78" y="282.7"/>
      <point x="118.14" y="314.74"/>
      <point x="118.14" y="394.98" type="curve" smooth="yes"/>
      <point x="118.14" y="436.78"/>
      <point x="141.68" y="468.54"/>
      <point x="184.92" y="468.54" type="curve" smooth="yes"/>
      <point x="209.36" y="468.54"/>
      <point x="234.82" y="460.68"/>
      <point x="256.56" y="451.1" type="curve"/>
      <point x="280.18" y="528.3" type="line"/>
      <point x="261.15999999999997" y="539.88"/>
      <point x="227.12" y="548.6"/>
      <point x="190.5" y="548.6" type="curve" smooth="yes"/>
      <point x="85.84" y="548.6"/>
      <point x="39.8" y="466.44"/>
      <point x="39.8" y="384.94" type="curve" smooth="yes"/>
      <point x="39.8" y="251.44"/>
      <point x="156.3" y="229.82"/>
      <point x="156.3" y="150.18" type="curve" smooth="yes"/>
      <point x="156.3" y="108.53999999999999"/>
      <point x="131.48" y="68.34"/>
      <point x="83.96000000000001" y="68.34" type="curve" smooth="yes"/>
      <point x="57.8" y="68.34"/>
      <point x="26.619999999999997" y="75.78"/>
      <point x="3.3200000000000003" y="87.5" type="curve"/>
    </contour>
  </outline>
</glyph>
<glyph name="u" format="2">
  <advance width="315.62"/>
  <unicode hex="0075"/>
  <note>
15
</note>
  <anchor x="117.67" y="0.0" name="bottom"/>
  <anchor x="280.03" y="6.45" name="ogonek"/>
  <anchor x="198.19908" y="538.6" name="top"/>
  <anchor x="306.19" y="538.6" name="topright"/>
  <outline>
    <contour>
      <point x="77.16" y="-10.0" type="curve" smooth="yes"/>
      <point x="109.75" y="-10.0"/>
      <point x="135.75" y="3.01"/>
      <point x="167.76" y="31.18" type="curve"/>
      <point x="174.2" y="5.88"/>
      <point x="195.94" y="-10.0"/>
      <point x="224.82999999999998" y="-10.0" type="curve" smooth="yes"/>
      <point x="241.43" y="-10.0"/>
      <point x="265.45" y="-3.42"/>
      <point x="280.03" y="6.45" type="curve"/>
      <point x="286.64" y="75.92" type="line"/>
      <point x="278.51" y="72.64"/>
      <point x="269.95" y="70.92999999999999"/>
      <point x="265.1" y="70.92999999999999" type="curve" smooth="yes"/>
      <point x="252.4" y="70.92999999999999"/>
      <point x="248.82999999999998" y="78.78"/>
      <point x="248.82999999999998" y="89.78" type="curve" smooth="yes"/>
      <point x="248.82999999999998" y="98.19999999999999"/>
      <point x="250.97" y="113.61"/>
      <point x="319.09000000000003" y="538.6" type="curve"/>
      <point x="239.89" y="538.6" type="line"/>
      <point x="168.48" y="90.46000000000001" type="line"/>
      <point x="150.51" y="76.34"/>
      <point x="133.82999999999998" y="69.78"/>
      <point x="117.71000000000001" y="69.78" type="curve" smooth="yes"/>
      <point x="97.74000000000001" y="69.78"/>
      <point x="86.9" y="85.33"/>
      <point x="87.75999999999999" y="105.02" type="curve" smooth="yes"/>
      <point x="95.5" y="162.88"/>
      <point x="105.96" y="228.22"/>
      <point x="154.6" y="538.6" type="curve"/>
      <point x="74.97" y="538.6" type="line"/>
      <point x="28.259999999999998" y="238.94"/>
      <point x="3.4000000000000004" y="116.08"/>
      <point x="3.4000000000000004" y="64.62" type="curve" smooth="yes"/>
      <point x="3.4000000000000004" y="20.740000000000002"/>
      <point x="29.98" y="-10.0"/>
    </contour>
  </outline>
</glyph>
<glyph name="v" format="2">
  <advance width="292.22"/>
  <unicode hex="0076"/>
  <outline>
    <contour>
      <point x="152.95" y="-2.2800000000000002" type="line"/>
      <point x="250.76" y="278.62"/>
      <point x="310.67" y="399.64"/>
      <point x="312.82" y="538.6" type="curve"/>
      <point x="230.18" y="538.6" type="line"/>
      <point x="228.47" y="420.26"/>
      <point x="200.3" y="350.99"/>
      <point x="114.27" y="89.19" type="curve"/>
      <point x="131.76" y="538.6" type="line"/>
      <point x="46.97" y="538.6" type="line"/>
      <point x="49.25" y="-2.2800000000000002" type="line"/>
    </contour>
  </outline>
</glyph>
<glyph name="w" format="2">
  <advance width="478.73"/>
  <unicode hex="0077"/>
  <note>
15
</note>
  <anchor x="203.13" y="0.0" name="bottom"/>
  <anchor x="269.85" y="538.6" name="top"/>
  <outline>
    <contour>
      <point x="352.15" y="0.0" type="line"/>
      <point x="451.40999999999997" y="309.77"/>
      <point x="491.77" y="400.25"/>
      <point x="497.33" y="538.6" type="curve"/>
      <point x="415.98" y="538.6" type="line"/>
      <point x="407.56" y="412.59"/>
      <point x="386.25" y="341.89"/>
      <point x="316.90999999999997" y="95.34" type="curve"/>
      <point x="319.99" y="504.97" type="line"/>
      <point x="229.19" y="504.97" type="line"/>
      <point x="193.64" y="367.57"/>
      <point x="158.66" y="230.6"/>
      <point x="123.11" y="93.19999999999999" type="curve"/>
      <point x="128.2" y="538.6" type="line"/>
      <point x="43.55" y="538.6" type="line"/>
      <point x="57.230000000000004" y="0.0" type="line"/>
      <point x="157.92000000000002" y="0.0" type="line"/>
      <point x="190.03" y="125.65"/>
      <point x="222.28" y="251.87"/>
      <point x="254.39" y="377.52" type="curve"/>
      <point x="255.76" y="0.0" type="line"/>
    </contour>
  </outline>
</glyph>
<glyph name="x" format="2">
  <advance width="307.44"/>
  <unicode hex="0078"/>
  <outline>
    <contour>
      <point x="237.53" y="538.6" type="line"/>
      <point x="237.53" y="472.31"/>
      <point x="216.25" y="406.8"/>
      <point x="161.57999999999998" y="316.97" type="curve"/>
      <point x="141.79" y="540.88" type="line"/>
      <point x="53.84" y="538.6" type="line"/>
      <point x="89.39" y="271.73" type="line"/>
      <point x="26.29" y="173.33"/>
      <point x="-15.01" y="83.9"/>
      <point x="-19.740000000000002" y="0.0" type="curve"/>
      <point x="66.92" y="0.0" type="line"/>
      <point x="70.5" y="70.42"/>
      <point x="99.62" y="142.83"/>
      <point x="147.14" y="221.64" type="curve"/>
      <point x="169.37" y="-1.1400000000000001" type="line"/>
      <point x="258.61" y="0.5700000000000001" type="line"/>
      <point x="219.32999999999998" y="267.45" type="line"/>
      <point x="293.18" y="376.05"/>
      <point x="322.75" y="483.36"/>
      <point x="322.75" y="538.6" type="curve"/>
    </contour>
  </outline>
</glyph>
<glyph name="y" format="2">
  <advance width="291.94"/>
  <unicode hex="0079"/>
  <anchor x="83.1" y="-210.0" name="bottom"/>
  <anchor x="177.98" y="538.6" name="top"/>
  <outline>
    <contour>
      <point x="235.62" y="544.3" type="line"/>
      <point x="215.66" y="363.28"/>
      <point x="174.26" y="229.06"/>
      <point x="124.97999999999999" y="87.92" type="curve"/>
      <point x="120.9" y="544.3" type="line"/>
      <point x="41.7" y="543.16" type="line"/>
      <point x="50.36" y="0.0" type="line"/>
      <point x="82.88" y="0.0" type="line"/>
      <point x="57.32" y="-69.4"/>
      <point x="25.46" y="-135.1"/>
      <point x="-14.0" y="-210.0" type="curve"/>
      <point x="67.5" y="-215.7" type="line"/>
      <point x="193.86" y="55.48"/>
      <point x="283.28" y="288.06"/>
      <point x="315.53999999999996" y="542.02" type="curve"/>
    </contour>
  </outline>
</glyph>
<glyph name="z" format="2">
  <advance width="277.47"/>
  <unicode hex="007A"/>
  <anchor x="108.08" y="0.0" name="bottom"/>
  <anchor x="135.81" y="275.0" name="center"/>
  <anchor x="184.94" y="538.6" name="top"/>
  <outline>
    <contour>
      <point x="-20.3" y="0.0" type="line"/>
      <point x="229.59" y="0.0" type="line"/>
      <point x="241.62" y="77.91" type="line"/>
      <point x="76.95" y="77.91" type="line"/>
      <point x="287.14" y="462.98" type="line"/>
      <point x="301.61" y="538.6" type="line"/>
      <point x="68.12" y="538.6" type="line"/>
      <point x="55.66" y="459.83" type="line"/>
      <point x="203.07" y="459.83" type="line"/>
      <point x="-9.7" y="70.46000000000001" type="line"/>
    </contour>
  </outline>
</glyph>
<glyph name="braceleft" format="2">
  <advance width="208.22"/>
  <unicode hex="007B"/>
  <outline>
    <contour>
      <point x="-2.1799999999999997" y="-108.66" type="curve" smooth="yes"/>
      <point x="-2.1799999999999997" y="-174.86"/>
      <point x="26.0" y="-210.0"/>
      <point x="69.31" y="-210.0" type="curve" smooth="yes"/>
      <point x="109.24" y="-210.0" type="line"/>
      <point x="122.13" y="-134.96" type="line"/>
      <point x="102.41" y="-134.96" type="line" smooth="yes"/>
      <point x="80.71000000000001" y="-134.96"/>
      <point x="70.86" y="-114.84"/>
      <point x="70.86" y="-83.58" type="curve" smooth="yes"/>
      <point x="70.86" y="15.059999999999999"/>
      <point x="134.68" y="100.13"/>
      <point x="134.68" y="192.78" type="curve" smooth="yes"/>
      <point x="134.68" y="223.8"/>
      <point x="128.81" y="252.96"/>
      <point x="105.66" y="270.13" type="curve"/>
      <point x="152.68" y="291.76"/>
      <point x="172.84" y="364.45"/>
      <point x="172.84" y="421.33" type="curve" smooth="yes"/>
      <point x="172.84" y="461.72"/>
      <point x="170.41" y="488.57"/>
      <point x="170.41" y="538.65" type="curve" smooth="yes"/>
      <point x="170.41" y="596.58"/>
      <point x="185.53" y="664.96"/>
      <point x="233.07" y="664.96" type="curve" smooth="yes"/>
      <point x="249.65" y="664.96" type="line"/>
      <point x="261.68" y="740.0" type="line"/>
      <point x="224.6" y="740.0" type="line" smooth="yes"/>
      <point x="130.11" y="740.0"/>
      <point x="99.95" y="631.25"/>
      <point x="99.95" y="529.22" type="curve" smooth="yes"/>
      <point x="99.95" y="479.12"/>
      <point x="103.67" y="451.13"/>
      <point x="103.67" y="418.13" type="curve" smooth="yes"/>
      <point x="103.67" y="374.16"/>
      <point x="96.82" y="309.94"/>
      <point x="58.980000000000004" y="309.94" type="curve" smooth="yes"/>
      <point x="45.55" y="309.94" type="line"/>
      <point x="33.09" y="231.6" type="line"/>
      <point x="45.38" y="231.6" type="line" smooth="yes"/>
      <point x="63.8" y="231.6"/>
      <point x="68.23" y="215.62"/>
      <point x="68.23" y="194.06" type="curve" smooth="yes"/>
      <point x="68.23" y="100.15"/>
      <point x="-2.1799999999999997" y="10.86"/>
    </contour>
  </outline>
</glyph>
<glyph name="bar" format="2">
  <advance width="130.07999999999998"/>
  <unicode hex="007C"/>
  <outline>
    <contour>
      <point x="182.26999999999998" y="790.43" type="line"/>
      <point x="111.38" y="790.43" type="line"/>
      <point x="-47.62" y="-210.0" type="line"/>
      <point x="23.700000000000003" y="-210.0" type="line"/>
    </contour>
  </outline>
</glyph>
<glyph name="braceright" format="2">
  <advance width="208.22"/>
  <unicode hex="007D"/>
  <outline>
    <contour>
      <point x="207.4" y="638.66" type="curve" smooth="yes"/>
      <point x="207.4" y="705.29"/>
      <point x="178.79" y="740.43"/>
      <point x="135.48" y="740.43" type="curve" smooth="yes"/>
      <point x="95.55" y="740.43" type="line"/>
      <point x="82.66" y="665.39" type="line"/>
      <point x="98.08" y="665.39" type="line" smooth="yes"/>
      <point x="120.21000000000001" y="665.39"/>
      <point x="130.49" y="644.84"/>
      <point x="130.49" y="613.58" type="curve" smooth="yes"/>
      <point x="130.49" y="514.08"/>
      <point x="66.67" y="442.74"/>
      <point x="66.67" y="341.06" type="curve" smooth="yes"/>
      <point x="66.67" y="311.33"/>
      <point x="72.11" y="282.17"/>
      <point x="96.12" y="265.43" type="curve"/>
      <point x="49.1" y="243.37"/>
      <point x="28.51" y="171.54"/>
      <point x="28.51" y="114.23" type="curve" smooth="yes"/>
      <point x="28.51" y="73.84"/>
      <point x="30.94" y="41.86"/>
      <point x="30.94" y="-7.359999999999999" type="curve" smooth="yes"/>
      <point x="30.94" y="-65.28999999999999"/>
      <point x="16.25" y="-134.53"/>
      <point x="-31.29" y="-134.53" type="curve" smooth="yes"/>
      <point x="-44.43" y="-134.53" type="line"/>
      <point x="-56.46" y="-210.0" type="line"/>
      <point x="-19.810000000000002" y="-210.0" type="line" smooth="yes"/>
      <point x="74.68" y="-210.0"/>
      <point x="104.84" y="-95.66"/>
      <point x="104.84" y="-7.390000000000001" type="curve" smooth="yes"/>
      <point x="104.84" y="54.32"/>
      <point x="101.12" y="89.16"/>
      <point x="101.12" y="119.15" type="curve" smooth="yes"/>
      <point x="101.12" y="162.26"/>
      <point x="108.83" y="225.62"/>
      <point x="145.81" y="225.62" type="curve" smooth="yes"/>
      <point x="159.24" y="225.62" type="line"/>
      <point x="171.7" y="303.53" type="line"/>
      <point x="159.41" y="303.53" type="line" smooth="yes"/>
      <point x="140.99" y="303.53"/>
      <point x="136.56" y="319.51"/>
      <point x="136.56" y="341.07" type="curve" smooth="yes"/>
      <point x="136.56" y="435.41"/>
      <point x="207.4" y="513.12"/>
    </contour>
  </outline>
</glyph>
<glyph name="asciitilde" format="2">
  <advance width="363.92"/>
  <unicode hex="007E"/>
  <outline>
    <contour>
      <point x="305.92" y="245.55" type="curve"/>
      <point x="318.52" y="326.88" type="line"/>
      <point x="296.08" y="301.74"/>
      <point x="277.78" y="292.03"/>
      <point x="256.2" y="292.03" type="curve" smooth="yes"/>
      <point x="200.62" y="292.03"/>
      <point x="191.2" y="388.52"/>
      <point x="132.48" y="388.52" type="curve" smooth="yes"/>
      <point x="104.03" y="388.52"/>
      <point x="79.42" y="372.64"/>
      <point x="67.01" y="356.52" type="curve"/>
      <point x="54.41" y="275.19" type="line"/>
      <point x="67.96000000000001" y="293.02"/>
      <point x="92.57" y="310.04"/>
      <point x="119.31" y="310.04" type="curve" smooth="yes"/>
      <point x="172.9" y="310.04"/>
      <point x="182.89" y="213.55"/>
      <point x="243.6" y="213.55" type="curve" smooth="yes"/>
      <point x="266.89" y="213.55"/>
      <point x="284.62" y="222.12"/>
    </contour>
  </outline>
</glyph>
<glyph name="cent" format="2">
  <advance width="323.1"/>
  <unicode hex="00A2"/>
  <outline>
    <contour>
      <point x="96.3" y="-105.43" type="line"/>
      <point x="168.91" y="-105.43" type="line"/>
      <point x="184.34" y="-6.5600000000000005" type="line"/>
      <point x="203.35" y="-4.2700000000000005"/>
      <point x="221.5" y="-0.5499999999999998"/>
      <point x="234.64" y="5.74" type="curve"/>
      <point x="232.93" y="90.53999999999999" type="line"/>
      <point x="217.64" y="85.97"/>
      <point x="198.64" y="82.25"/>
      <point x="186.06" y="82.25" type="curve" smooth="yes"/>
      <point x="147.51999999999998" y="82.25"/>
      <point x="136.39" y="116.8"/>
      <point x="136.39" y="169.31" type="curve" smooth="yes"/>
      <point x="136.39" y="317.77"/>
      <point x="179.3" y="454.78"/>
      <point x="244.99" y="454.78" type="curve" smooth="yes"/>
      <point x="257.71" y="454.78"/>
      <point x="271.0" y="452.21000000000004"/>
      <point x="283.57" y="447.78" type="curve"/>
      <point x="311.64" y="536.73" type="line"/>
      <point x="300.64" y="540.59"/>
      <point x="288.63" y="544.02"/>
      <point x="275.19" y="545.88" type="curve"/>
      <point x="291.19" y="643.17" type="line"/>
      <point x="218.58" y="643.17" type="line"/>
      <point x="201.72" y="539.86" type="line"/>
      <point x="105.25" y="506.34"/>
      <point x="50.31" y="321.74"/>
      <point x="50.31" y="134.35" type="curve" smooth="yes"/>
      <point x="50.31" y="47.79"/>
      <point x="76.87" y="11.19"/>
      <point x="111.59" y="-2.12" type="curve"/>
    </contour>
  </outline>
</glyph>
<glyph name="sterling" format="2">
  <advance width="323.1"/>
  <unicode hex="00A3"/>
  <outline>
    <contour>
      <point x="15.42" y="0.0" type="line"/>
      <point x="235.64" y="0.0" type="line"/>
      <point x="248.1" y="80.19999999999999" type="line"/>
      <point x="122.12" y="80.19999999999999" type="line"/>
      <point x="166.51999999999998" y="142.86"/>
      <point x="198.64" y="205.24"/>
      <point x="198.64" y="298.3" type="curve" smooth="yes"/>
      <point x="198.64" y="352.84"/>
      <point x="185.36" y="404.56"/>
      <point x="185.36" y="458.24" type="curve" smooth="yes"/>
      <point x="185.36" y="576.24"/>
      <point x="231.74" y="622.06"/>
      <point x="272.32" y="622.06" type="curve" smooth="yes"/>
      <point x="289.02" y="622.06"/>
      <point x="303.3" y="618.78"/>
      <point x="319.3" y="609.64" type="curve"/>
      <point x="345.64" y="686.12" type="line"/>
      <point x="325.62" y="701.28"/>
      <point x="296.3" y="710.0"/>
      <point x="269.56" y="710.0" type="curve" smooth="yes"/>
      <point x="164.3" y="710.0"/>
      <point x="107.16" y="608.9"/>
      <point x="107.16" y="471.12" type="curve" smooth="yes"/>
      <point x="107.16" y="393.72"/>
      <point x="123.74" y="352.96"/>
      <point x="123.74" y="286.28" type="curve" smooth="yes"/>
      <point x="123.74" y="188.92"/>
      <point x="76.44" y="122.08"/>
      <point x="23.16" y="62.14" type="curve"/>
    </contour>
    <contour>
      <point x="59.42" y="333.32" type="line"/>
      <point x="274.46" y="333.32" type="line"/>
      <point x="282.62" y="391.88" type="line"/>
      <point x="68.44" y="391.88" type="line"/>
    </contour>
  </outline>
</glyph>
<glyph name="currency" format="2">
  <advance width="378.58"/>
  <unicode hex="00A4"/>
  <outline>
    <contour>
      <point x="51.53" y="106.55" type="line"/>
      <point x="120.35" y="171.66" type="line"/>
      <point x="133.48" y="159.4"/>
      <point x="151.6" y="153.13"/>
      <point x="173.0" y="153.13" type="curve" smooth="yes"/>
      <point x="193.54" y="153.13"/>
      <point x="213.51" y="159.4"/>
      <point x="230.63" y="171.23" type="curve"/>
      <point x="279.32" y="106.55" type="line"/>
      <point x="339.18" y="163.12" type="line"/>
      <point x="293.79" y="223.07" type="line"/>
      <point x="311.76" y="245.05"/>
      <point x="323.74" y="273.87"/>
      <point x="324.6" y="304.4" type="curve" smooth="yes"/>
      <point x="325.46" y="323.24"/>
      <point x="322.04" y="340.8"/>
      <point x="315.34" y="356.65" type="curve"/>
      <point x="379.43" y="416.6" type="line"/>
      <point x="337.47" y="473.17" type="line"/>
      <point x="269.51" y="409.78" type="line"/>
      <point x="255.81" y="421.61"/>
      <point x="237.69" y="428.88"/>
      <point x="216.72" y="428.88" type="curve" smooth="yes"/>
      <point x="194.89" y="428.88"/>
      <point x="174.06" y="421.18"/>
      <point x="156.07999999999998" y="409.35" type="curve"/>
      <point x="109.68" y="473.17" type="line"/>
      <point x="50.1" y="416.6" type="line"/>
      <point x="95.07" y="355.07" type="line"/>
      <point x="77.96000000000001" y="333.81"/>
      <point x="66.98" y="306.85"/>
      <point x="66.12" y="277.61" type="curve" smooth="yes"/>
      <point x="65.26" y="258.2"/>
      <point x="68.25" y="240.07"/>
      <point x="74.95" y="224.65" type="curve"/>
      <point x="9.85" y="163.12" type="line"/>
    </contour>
    <contour>
      <point x="183.45" y="213.98" type="curve" smooth="yes"/>
      <point x="147.64" y="213.98"/>
      <point x="123.68" y="241.07999999999998"/>
      <point x="124.97" y="278.89" type="curve" smooth="yes"/>
      <point x="126.25999999999999" y="327.24"/>
      <point x="165.19" y="367.6"/>
      <point x="207.27" y="367.6" type="curve" smooth="yes"/>
      <point x="243.65" y="367.6"/>
      <point x="266.61" y="339.21"/>
      <point x="265.32" y="301.69" type="curve" smooth="yes"/>
      <point x="264.03" y="253.05"/>
      <point x="226.1" y="213.98"/>
    </contour>
  </outline>
</glyph>
<glyph name="yen" format="2">
  <advance width="323.1"/>
  <unicode hex="00A5"/>
  <outline>
    <contour>
      <point x="60.68" y="322.86" type="line"/>
      <point x="130.28" y="322.86" type="line"/>
      <point x="118.6" y="251.22" type="line"/>
      <point x="50.14" y="251.22" type="line"/>
      <point x="40.12" y="193.52" type="line"/>
      <point x="109.58" y="193.52" type="line"/>
      <point x="79.16" y="0.0" type="line"/>
      <point x="159.07999999999998" y="0.0" type="line"/>
      <point x="189.5" y="193.52" type="line"/>
      <point x="261.38" y="193.52" type="line"/>
      <point x="270.4" y="251.22" type="line"/>
      <point x="198.51999999999998" y="251.22" type="line"/>
      <point x="210.2" y="322.86" type="line"/>
      <point x="281.94" y="322.86" type="line"/>
      <point x="291.1" y="380.56" type="line"/>
      <point x="220.36" y="380.56" type="line"/>
      <point x="359.72" y="701.0" type="line"/>
      <point x="273.78" y="704.56" type="line"/>
      <point x="191.42000000000002" y="449.82" type="line"/>
      <point x="184.32" y="701.14" type="line"/>
      <point x="98.38" y="700.0" type="line"/>
      <point x="139.3" y="380.56" type="line"/>
      <point x="69.84" y="380.56" type="line"/>
    </contour>
  </outline>
</glyph>
<glyph name="brokenbar" format="2">
  <advance width="132.8"/>
  <unicode hex="00A6"/>
  <outline>
    <contour>
      <point x="119.99000000000001" y="391.0" type="line"/>
      <point x="184.85" y="790.43" type="line"/>
      <point x="113.96000000000001" y="790.43" type="line"/>
      <point x="49.1" y="391.0" type="line"/>
    </contour>
    <contour>
      <point x="16.810000000000002" y="190.43" type="line"/>
      <point x="-47.05" y="-210.0" type="line"/>
      <point x="23.839999999999996" y="-210.0" type="line"/>
      <point x="88.13" y="190.43" type="line"/>
    </contour>
  </outline>
</glyph>
<glyph name="section" format="2">
  <advance width="356.84"/>
  <unicode hex="00A7"/>
  <outline>
    <contour>
      <point x="2.88" y="-96.76" type="curve"/>
      <point x="-31.9" y="-185.0" type="line"/>
      <point x="-3.1799999999999997" y="-208.85"/>
      <point x="39.18" y="-220.0"/>
      <point x="70.03" y="-220.0" type="curve" smooth="yes"/>
      <point x="219.29" y="-220.0"/>
      <point x="311.98" y="-27.93"/>
      <point x="311.98" y="151.73" type="curve" smooth="yes"/>
      <point x="311.98" y="303.77"/>
      <point x="236.17000000000002" y="409.76"/>
      <point x="236.17000000000002" y="544.83" type="curve" smooth="yes"/>
      <point x="236.17000000000002" y="605.2"/>
      <point x="260.29" y="652.89"/>
      <point x="299.99" y="652.89" type="curve" smooth="yes"/>
      <point x="310.42" y="652.89"/>
      <point x="318.84" y="649.03"/>
      <point x="331.40999999999997" y="642.03" type="curve"/>
      <point x="366.49" y="731.26" type="line"/>
      <point x="347.48" y="743.85"/>
      <point x="311.56" y="749.43"/>
      <point x="290.26" y="749.43" type="curve" smooth="yes"/>
      <point x="129.98" y="749.43"/>
      <point x="44.43" y="576.5"/>
      <point x="44.43" y="390.25" type="curve" smooth="yes"/>
      <point x="44.43" y="217.64"/>
      <point x="119.67" y="88.49"/>
      <point x="119.67" y="-34.14" type="curve" smooth="yes"/>
      <point x="119.67" y="-83.78"/>
      <point x="96.7" y="-124.46000000000001"/>
      <point x="58.87" y="-124.46000000000001" type="curve" smooth="yes"/>
      <point x="39.73" y="-124.46000000000001"/>
      <point x="18.88" y="-115.47"/>
    </contour>
    <contour>
      <point x="238.81" y="688.31" type="curve"/>
      <point x="197.9" y="651.27"/>
      <point x="179.61" y="589.66"/>
      <point x="179.61" y="534.64" type="curve" smooth="yes"/>
      <point x="179.61" y="385.04"/>
      <point x="252.27" y="286.72"/>
      <point x="252.27" y="131.43" type="curve" smooth="yes"/>
      <point x="252.27" y="0.7800000000000011"/>
      <point x="184.59" y="-142.05"/>
      <point x="99.97" y="-159.32" type="curve"/>
      <point x="157.35" y="-125.75"/>
      <point x="177.66" y="-66.11"/>
      <point x="177.66" y="-6.070000000000007" type="curve" smooth="yes"/>
      <point x="177.66" y="124.88"/>
      <point x="104.14" y="251.1"/>
      <point x="104.14" y="394.58" type="curve" smooth="yes"/>
      <point x="104.14" y="528.32"/>
      <point x="149.82" y="647.01"/>
    </contour>
  </outline>
</glyph>
<glyph name="copyright" format="2">
  <advance width="442.81"/>
  <unicode hex="00A9"/>
  <outline>
    <contour>
      <point x="187.44" y="-10.0" type="curve" smooth="yes"/>
      <point x="349.88" y="-10.0"/>
      <point x="433.65" y="274.92"/>
      <point x="433.65" y="518.91" type="curve" smooth="yes"/>
      <point x="433.65" y="651.2"/>
      <point x="375.4" y="711.71"/>
      <point x="279.51" y="711.71" type="curve" smooth="yes"/>
      <point x="116.5" y="711.71"/>
      <point x="32.73" y="426.78999999999996"/>
      <point x="32.73" y="182.8" type="curve" smooth="yes"/>
      <point x="32.73" y="50.51"/>
      <point x="90.97999999999999" y="-10.0"/>
    </contour>
    <contour>
      <point x="215.55" y="142.78" type="curve" smooth="yes"/>
      <point x="229.86" y="142.78"/>
      <point x="251.31" y="146.5"/>
      <point x="263.32" y="152.37" type="curve"/>
      <point x="263.32" y="203.91" type="line"/>
      <point x="256.03" y="201.05"/>
      <point x="241.18" y="199.19"/>
      <point x="233.6" y="199.19" type="curve" smooth="yes"/>
      <point x="209.17000000000002" y="199.19"/>
      <point x="196.3" y="225.48"/>
      <point x="196.3" y="269.92" type="curve" smooth="yes"/>
      <point x="196.3" y="375.17"/>
      <point x="229.86" y="486.53"/>
      <point x="275.28999999999996" y="486.53" type="curve" smooth="yes"/>
      <point x="284.43" y="486.53"/>
      <point x="292.28999999999996" y="485.67"/>
      <point x="299.86" y="481.81" type="curve"/>
      <point x="317.9" y="540.23" type="line"/>
      <point x="309.03999999999996" y="544.95"/>
      <point x="295.6" y="548.53"/>
      <point x="276.0" y="548.53" type="curve" smooth="yes"/>
      <point x="205.09" y="548.53"/>
      <point x="137.88" y="425.54"/>
      <point x="137.88" y="269.92" type="curve" smooth="yes"/>
      <point x="137.88" y="184.11"/>
      <point x="165.35" y="142.78"/>
    </contour>
    <contour>
      <point x="189.59" y="22.619999999999997" type="curve" smooth="yes"/>
      <point x="113.59" y="22.619999999999997"/>
      <point x="67.21000000000001" y="71.68"/>
      <point x="67.21000000000001" y="185.22" type="curve" smooth="yes"/>
      <point x="67.21000000000001" y="403.62"/>
      <point x="138.38" y="679.09"/>
      <point x="276.78999999999996" y="679.09" type="curve" smooth="yes"/>
      <point x="352.78999999999996" y="679.09"/>
      <point x="399.16999999999996" y="630.03"/>
      <point x="399.16999999999996" y="516.49" type="curve" smooth="yes"/>
      <point x="399.16999999999996" y="298.09000000000003"/>
      <point x="328.0" y="22.619999999999997"/>
    </contour>
  </outline>
</glyph>
<glyph name="ordfeminine" format="2">
  <advance width="227.4"/>
  <unicode hex="00AA"/>
  <outline>
    <contour>
      <point x="30.54" y="275.77" type="line"/>
      <point x="203.25" y="275.77" type="line"/>
      <point x="210.55" y="321.87" type="line"/>
      <point x="37.84" y="321.87" type="line"/>
    </contour>
    <component base="a.superior" xOffset="9.14"/>
  </outline>
</glyph>
<glyph name="logicalnot" format="2">
  <advance width="359.64"/>
  <unicode hex="00AC"/>
  <outline>
    <contour>
      <point x="53.55" y="347.73" type="line"/>
      <point x="252.0" y="347.73" type="line"/>
      <point x="225.88" y="177.86" type="line"/>
      <point x="302.07" y="177.86" type="line"/>
      <point x="340.65" y="422.49" type="line"/>
      <point x="66.01" y="422.49" type="line"/>
    </contour>
  </outline>
</glyph>
<glyph name="registered" format="2">
  <advance width="420.2"/>
  <unicode hex="00AE"/>
  <outline>
    <contour>
      <point x="209.55" y="208.0" type="curve" smooth="yes"/>
      <point x="340.69" y="208.0"/>
      <point x="441.47" y="433.69"/>
      <point x="441.47" y="698.35" type="curve" smooth="yes"/>
      <point x="441.47" y="826.62"/>
      <point x="392.67" y="894.14"/>
      <point x="298.22" y="894.14" type="curve" smooth="yes"/>
      <point x="167.07999999999998" y="894.14"/>
      <point x="66.3" y="668.45"/>
      <point x="66.3" y="403.78999999999996" type="curve" smooth="yes"/>
      <point x="66.3" y="275.52"/>
      <point x="115.1" y="208.0"/>
    </contour>
    <contour>
      <point x="211.26999999999998" y="238.19" type="curve" smooth="yes"/>
      <point x="136.85" y="238.19"/>
      <point x="97.49" y="296.12"/>
      <point x="97.49" y="403.64" type="curve" smooth="yes"/>
      <point x="97.49" y="647.43"/>
      <point x="183.67" y="863.95"/>
      <point x="296.5" y="863.95" type="curve" smooth="yes"/>
      <point x="370.92" y="863.95"/>
      <point x="410.28" y="806.02"/>
      <point x="410.28" y="698.5" type="curve" smooth="yes"/>
      <point x="410.28" y="454.71"/>
      <point x="324.1" y="238.19"/>
    </contour>
    <contour>
      <point x="155.56" y="379.33" type="line"/>
      <point x="208.68" y="379.33" type="line"/>
      <point x="229.82" y="510.32" type="line"/>
      <point x="236.38" y="509.18"/>
      <point x="242.94" y="508.04"/>
      <point x="251.64" y="508.61" type="curve"/>
      <point x="255.91" y="513.76" type="line"/>
      <point x="313.71" y="523.45"/>
      <point x="349.21" y="580.34"/>
      <point x="349.21" y="653.86" type="curve" smooth="yes"/>
      <point x="349.21" y="718.47"/>
      <point x="323.17" y="746.8"/>
      <point x="277.25" y="746.8" type="curve" smooth="yes"/>
      <point x="251.5" y="746.8"/>
      <point x="232.76" y="744.37"/>
      <point x="212.59" y="740.37" type="curve"/>
    </contour>
    <contour>
      <point x="250.82" y="553.71" type="curve" smooth="yes"/>
      <point x="244.82999999999998" y="553.71"/>
      <point x="240.12" y="555.28"/>
      <point x="236.55" y="556.28" type="curve"/>
      <point x="258.55" y="694.26" type="line"/>
      <point x="264.83" y="695.83"/>
      <point x="269.97" y="696.83"/>
      <point x="276.39" y="696.83" type="curve" smooth="yes"/>
      <point x="290.38" y="696.83"/>
      <point x="297.09000000000003" y="682.12"/>
      <point x="297.09000000000003" y="655.0" type="curve" smooth="yes"/>
      <point x="297.09000000000003" y="597.02"/>
      <point x="276.09000000000003" y="553.71"/>
    </contour>
    <contour>
      <point x="296.72" y="375.04" type="curve" smooth="yes"/>
      <point x="301.87" y="375.04"/>
      <point x="311.75" y="376.9"/>
      <point x="316.33" y="379.19" type="curve"/>
      <point x="322.06" y="437.61" type="line"/>
      <point x="320.06" y="436.47"/>
      <point x="318.06" y="436.47"/>
      <point x="316.63" y="436.47" type="curve" smooth="yes"/>
      <point x="300.47" y="436.47"/>
      <point x="294.73" y="461.17"/>
      <point x="288.73" y="536.23" type="curve"/>
      <point x="245.35" y="524.2" type="line"/>
      <point x="257.09000000000003" y="385.46"/>
      <point x="269.84000000000003" y="375.04"/>
    </contour>
  </outline>
</glyph>
<glyph name="degree" format="2">
  <advance width="241.26999999999998"/>
  <unicode hex="00B0"/>
  <outline>
    <contour>
      <point x="149.46" y="456.36" type="curve" smooth="yes"/>
      <point x="228.12" y="456.36"/>
      <point x="267.84" y="547.17"/>
      <point x="267.84" y="623.77" type="curve" smooth="yes"/>
      <point x="267.84" y="678.66"/>
      <point x="245.4" y="720.26"/>
      <point x="191.06" y="720.26" type="curve" smooth="yes"/>
      <point x="111.69" y="720.26"/>
      <point x="72.25" y="628.6"/>
      <point x="72.25" y="552.0" type="curve" smooth="yes"/>
      <point x="72.25" y="496.53"/>
      <point x="96.27" y="456.36"/>
    </contour>
    <contour>
      <point x="159.34" y="521.94" type="curve" smooth="yes"/>
      <point x="137.51" y="521.94"/>
      <point x="128.09" y="539.92"/>
      <point x="128.09" y="566.04" type="curve" smooth="yes"/>
      <point x="128.09" y="607.85"/>
      <point x="146.35" y="652.96"/>
      <point x="180.32" y="652.96" type="curve" smooth="yes"/>
      <point x="202.58" y="652.96"/>
      <point x="212.0" y="633.84"/>
      <point x="212.0" y="608.15" type="curve" smooth="yes"/>
      <point x="212.0" y="566.2"/>
      <point x="193.31" y="521.94"/>
    </contour>
  </outline>
</glyph>
<glyph name="plusminus" format="2">
  <advance width="360.78"/>
  <unicode hex="00B1"/>
  <outline>
    <contour>
      <point x="283.33" y="42.18" type="line"/>
      <point x="295.79" y="121.81" type="line"/>
      <point x="192.28" y="121.81" type="line"/>
      <point x="216.68" y="274.06" type="line"/>
      <point x="319.62" y="274.06" type="line"/>
      <point x="332.08" y="353.69" type="line"/>
      <point x="229.14" y="353.69" type="line"/>
      <point x="253.97" y="496.41" type="line"/>
      <point x="181.22" y="496.41" type="line"/>
      <point x="156.96" y="353.69" type="line"/>
      <point x="52.88" y="353.69" type="line"/>
      <point x="40.42" y="274.06" type="line"/>
      <point x="143.93" y="274.06" type="line"/>
      <point x="119.53" y="121.81" type="line"/>
      <point x="16.59" y="121.81" type="line"/>
      <point x="4.13" y="42.18" type="line"/>
    </contour>
  </outline>
</glyph>
<glyph name="uni00B2" format="2">
  <advance width="217.64"/>
  <unicode hex="00B2"/>
  <outline>
    <contour>
      <point x="47.26" y="368.29" type="line"/>
      <point x="195.09" y="368.29" type="line"/>
      <point x="202.68" y="412.81" type="line"/>
      <point x="110.25999999999999" y="412.81" type="line"/>
      <point x="173.84" y="508.76"/>
      <point x="237.69" y="608.68"/>
      <point x="237.69" y="702.25" type="curve" smooth="yes"/>
      <point x="237.69" y="745.27"/>
      <point x="216.95" y="773.43"/>
      <point x="177.34" y="773.43" type="curve" smooth="yes"/>
      <point x="147.45" y="773.43"/>
      <point x="120.28" y="761.71"/>
      <point x="97.12" y="740.0" type="curve"/>
      <point x="110.13" y="688.58" type="line"/>
      <point x="128.12" y="704.56"/>
      <point x="138.84" y="709.99"/>
      <point x="154.27" y="709.99" type="curve" smooth="yes"/>
      <point x="170.98" y="709.99"/>
      <point x="178.26" y="695.0"/>
      <point x="178.26" y="672.88" type="curve" smooth="yes"/>
      <point x="177.69" y="603.09"/>
      <point x="100.24" y="478.55"/>
      <point x="52.28" y="408.09" type="curve"/>
    </contour>
  </outline>
</glyph>
<glyph name="uni00B3" format="2">
  <advance width="229.22"/>
  <unicode hex="00B3"/>
  <outline>
    <contour>
      <point x="45.12" y="392.43" type="line"/>
      <point x="61.14" y="374.72"/>
      <point x="80.72" y="364.86"/>
      <point x="111.18" y="364.86" type="curve" smooth="yes"/>
      <point x="173.9" y="364.86"/>
      <point x="221.4" y="429.81"/>
      <point x="221.4" y="515.97" type="curve" smooth="yes"/>
      <point x="221.4" y="550.57"/>
      <point x="208.52" y="570.71"/>
      <point x="192.37" y="580.29" type="curve"/>
      <point x="223.54" y="600.88"/>
      <point x="246.98" y="646.27"/>
      <point x="246.98" y="700.13" type="curve" smooth="yes"/>
      <point x="246.98" y="750.42"/>
      <point x="218.24" y="774.86"/>
      <point x="179.06" y="774.86" type="curve" smooth="yes"/>
      <point x="155.02" y="774.86"/>
      <point x="128.85" y="766.99"/>
      <point x="106.12" y="748.7" type="curve"/>
      <point x="119.27" y="707.03" type="line"/>
      <point x="131.12" y="716.02"/>
      <point x="146.84" y="720.45"/>
      <point x="158.85" y="720.45" type="curve" smooth="yes"/>
      <point x="178.86" y="720.45"/>
      <point x="190.85" y="705.74"/>
      <point x="190.85" y="677.63" type="curve" smooth="yes"/>
      <point x="190.85" y="636.83"/>
      <point x="170.71" y="596.75"/>
      <point x="146.72" y="596.75" type="curve" smooth="yes"/>
      <point x="123.72" y="596.75" type="line"/>
      <point x="116.56" y="555.52" type="line"/>
      <point x="143.99" y="555.52" type="line" smooth="yes"/>
      <point x="161.14" y="555.52"/>
      <point x="171.0" y="539.81"/>
      <point x="171.0" y="514.12" type="curve" smooth="yes"/>
      <point x="171.0" y="469.46"/>
      <point x="153.29" y="417.12"/>
      <point x="111.75" y="417.12" type="curve" smooth="yes"/>
      <point x="96.18" y="417.12"/>
      <point x="85.03999999999999" y="422.4"/>
      <point x="73.6" y="435.25" type="curve"/>
    </contour>
  </outline>
</glyph>
<glyph name="uni00B5" format="2">
  <advance width="317.76"/>
  <unicode hex="00B5"/>
  <outline>
    <contour>
      <point x="-40.9" y="-210.0" type="line"/>
      <point x="38.16" y="-210.0" type="line"/>
      <point x="72.44" y="5.390000000000001" type="line"/>
      <point x="78.0" y="-5.4399999999999995"/>
      <point x="88.25999999999999" y="-10.0"/>
      <point x="101.23" y="-10.0" type="curve" smooth="yes"/>
      <point x="123.93" y="-10.0"/>
      <point x="148.21" y="0.0"/>
      <point x="173.77" y="26.02" type="curve"/>
      <point x="180.21" y="5.02"/>
      <point x="200.23" y="-10.0"/>
      <point x="226.97" y="-10.0" type="curve" smooth="yes"/>
      <point x="243.57" y="-10.0"/>
      <point x="267.59" y="-3.42"/>
      <point x="282.17" y="6.45" type="curve"/>
      <point x="288.78" y="75.92" type="line"/>
      <point x="280.65" y="72.64"/>
      <point x="272.09000000000003" y="70.92999999999999"/>
      <point x="267.24" y="70.92999999999999" type="curve" smooth="yes"/>
      <point x="254.54" y="70.92999999999999"/>
      <point x="250.97" y="78.78"/>
      <point x="250.97" y="89.78" type="curve" smooth="yes"/>
      <point x="250.97" y="98.19999999999999"/>
      <point x="253.11" y="113.61"/>
      <point x="321.23" y="538.6" type="curve"/>
      <point x="242.03" y="538.6" type="line"/>
      <point x="170.62" y="90.46000000000001" type="line"/>
      <point x="152.65" y="76.34"/>
      <point x="131.41" y="69.78"/>
      <point x="118.71000000000001" y="69.78" type="curve" smooth="yes"/>
      <point x="98.74000000000001" y="69.78"/>
      <point x="88.47" y="82.47999999999999"/>
      <point x="89.33" y="102.17" type="curve" smooth="yes"/>
      <point x="99.22" y="162.31"/>
      <point x="120.07" y="305.74"/>
      <point x="156.74" y="538.6" type="curve"/>
      <point x="77.11" y="538.6" type="line"/>
    </contour>
  </outline>
</glyph>
<glyph name="paragraph" format="2">
  <advance width="421.95"/>
  <unicode hex="00B6"/>
  <outline>
    <contour>
      <point x="245.54" y="-210.0" type="line"/>
      <point x="309.12" y="-210.0" type="line"/>
      <point x="460.40999999999997" y="740.0" type="line"/>
      <point x="396.83" y="740.0" type="line"/>
    </contour>
    <contour>
      <point x="174.57" y="273.26" type="line"/>
      <point x="138.76999999999998" y="282.96"/>
      <point x="118.78" y="326.92"/>
      <point x="118.78" y="394.01" type="curve" smooth="yes"/>
      <point x="118.78" y="521.52"/>
      <point x="167.98" y="655.8"/>
      <point x="260.88" y="660.08" type="curve"/>
      <point x="122.91" y="-210.0" type="line"/>
      <point x="186.49" y="-210.0" type="line"/>
      <point x="337.78" y="740.0" type="line"/>
      <point x="297.12" y="740.0" type="line" smooth="yes"/>
      <point x="136.77" y="740.0"/>
      <point x="46.6" y="569.23"/>
      <point x="46.6" y="387.99" type="curve" smooth="yes"/>
      <point x="46.6" y="296.85"/>
      <point x="80.05" y="230.7"/>
      <point x="155.38" y="210.69" type="curve"/>
    </contour>
  </outline>
</glyph>
<glyph name="periodcentered" format="2">
  <advance width="133.0"/>
  <unicode hex="00B7"/>
  <outline>
    <contour>
      <point x="23.97" y="287.43" type="curve" smooth="yes"/>
      <point x="22.83" y="257.09"/>
      <point x="32.86" y="244.63"/>
      <point x="61.629999999999995" y="244.63" type="curve" smooth="yes"/>
      <point x="105.02" y="244.63"/>
      <point x="115.91" y="286.05"/>
      <point x="117.05" y="323.12" type="curve" smooth="yes"/>
      <point x="118.19" y="352.03"/>
      <point x="108.72999999999999" y="365.06"/>
      <point x="80.39" y="365.06" type="curve" smooth="yes"/>
      <point x="37.43" y="365.06"/>
      <point x="25.11" y="324.5"/>
    </contour>
  </outline>
</glyph>
<glyph name="uni00B9" format="2">
  <advance width="211.45"/>
  <unicode hex="00B9"/>
  <outline>
    <contour>
      <point x="40.41" y="370.0" type="line"/>
      <point x="203.9" y="370.0" type="line"/>
      <point x="212.35" y="418.82" type="line"/>
      <point x="159.95" y="418.82" type="line"/>
      <point x="218.37" y="769.14" type="line"/>
      <point x="190.17" y="769.14" type="line"/>
      <point x="94.27" y="717.77" type="line"/>
      <point x="98.83" y="664.64" type="line"/>
      <point x="152.94" y="698.86" type="line"/>
      <point x="106.83" y="418.82" type="line"/>
      <point x="48.57" y="418.82" type="line"/>
    </contour>
  </outline>
</glyph>
<glyph name="ordmasculine" format="2">
  <advance width="214.51"/>
  <unicode hex="00BA"/>
  <outline>
    <contour>
      <point x="31.11" y="275.77" type="line"/>
      <point x="182.53" y="275.77" type="line"/>
      <point x="189.26" y="321.87" type="line"/>
      <point x="37.84" y="321.87" type="line"/>
    </contour>
    <component base="o.superior" xOffset="13.7"/>
  </outline>
</glyph>
<glyph name="AE" format="2">
  <advance width="451.65"/>
  <unicode hex="00C6"/>
  <anchor x="191.85092" y="0.0" name="bottom"/>
  <anchor x="307.65" y="700.0" name="top"/>
  <outline>
    <contour>
      <point x="168.33" y="0.0" type="line"/>
      <point x="397.08" y="0.0" type="line"/>
      <point x="409.53999999999996" y="78.77" type="line"/>
      <point x="261.28" y="78.77" type="line"/>
      <point x="296.95" y="308.2" type="line"/>
      <point x="419.34" y="308.2" type="line"/>
      <point x="431.8" y="382.67" type="line"/>
      <point x="308.98" y="382.67" type="line"/>
      <point x="346.36" y="619.08" type="line"/>
      <point x="485.62" y="619.08" type="line"/>
      <point x="499.51" y="700.0" type="line"/>
      <point x="219.89" y="700.0" type="line"/>
      <point x="-39.44" y="0.0" type="line"/>
      <point x="43.05" y="0.0" type="line"/>
      <point x="131.75" y="231.66" type="line"/>
      <point x="204.42" y="231.66" type="line"/>
    </contour>
    <contour>
      <point x="154.8" y="311.29" type="line"/>
      <point x="267.45" y="632.42" type="line"/>
      <point x="216.88" y="311.29" type="line"/>
    </contour>
  </outline>
</glyph>
<glyph name="multiply" format="2">
  <advance width="347.52"/>
  <unicode hex="00D7"/>
  <outline>
    <contour>
      <point x="70.4" y="113.55" type="line"/>
      <point x="169.61" y="249.66" type="line"/>
      <point x="226.02" y="113.55" type="line"/>
      <point x="287.45" y="167.26999999999998" type="line"/>
      <point x="228.62" y="310.79" type="line"/>
      <point x="334.1" y="455.45" type="line"/>
      <point x="288.86" y="509.17" type="line"/>
      <point x="188.51" y="371.92" type="line"/>
      <point x="132.1" y="509.17" type="line"/>
      <point x="70.24" y="455.45" type="line"/>
      <point x="128.93" y="311.36" type="line"/>
      <point x="24.73" y="167.26999999999998" type="line"/>
    </contour>
  </outline>
</glyph>
<glyph name="Oslash" format="2">
  <advance width="349.32"/>
  <unicode hex="00D8"/>
  <anchor x="236.8" y="700.0" name="top"/>
  <outline>
    <contour>
      <point x="378.78" y="710.0" type="line"/>
      <point x="321.08" y="710.0" type="line"/>
      <point x="289.04" y="642.08" type="line"/>
      <point x="285.32" y="642.94" type="line"/>
      <point x="54.64" y="127.64" type="line"/>
      <point x="51.78" y="129.36" type="line"/>
      <point x="-10.9" y="-5.7" type="line"/>
      <point x="46.8" y="-5.7" type="line"/>
      <point x="76.4" y="58.34" type="line"/>
      <point x="80.12" y="57.480000000000004" type="line"/>
      <point x="313.24" y="577.52" type="line"/>
      <point x="316.1" y="575.8" type="line"/>
    </contour>
    <contour>
      <point x="137.54" y="-10.0" type="curve" smooth="yes"/>
      <point x="293.82" y="-10.0"/>
      <point x="353.32" y="335.94"/>
      <point x="353.32" y="539.62" type="curve" smooth="yes"/>
      <point x="353.32" y="661.96"/>
      <point x="316.28" y="710.0"/>
      <point x="230.62" y="710.0" type="curve" smooth="yes"/>
      <point x="78.64" y="710.0"/>
      <point x="14.84" y="364.06"/>
      <point x="14.84" y="161.24" type="curve" smooth="yes"/>
      <point x="14.84" y="38.04"/>
      <point x="51.88" y="-10.0"/>
    </contour>
    <contour>
      <point x="142.84" y="69.92" type="curve" smooth="yes"/>
      <point x="108.6" y="69.92"/>
      <point x="92.32" y="91.9"/>
      <point x="92.32" y="157.8" type="curve" smooth="yes"/>
      <point x="92.32" y="293.56"/>
      <point x="144.22" y="630.08"/>
      <point x="227.04" y="630.08" type="curve" smooth="yes"/>
      <point x="260.42" y="630.08"/>
      <point x="276.7" y="608.96"/>
      <point x="276.7" y="543.92" type="curve" smooth="yes"/>
      <point x="276.7" y="411.6"/>
      <point x="223.94" y="69.92"/>
    </contour>
  </outline>
</glyph>
<glyph name="Thorn" format="2">
  <advance width="314.09000000000003"/>
  <unicode hex="00DE"/>
  <outline>
    <contour>
      <point x="-10.03" y="0.0" type="line"/>
      <point x="70.46000000000001" y="0.0" type="line"/>
      <point x="92.72" y="139.7" type="line"/>
      <point x="109.03" y="137.41"/>
      <point x="122.86" y="137.41"/>
      <point x="140.57999999999998" y="137.41" type="curve" smooth="yes"/>
      <point x="246.05" y="137.41"/>
      <point x="322.38" y="274.33"/>
      <point x="322.38" y="461.08" type="curve" smooth="yes"/>
      <point x="322.38" y="563.56"/>
      <point x="286.64" y="614.04"/>
      <point x="198.14" y="614.04" type="curve" smooth="yes"/>
      <point x="188.44" y="614.04"/>
      <point x="177.74" y="613.47"/>
      <point x="167.47" y="612.33" type="curve"/>
      <point x="181.32" y="700.0" type="line"/>
      <point x="100.83" y="700.0" type="line"/>
    </contour>
    <contour>
      <point x="136.43" y="214.89" type="curve" smooth="yes"/>
      <point x="121.03" y="214.89"/>
      <point x="113.61" y="215.46"/>
      <point x="106.47" y="216.89" type="curve"/>
      <point x="155.15" y="532.99" type="line"/>
      <point x="166.85" y="535.56"/>
      <point x="177.41" y="536.56"/>
      <point x="186.97" y="536.56" type="curve" smooth="yes"/>
      <point x="224.63" y="536.56"/>
      <point x="243.61" y="517.58"/>
      <point x="243.61" y="454.79" type="curve" smooth="yes"/>
      <point x="243.61" y="319.14"/>
      <point x="199.79" y="214.89"/>
    </contour>
  </outline>
</glyph>
<glyph name="germandbls" format="2">
  <advance width="402.25"/>
  <unicode hex="00DF"/>
  <outline>
    <contour>
      <point x="5.7" y="-36.760000000000005" type="line" smooth="yes"/>
      <point x="-4.72" y="-101.56"/>
      <point x="-22.57" y="-139.21"/>
      <point x="-63.8" y="-139.21" type="curve" smooth="yes"/>
      <point x="-75.78999999999999" y="-139.21"/>
      <point x="-85.5" y="-138.07"/>
      <point x="-101.07" y="-133.07" type="curve"/>
      <point x="-123.56" y="-208.27" type="line"/>
      <point x="-102.25" y="-216.28"/>
      <point x="-81.23" y="-220.0"/>
      <point x="-58.36" y="-220.0" type="curve" smooth="yes"/>
      <point x="26.57" y="-220.0"/>
      <point x="66.32" y="-160.12"/>
      <point x="85.19" y="-40.47" type="curve" smooth="yes"/>
      <point x="174.59" y="528.93" type="line" smooth="yes"/>
      <point x="188.29" y="615.27"/>
      <point x="220.29" y="668.65"/>
      <point x="276.57" y="668.65" type="curve" smooth="yes"/>
      <point x="309.3" y="668.65"/>
      <point x="327.01" y="655.94"/>
      <point x="327.01" y="623.41" type="curve" smooth="yes"/>
      <point x="327.01" y="590.02"/>
      <point x="315.59" y="568.05"/>
      <point x="271.01" y="530.23" type="curve" smooth="yes"/>
      <point x="220.0" y="486.7"/>
      <point x="191.82999999999998" y="443.83"/>
      <point x="191.82999999999998" y="373.08" type="curve" smooth="yes"/>
      <point x="191.82999999999998" y="313.74"/>
      <point x="221.86" y="274.47"/>
      <point x="260.6" y="233.66" type="curve" smooth="yes"/>
      <point x="291.62" y="200.84"/>
      <point x="299.33" y="181.73"/>
      <point x="299.33" y="154.34" type="curve" smooth="yes"/>
      <point x="299.33" y="107.28"/>
      <point x="267.22" y="70.63"/>
      <point x="221.39" y="70.63" type="curve" smooth="yes"/>
      <point x="194.51999999999998" y="70.63"/>
      <point x="168.93" y="76.63"/>
      <point x="146.2" y="86.19999999999999" type="curve"/>
      <point x="124.72999999999999" y="12.870000000000001" type="line"/>
      <point x="147.89" y="-0.41999999999999993"/>
      <point x="181.2" y="-10.0"/>
      <point x="222.54" y="-10.0" type="curve" smooth="yes"/>
      <point x="323.22" y="-10.0"/>
      <point x="382.83" y="58.87"/>
      <point x="382.83" y="163.93" type="curve" smooth="yes"/>
      <point x="382.83" y="221.56"/>
      <point x="360.22" y="255.14"/>
      <point x="321.05" y="296.66" type="curve" smooth="yes"/>
      <point x="282.88" y="338.18"/>
      <point x="270.46" y="356.29"/>
      <point x="270.46" y="385.54" type="curve" smooth="yes"/>
      <point x="270.46" y="418.49"/>
      <point x="284.15999999999997" y="442.74"/>
      <point x="332.89" y="482.26" type="curve" smooth="yes"/>
      <point x="385.05" y="524.92"/>
      <point x="413.38" y="562.65"/>
      <point x="413.38" y="633.0" type="curve" smooth="yes"/>
      <point x="413.38" y="710.22"/>
      <point x="364.3" y="750.0"/>
      <point x="283.15999999999997" y="750.0" type="curve" smooth="yes"/>
      <point x="173.17" y="750.0"/>
      <point x="117.11" y="675.69"/>
      <point x="96.68" y="540.97" type="curve" smooth="yes"/>
      <point x="90.98" y="503.35" type="line"/>
      <point x="43.43" y="496.92" type="line"/>
      <point x="31.97" y="428.02" type="line"/>
      <point x="78.38" y="428.02" type="line"/>
    </contour>
  </outline>
</glyph>
<glyph name="ae" format="2">
  <advance width="478.53999999999996"/>
  <unicode hex="00E6"/>
  <anchor x="208.4" y="0.0" name="bottom"/>
  <anchor x="286.42" y="538.6" name="top"/>
  <outline>
    <contour>
      <point x="99.88" y="-10.0" type="curve" smooth="yes"/>
      <point x="124.6" y="-10.0"/>
      <point x="143.32" y="-2.86"/>
      <point x="162.48" y="21.04" type="curve"/>
      <point x="157.76" y="-5.42" type="line"/>
      <point x="232.51999999999998" y="-5.42" type="line"/>
      <point x="244.2" y="69.24000000000001" type="line"/>
      <point x="259.52" y="21.22"/>
      <point x="297.1" y="-9.14"/>
      <point x="342.34" y="-9.14" type="curve" smooth="yes"/>
      <point x="374.78" y="-9.14"/>
      <point x="407.94" y="-1.28"/>
      <point x="433.82" y="17.6" type="curve"/>
      <point x="421.65999999999997" y="92.08" type="line"/>
      <point x="392.5" y="77.5"/>
      <point x="367.34" y="71.5"/>
      <point x="343.62" y="71.5" type="curve" smooth="yes"/>
      <point x="302.52" y="71.5"/>
      <point x="272.96" y="117.74000000000001"/>
      <point x="272.96" y="192.52" type="curve" smooth="yes"/>
      <point x="272.96" y="340.9"/>
      <point x="316.46" y="473.12"/>
      <point x="380.68" y="473.12" type="curve" smooth="yes"/>
      <point x="402.78" y="473.12"/>
      <point x="412.34" y="460.3"/>
      <point x="412.34" y="430.18" type="curve" smooth="yes"/>
      <point x="412.34" y="380.08"/>
      <point x="379.24" y="330.42"/>
      <point x="328.86" y="301.88" type="curve" smooth="yes"/>
      <point x="306.88" y="289.18"/>
      <point x="281.76" y="280.76"/>
      <point x="252.92000000000002" y="278.2" type="curve"/>
      <point x="239.88" y="214.62" type="line"/>
      <point x="275.18" y="217.18"/>
      <point x="311.9" y="225.46"/>
      <point x="343.48" y="240.74" type="curve" smooth="yes"/>
      <point x="427.94" y="280.02"/>
      <point x="487.1" y="356.9"/>
      <point x="487.1" y="446.8" type="curve" smooth="yes"/>
      <point x="487.1" y="508.56"/>
      <point x="460.65999999999997" y="548.6"/>
      <point x="408.48" y="548.6" type="curve" smooth="yes"/>
      <point x="369.36" y="548.6"/>
      <point x="335.24" y="524.06"/>
      <point x="305.82" y="478.42" type="curve"/>
      <point x="317.65999999999997" y="548.6" type="line"/>
      <point x="245.62" y="548.6" type="line"/>
      <point x="242.76" y="532.44" type="line"/>
      <point x="230.9" y="544.74"/>
      <point x="214.32" y="548.6"/>
      <point x="198.16" y="548.6" type="curve" smooth="yes"/>
      <point x="89.28" y="548.6"/>
      <point x="11.84" y="381.3"/>
      <point x="11.84" y="142.74" type="curve" smooth="yes"/>
      <point x="11.84" y="45.019999999999996"/>
      <point x="43.86" y="-10.0"/>
    </contour>
    <contour>
      <point x="132.42000000000002" y="60.46" type="curve" smooth="yes"/>
      <point x="109.46000000000001" y="60.46"/>
      <point x="95.34" y="90.4"/>
      <point x="95.34" y="142.16" type="curve" smooth="yes"/>
      <point x="95.34" y="302.86"/>
      <point x="141.57999999999998" y="472.26"/>
      <point x="206.48" y="472.26" type="curve" smooth="yes"/>
      <point x="215.9" y="472.26"/>
      <point x="225.6" y="470.12"/>
      <point x="232.02" y="463.42" type="curve"/>
      <point x="171.5" y="74.58" type="line"/>
      <point x="160.8" y="66.02"/>
      <point x="146.54" y="60.46"/>
    </contour>
  </outline>
</glyph>
<glyph name="eth" format="2">
  <advance width="306.9"/>
  <unicode hex="00F0"/>
  <outline>
    <contour>
      <point x="245.72" y="448.72" type="curve"/>
      <point x="261.04" y="514.3" type="line"/>
      <point x="243.74" y="528.58"/>
      <point x="217.16" y="535.72"/>
      <point x="191.16" y="535.72" type="curve" smooth="yes"/>
      <point x="60.14" y="535.72"/>
      <point x="7.84" y="307.8"/>
      <point x="7.84" y="137.24" type="curve" smooth="yes"/>
      <point x="7.84" y="35.04"/>
      <point x="45.46" y="-10.0"/>
      <point x="118.24" y="-10.0" type="curve" smooth="yes"/>
      <point x="219.92000000000002" y="-10.0"/>
      <point x="258.8" y="66.44"/>
      <point x="297.65999999999997" y="319.18" type="curve" smooth="yes"/>
      <point x="310.22" y="401.1"/>
      <point x="318.5" y="467.48"/>
      <point x="318.5" y="519.88" type="curve" smooth="yes"/>
      <point x="318.5" y="654.68"/>
      <point x="272.44" y="728.92"/>
      <point x="161.32" y="728.92" type="curve" smooth="yes"/>
      <point x="134.42" y="728.92"/>
      <point x="106.4" y="721.76"/>
      <point x="82.24" y="715.04" type="curve"/>
      <point x="87.82" y="649.88" type="line"/>
      <point x="104.82" y="653.88"/>
      <point x="124.26" y="657.74"/>
      <point x="144.98" y="657.74" type="curve" smooth="yes"/>
      <point x="210.86" y="657.74"/>
      <point x="239.44" y="626.76"/>
      <point x="239.44" y="534.36" type="curve" smooth="yes"/>
      <point x="239.44" y="487.68"/>
      <point x="234.74" y="422.6"/>
      <point x="221.18" y="337.96" type="curve" smooth="yes"/>
      <point x="185.18" y="107.52"/>
      <point x="162.2" y="55.16"/>
      <point x="125.25999999999999" y="55.16" type="curve" smooth="yes"/>
      <point x="99.74000000000001" y="55.16"/>
      <point x="84.32" y="73.84"/>
      <point x="84.32" y="119.76" type="curve" smooth="yes"/>
      <point x="84.32" y="232.62"/>
      <point x="119.58" y="467.98"/>
      <point x="201.48" y="467.98" type="curve" smooth="yes"/>
      <point x="215.46" y="467.98"/>
      <point x="232.44" y="463.98"/>
    </contour>
    <contour>
      <point x="139.36" y="560.84" type="line"/>
      <point x="252.94" y="640.68" type="line"/>
      <point x="252.36" y="644.98" type="line"/>
      <point x="375.2" y="730.62" type="line"/>
      <point x="308.78" y="730.62" type="line"/>
      <point x="226.44" y="673.74" type="line"/>
      <point x="228.74" y="670.3" type="line"/>
      <point x="71.94" y="560.84" type="line"/>
    </contour>
  </outline>
</glyph>
<glyph name="divide" format="2">
  <advance width="360.64"/>
  <unicode hex="00F7"/>
  <outline>
    <contour>
      <point x="112.1" y="117.25999999999999" type="curve" smooth="yes"/>
      <point x="111.1" y="94.64"/>
      <point x="121.56" y="84.03999999999999"/>
      <point x="148.9" y="84.03999999999999" type="curve" smooth="yes"/>
      <point x="183.82" y="84.03999999999999"/>
      <point x="198.44" y="101.38"/>
      <point x="200.57999999999998" y="146.74" type="curve" smooth="yes"/>
      <point x="201.57999999999998" y="170.36"/>
      <point x="189.98" y="179.95999999999998"/>
      <point x="164.5" y="179.95999999999998" type="curve" smooth="yes"/>
      <point x="128.14" y="179.95999999999998"/>
      <point x="114.24" y="155.74"/>
    </contour>
    <contour>
      <point x="168.36" y="466.52" type="curve" smooth="yes"/>
      <point x="167.36" y="443.9"/>
      <point x="177.82" y="434.16"/>
      <point x="204.3" y="434.16" type="curve" smooth="yes"/>
      <point x="239.22" y="434.16"/>
      <point x="254.7" y="451.5"/>
      <point x="256.84" y="496.0" type="curve" smooth="yes"/>
      <point x="257.84" y="519.62"/>
      <point x="246.24" y="529.22"/>
      <point x="220.76" y="529.22" type="curve" smooth="yes"/>
      <point x="182.68" y="529.22"/>
      <point x="170.5" y="503.28"/>
    </contour>
    <contour>
      <point x="40.0" y="266.96" type="line"/>
      <point x="319.2" y="266.96" type="line"/>
      <point x="331.66" y="347.15999999999997" type="line"/>
      <point x="52.46" y="347.15999999999997" type="line"/>
    </contour>
  </outline>
</glyph>
<glyph name="oslash" format="2">
  <advance width="310.06"/>
  <unicode hex="00F8"/>
  <anchor x="194.8" y="538.6" name="top"/>
  <outline>
    <contour>
      <point x="283.28" y="548.46" type="line"/>
      <point x="243.22" y="477.96" type="line"/>
      <point x="239.5" y="478.82" type="line"/>
      <point x="50.519999999999996" y="123.78" type="line"/>
      <point x="48.519999999999996" y="125.5" type="line"/>
      <point x="-28.2" y="-10.0" type="line"/>
      <point x="26.919999999999998" y="-10.0" type="line"/>
      <point x="68.28" y="62.96" type="line"/>
      <point x="72.0" y="62.099999999999994" type="line"/>
      <point x="261.12" y="415.84000000000003" type="line"/>
      <point x="263.12" y="414.12" type="line"/>
      <point x="338.4" y="548.46" type="line"/>
    </contour>
    <contour>
      <point x="121.97999999999999" y="-10.0" type="curve" smooth="yes"/>
      <point x="254.62" y="-10.0"/>
      <point x="298.36" y="257.66"/>
      <point x="298.36" y="414.94" type="curve" smooth="yes"/>
      <point x="298.36" y="514.4"/>
      <point x="266.48" y="548.46"/>
      <point x="187.66" y="548.46" type="curve" smooth="yes"/>
      <point x="55.019999999999996" y="548.46"/>
      <point x="11.28" y="280.8"/>
      <point x="11.28" y="124.38" type="curve" smooth="yes"/>
      <point x="11.28" y="24.919999999999998"/>
      <point x="44.019999999999996" y="-10.0"/>
    </contour>
    <contour>
      <point x="123.7" y="64.62" type="curve" smooth="yes"/>
      <point x="95.0" y="64.62"/>
      <point x="83.46000000000001" y="80.19999999999999"/>
      <point x="83.46000000000001" y="126.68" type="curve" smooth="yes"/>
      <point x="83.46000000000001" y="194.02"/>
      <point x="117.02" y="473.84000000000003"/>
      <point x="186.8" y="473.84000000000003" type="curve" smooth="yes"/>
      <point x="215.5" y="473.84000000000003"/>
      <point x="227.04" y="458.26"/>
      <point x="227.04" y="412.64" type="curve" smooth="yes"/>
      <point x="227.04" y="344.44"/>
      <point x="193.48" y="64.62"/>
    </contour>
  </outline>
</glyph>
<glyph name="thorn" format="2">
  <advance width="315.62"/>
  <unicode hex="00FE"/>
  <outline>
    <contour>
      <point x="-41.04" y="-210.0" type="line"/>
      <point x="38.449999999999996" y="-210.0" type="line"/>
      <point x="71.44999999999999" y="-3.0" type="line"/>
      <point x="84.16" y="-6.71"/>
      <point x="98.02" y="-9.14"/>
      <point x="117.32" y="-9.14" type="curve" smooth="yes"/>
      <point x="237.36" y="-9.14"/>
      <point x="303.21" y="188.13"/>
      <point x="303.21" y="386.83" type="curve" smooth="yes"/>
      <point x="303.21" y="502.02"/>
      <point x="281.5" y="548.6"/>
      <point x="222.48" y="548.6" type="curve" smooth="yes"/>
      <point x="191.59" y="548.6"/>
      <point x="171.44" y="534.72"/>
      <point x="154.88" y="522.57" type="curve"/>
      <point x="189.45" y="740.0" type="line"/>
      <point x="108.96000000000001" y="740.0" type="line"/>
    </contour>
    <contour>
      <point x="108.00999999999999" y="65.62" type="curve" smooth="yes"/>
      <point x="99.74000000000001" y="65.62"/>
      <point x="91.03999999999999" y="66.75999999999999"/>
      <point x="83.47999999999999" y="70.61" type="curve"/>
      <point x="144.14" y="454.27" type="line"/>
      <point x="153.55" y="460.4"/>
      <point x="170.8" y="466.53"/>
      <point x="182.21" y="466.53" type="curve" smooth="yes"/>
      <point x="207.59" y="466.53"/>
      <point x="220.57" y="441.3"/>
      <point x="220.57" y="379.1" type="curve" smooth="yes"/>
      <point x="220.57" y="228.23"/>
      <point x="174.05" y="65.62"/>
    </contour>
  </outline>
</glyph>
<glyph name="Dcroat" format="2">
  <advance width="347.76"/>
  <unicode hex="0110"/>
  <outline>
    <contour>
      <point x="14.26" y="316.45" type="line"/>
      <point x="193.64" y="316.45" type="line"/>
      <point x="206.96" y="396.23" type="line"/>
      <point x="27.58" y="396.23" type="line"/>
    </contour>
    <component base="D" xOffset="9.15"/>
  </outline>
</glyph>
<glyph name="dcroat" format="2">
  <advance width="321.63"/>
  <unicode hex="0111"/>
  <outline>
    <contour>
      <point x="161.62" y="617.99" type="line"/>
      <point x="377.34" y="617.99" type="line"/>
      <point x="385.5" y="667.82" type="line"/>
      <point x="170.21" y="667.82" type="line"/>
    </contour>
    <component base="d"/>
  </outline>
</glyph>
<glyph name="Hbar" format="2">
  <advance width="350.02"/>
  <unicode hex="0126"/>
  <outline>
    <contour>
      <point x="36.41" y="502.0" type="line"/>
      <point x="385.61" y="502.0" type="line"/>
      <point x="397.07" y="573.76" type="line"/>
      <point x="47.87" y="573.76" type="line"/>
    </contour>
    <component base="H" xOffset="2.7199999999999998"/>
  </outline>
</glyph>
<glyph name="hbar" format="2">
  <advance width="321.06"/>
  <unicode hex="0127"/>
  <outline>
    <contour>
      <point x="56.14" y="617.99" type="line"/>
      <point x="242.15" y="617.99" type="line"/>
      <point x="250.31" y="667.82" type="line"/>
      <point x="64.3" y="667.82" type="line"/>
    </contour>
    <component base="h" xOffset="3.44"/>
  </outline>
</glyph>
<glyph name="Idotaccent" format="2">
  <advance width="150.14"/>
  <unicode hex="0130"/>
  <outline>
    <contour>
      <point x="172.38" y="883.57" type="curve" smooth="yes"/>
      <point x="130.0" y="883.57"/>
      <point x="116.67" y="851.04"/>
      <point x="114.96000000000001" y="807.69" type="curve" smooth="yes"/>
      <point x="114.39" y="780.34"/>
      <point x="128.42" y="769.16"/>
      <point x="152.91" y="769.16" type="curve" smooth="yes"/>
      <point x="195.72" y="769.16"/>
      <point x="208.62" y="802.55"/>
      <point x="210.32999999999998" y="845.47" type="curve" smooth="yes"/>
      <point x="210.9" y="872.82"/>
      <point x="196.44" y="883.57"/>
    </contour>
    <component base="I"/>
  </outline>
</glyph>
<glyph name="dotlessi" format="2">
  <advance width="150.84"/>
  <unicode hex="0131"/>
  <anchor x="31.35" y="0.0" name="bottom"/>
  <anchor x="71.88" y="0.0" name="ogonek"/>
  <anchor x="116.64" y="538.6" name="top"/>
  <outline>
    <contour>
      <point x="71.88" y="0.0" type="line"/>
      <point x="157.17000000000002" y="538.6" type="line"/>
      <point x="76.68" y="538.6" type="line"/>
      <point x="-8.04" y="0.0" type="line"/>
    </contour>
  </outline>
</glyph>
<glyph name="kgreenlandic" format="2">
  <advance width="303.62"/>
  <unicode hex="0138"/>
  <anchor x="126.56" y="0.0" name="bottom"/>
  <anchor x="194.24" y="538.6" name="top"/>
  <outline>
    <contour>
      <point x="-8.18" y="0.0" type="line"/>
      <point x="72.6" y="0.0" type="line"/>
      <point x="157.46" y="538.6" type="line"/>
      <point x="76.68" y="538.6" type="line"/>
    </contour>
    <contour>
      <point x="238.96" y="-10.0" type="curve" smooth="yes"/>
      <point x="249.26" y="-10.0"/>
      <point x="259.56" y="-9.0"/>
      <point x="270.86" y="-4.28" type="curve"/>
      <point x="280.76" y="80.52" type="line"/>
      <point x="273.9" y="79.38"/>
      <point x="268.9" y="79.24"/>
      <point x="264.04" y="80.1" type="curve" smooth="yes"/>
      <point x="239.76" y="84.4"/>
      <point x="219.62" y="108.94"/>
      <point x="178.18" y="211.74" type="curve" smooth="yes"/>
      <point x="118.16" y="362.24" type="line"/>
      <point x="97.56" y="236.32" type="line"/>
      <point x="146.1" y="109.94" type="line" smooth="yes"/>
      <point x="179.24" y="24.16"/>
      <point x="200.52" y="-10.0"/>
    </contour>
    <contour>
      <point x="161.38" y="237.26" type="line"/>
      <point x="234.82" y="309.16"/>
      <point x="300.82" y="423.9"/>
      <point x="334.08" y="538.02" type="curve"/>
      <point x="259.46" y="548.46" type="line"/>
      <point x="227.5" y="432.92"/>
      <point x="177.22" y="359.54"/>
      <point x="121.12" y="300.12" type="curve"/>
    </contour>
  </outline>
</glyph>
<glyph name="Ldot" format="2">
  <advance width="251.31"/>
  <unicode hex="013F"/>
  <outline>
    <contour>
      <point x="180.52913999999998" y="362.14366" type="curve" smooth="yes"/>
      <point x="179.38914" y="339.25986"/>
      <point x="186.26466" y="330.38477"/>
      <point x="207.72164999999998" y="330.38477" type="curve" smooth="yes"/>
      <point x="238.92372999999998" y="330.38477"/>
      <point x="246.37243999999998" y="358.18237"/>
      <point x="247.51244" y="385.93212" type="curve" smooth="yes"/>
      <point x="248.65244" y="407.67273"/>
      <point x="242.34692" y="417.11782"/>
      <point x="221.17631" y="417.11782" type="curve" smooth="yes"/>
      <point x="190.26104" y="417.11782"/>
      <point x="181.66914" y="389.89341"/>
    </contour>
    <component base="L"/>
  </outline>
</glyph>
<glyph name="ldot" format="2">
  <advance width="229.22"/>
  <unicode hex="0140"/>
  <outline>
    <contour>
      <point x="173.17302999999998" y="353.72727" type="curve" smooth="yes"/>
      <point x="172.03303" y="331.04342"/>
      <point x="178.76837" y="322.26422"/>
      <point x="199.90114" y="322.26422" type="curve" smooth="yes"/>
      <point x="230.56185" y="322.26422"/>
      <point x="237.85791" y="349.69718"/>
      <point x="238.99791" y="377.19710000000003" type="curve" smooth="yes"/>
      <point x="240.13791" y="398.7455"/>
      <point x="233.97257" y="408.0947"/>
      <point x="213.12016" y="408.0947" type="curve" smooth="yes"/>
      <point x="182.73937999999998" y="408.0947"/>
      <point x="174.31303" y="381.22719"/>
    </contour>
    <component base="l"/>
  </outline>
</glyph>
<glyph name="Lslash" format="2">
  <advance width="265.90999999999997"/>
  <unicode hex="0141"/>
  <outline>
    <contour>
      <point x="4.0" y="0.0" type="line"/>
      <point x="214.19" y="0.0" type="line"/>
      <point x="226.65" y="78.77" type="line"/>
      <point x="96.52" y="78.77" type="line"/>
      <point x="131.5" y="298.65" type="line"/>
      <point x="234.74" y="376.84" type="line"/>
      <point x="249.49" y="464.76" type="line"/>
      <point x="145.39" y="386.14" type="line"/>
      <point x="195.49" y="700.0" type="line"/>
      <point x="115.43" y="700.0" type="line"/>
      <point x="58.03" y="339.48" type="line"/>
      <point x="13.6" y="307.22" type="line"/>
      <point x="-0.43" y="218.73" type="line"/>
      <point x="43.57" y="250.99" type="line"/>
    </contour>
  </outline>
</glyph>
<glyph name="lslash" format="2">
  <advance width="173.46"/>
  <unicode hex="0142"/>
  <outline>
    <contour>
      <point x="-3.43" y="206.9" type="line"/>
      <point x="190.46" y="368.5" type="line"/>
      <point x="203.06" y="448.96" type="line"/>
      <point x="8.74" y="287.36" type="line"/>
    </contour>
    <component base="l" xOffset="8.6"/>
  </outline>
</glyph>
<glyph name="Eng" format="2">
  <advance width="348.33"/>
  <unicode hex="014A"/>
  <outline>
    <contour>
      <point x="-10.03" y="0.0" type="line"/>
      <point x="63.15" y="0.0" type="line"/>
      <point x="141.5" y="495.62" type="line"/>
      <point x="189.58" y="-2.16" type="line"/>
      <point x="182.73" y="-58.64"/>
      <point x="159.06" y="-77.18"/>
      <point x="124.7" y="-77.18" type="curve" smooth="yes"/>
      <point x="114.57" y="-77.18"/>
      <point x="104.3" y="-75.47"/>
      <point x="94.89" y="-72.62" type="curve"/>
      <point x="80.0" y="-162.28" type="line"/>
      <point x="94.13" y="-165.99"/>
      <point x="108.27" y="-167.13"/>
      <point x="123.13" y="-167.13" type="curve" smooth="yes"/>
      <point x="210.99" y="-164.55"/>
      <point x="254.2" y="-107.68"/>
      <point x="270.07" y="-6.88" type="curve" smooth="yes"/>
      <point x="381.93" y="700.0" type="line"/>
      <point x="308.75" y="700.0" type="line"/>
      <point x="228.53" y="195.03" type="line"/>
      <point x="184.17000000000002" y="700.0" type="line"/>
      <point x="100.4" y="700.0" type="line"/>
    </contour>
  </outline>
</glyph>
<glyph name="eng" format="2">
  <advance width="314.76"/>
  <unicode hex="014B"/>
  <outline>
    <contour>
      <point x="228.67000000000002" y="-32.3" type="curve" smooth="yes"/>
      <point x="277.55" y="282.36"/>
      <point x="309.37" y="463.23"/>
      <point x="309.37" y="477.55" type="curve" smooth="yes"/>
      <point x="309.37" y="521.16"/>
      <point x="284.93" y="548.6"/>
      <point x="239.48" y="548.6" type="curve" smooth="yes"/>
      <point x="210.61" y="548.6"/>
      <point x="176.46" y="537.89"/>
      <point x="146.0" y="514.57" type="curve"/>
      <point x="149.86" y="538.6" type="line"/>
      <point x="76.68" y="538.6" type="line"/>
      <point x="-8.61" y="0.0" type="line"/>
      <point x="71.31" y="0.0" type="line"/>
      <point x="143.43" y="449.56" type="line"/>
      <point x="157.41" y="460.26"/>
      <point x="178.51" y="467.96"/>
      <point x="191.92" y="467.96" type="curve" smooth="yes"/>
      <point x="214.31" y="467.96"/>
      <point x="224.15" y="457.69"/>
      <point x="224.15" y="438.58" type="curve" smooth="yes"/>
      <point x="224.15" y="434.58"/>
      <point x="223.29" y="427.14"/>
      <point x="150.47" y="-32.03" type="curve" smooth="yes"/>
      <point x="141.77" y="-86.94"/>
      <point x="126.65" y="-126.46000000000001"/>
      <point x="90.15" y="-126.46000000000001" type="curve" smooth="yes"/>
      <point x="84.02" y="-126.46000000000001"/>
      <point x="78.31" y="-125.89"/>
      <point x="71.32" y="-123.89" type="curve"/>
      <point x="51.269999999999996" y="-215.28" type="line"/>
      <point x="63.42" y="-218.14"/>
      <point x="77.0" y="-220.0"/>
      <point x="95.16" y="-220.0" type="curve" smooth="yes"/>
      <point x="157.73" y="-220.0"/>
      <point x="209.37" y="-172.3"/>
    </contour>
  </outline>
</glyph>
<glyph name="OE" format="2">
  <advance width="463.89"/>
  <unicode hex="0152"/>
  <outline>
    <contour>
      <point x="409.32" y="0.0" type="line"/>
      <point x="421.78" y="78.77" type="line"/>
      <point x="273.09000000000003" y="78.77" type="line"/>
      <point x="311.04" y="319.6" type="line"/>
      <point x="433.29" y="319.6" type="line"/>
      <point x="445.75" y="394.07" type="line"/>
      <point x="323.5" y="394.07" type="line"/>
      <point x="358.6" y="619.08" type="line"/>
      <point x="497.86" y="619.08" type="line"/>
      <point x="511.75" y="700.0" type="line"/>
      <point x="367.78" y="700.0" type="line"/>
      <point x="340.73" y="704.29"/>
      <point x="300.5" y="710.0"/>
      <point x="272.49" y="710.0" type="curve" smooth="yes"/>
      <point x="84.74000000000001" y="710.0"/>
      <point x="19.83" y="429.58"/>
      <point x="19.83" y="172.17" type="curve" smooth="yes"/>
      <point x="19.83" y="44.04"/>
      <point x="61.56" y="-10.0"/>
      <point x="165.63" y="-10.0" type="curve" smooth="yes"/>
      <point x="182.8" y="-10.0"/>
      <point x="213.55" y="-7.29"/>
      <point x="252.47" y="0.0" type="curve"/>
    </contour>
    <contour>
      <point x="191.6" y="73.34" type="line"/>
      <point x="180.9" y="69.63"/>
      <point x="171.48" y="68.63"/>
      <point x="163.77" y="68.63" type="curve" smooth="yes"/>
      <point x="113.44" y="68.63"/>
      <point x="99.89" y="107.3"/>
      <point x="99.89" y="180.46" type="curve" smooth="yes"/>
      <point x="99.89" y="402.86"/>
      <point x="166.69" y="628.9300000000001"/>
      <point x="253.71" y="628.9300000000001" type="curve" smooth="yes"/>
      <point x="265.98" y="628.9300000000001"/>
      <point x="273.83" y="625.65"/>
      <point x="279.11" y="624.51" type="curve"/>
    </contour>
  </outline>
</glyph>
<glyph name="oe" format="2">
  <advance width="488.38"/>
  <unicode hex="0153"/>
  <outline>
    <contour>
      <point x="121.12" y="-10.0" type="curve" smooth="yes"/>
      <point x="169.68" y="-10.0"/>
      <point x="206.54" y="33.620000000000005"/>
      <point x="226.82" y="85.06" type="curve"/>
      <point x="246.3" y="23.64"/>
      <point x="283.15999999999997" y="-10.0"/>
      <point x="339.14" y="-10.0" type="curve" smooth="yes"/>
      <point x="375.02" y="-10.0"/>
      <point x="414.2" y="-1.28"/>
      <point x="443.52" y="17.6" type="curve"/>
      <point x="427.06" y="94.66" type="line"/>
      <point x="397.9" y="80.08"/>
      <point x="372.74" y="73.22"/>
      <point x="349.88" y="73.22" type="curve" smooth="yes"/>
      <point x="308.78" y="73.22"/>
      <point x="283.52" y="109.0"/>
      <point x="283.52" y="192.38" type="curve" smooth="yes"/>
      <point x="283.52" y="358.82"/>
      <point x="331.32" y="473.12"/>
      <point x="390.38" y="473.12" type="curve" smooth="yes"/>
      <point x="412.48" y="473.12"/>
      <point x="422.9" y="460.3"/>
      <point x="422.9" y="430.04" type="curve" smooth="yes"/>
      <point x="422.9" y="379.08"/>
      <point x="389.8" y="334.58"/>
      <point x="338.56" y="305.18" type="curve" smooth="yes"/>
      <point x="318.58" y="293.62"/>
      <point x="294.88" y="286.06"/>
      <point x="269.18" y="283.5" type="curve"/>
      <point x="254.14" y="214.76" type="line"/>
      <point x="288.3" y="217.32"/>
      <point x="322.74" y="226.46"/>
      <point x="353.18" y="240.6" type="curve" smooth="yes"/>
      <point x="437.64" y="279.16"/>
      <point x="496.8" y="356.9"/>
      <point x="496.8" y="446.8" type="curve" smooth="yes"/>
      <point x="496.8" y="508.56"/>
      <point x="465.2" y="548.6"/>
      <point x="402.7" y="548.6" type="curve" smooth="yes"/>
      <point x="353.0" y="548.6"/>
      <point x="313.74" y="517.8"/>
      <point x="284.6" y="473.64" type="curve"/>
      <point x="273.7" y="524.5"/>
      <point x="246.22" y="548.46"/>
      <point x="186.8" y="548.46" type="curve" smooth="yes"/>
      <point x="54.019999999999996" y="548.46"/>
      <point x="10.42" y="280.8"/>
      <point x="10.42" y="124.38" type="curve" smooth="yes"/>
      <point x="10.42" y="24.919999999999998"/>
      <point x="43.16" y="-10.0"/>
    </contour>
    <contour>
      <point x="122.84" y="68.06" type="curve" smooth="yes"/>
      <point x="101.88" y="68.06"/>
      <point x="88.62" y="76.75999999999999"/>
      <point x="88.62" y="124.1" type="curve" smooth="yes"/>
      <point x="88.62" y="191.44"/>
      <point x="122.18" y="470.4"/>
      <point x="185.94" y="470.4" type="curve" smooth="yes"/>
      <point x="206.9" y="470.4"/>
      <point x="220.16" y="462.56"/>
      <point x="220.16" y="415.22" type="curve" smooth="yes"/>
      <point x="220.16" y="347.02"/>
      <point x="186.6" y="68.06"/>
    </contour>
  </outline>
</glyph>
<glyph name="uni0162" format="2">
  <advance width="279.06"/>
  <unicode hex="0162"/>
  <anchor x="95.74027000000001" y="0.0" name="_bottom"/>
  <anchor x="47.36" y="-220.0" name="bottom"/>
  <outline>
    <contour>
      <point x="3.0299999999999994" y="-209.57" type="line"/>
      <point x="16.47" y="-217.14"/>
      <point x="31.049999999999997" y="-220.0"/>
      <point x="47.36" y="-220.0" type="curve" smooth="yes"/>
      <point x="106.27" y="-220.0"/>
      <point x="139.18" y="-161.14"/>
      <point x="139.18" y="-92.23" type="curve" smooth="yes"/>
      <point x="139.18" y="-59.24"/>
      <point x="135.04" y="-25.4"/>
      <point x="127.18" y="3.44" type="curve"/>
      <point x="75.64" y="3.01" type="line"/>
      <point x="82.21000000000001" y="-27.1"/>
      <point x="86.35" y="-52.92"/>
      <point x="86.35" y="-80.91" type="curve" smooth="yes"/>
      <point x="86.35" y="-130.45"/>
      <point x="67.2" y="-156.99"/>
      <point x="40.91" y="-156.99" type="curve" smooth="yes"/>
      <point x="31.619999999999997" y="-156.99"/>
      <point x="24.48" y="-154.85"/>
      <point x="16.189999999999998" y="-150.71" type="curve"/>
    </contour>
    <component base="T"/>
  </outline>
</glyph>
<glyph name="Tbar" format="2">
  <advance width="281.34"/>
  <unicode hex="0166"/>
  <outline>
    <contour>
      <point x="330.02" y="623.81" type="line"/>
      <point x="342.48" y="700.0" type="line"/>
      <point x="73.29" y="700.0" type="line"/>
      <point x="60.83" y="623.81" type="line"/>
      <point x="155.54" y="623.81" type="line"/>
      <point x="118.86" y="397.31" type="line"/>
      <point x="52.33" y="397.31" type="line"/>
      <point x="38.15" y="317.1" type="line"/>
      <point x="106.54" y="317.1" type="line"/>
      <point x="56.14" y="0.0" type="line"/>
      <point x="135.76999999999998" y="0.0" type="line"/>
      <point x="186.17000000000002" y="317.1" type="line"/>
      <point x="255.26999999999998" y="317.1" type="line"/>
      <point x="269.45" y="397.31" type="line"/>
      <point x="199.06" y="397.31" type="line"/>
      <point x="235.17000000000002" y="623.81" type="line"/>
    </contour>
  </outline>
</glyph>
<glyph name="tbar" format="2">
  <advance width="200.84"/>
  <unicode hex="0167"/>
  <outline>
    <contour>
      <point x="6.4" y="281.89" type="line"/>
      <point x="202.07999999999998" y="281.89" type="line"/>
      <point x="213.25" y="345.9" type="line"/>
      <point x="17.14" y="345.9" type="line"/>
    </contour>
    <contour>
      <point x="167.85" y="75.49000000000001" type="line"/>
      <point x="157.57" y="72.92"/>
      <point x="148.57999999999998" y="71.35"/>
      <point x="140.73" y="71.35" type="curve" smooth="yes"/>
      <point x="112.03999999999999" y="71.35"/>
      <point x="100.77" y="87.19999999999999"/>
      <point x="100.77" y="116.88" type="curve" smooth="yes"/>
      <point x="100.77" y="126.72999999999999"/>
      <point x="102.34" y="137.57999999999998"/>
      <point x="103.91" y="150.57" type="curve" smooth="yes"/>
      <point x="154.15" y="463.27" type="line"/>
      <point x="233.36" y="463.27" type="line"/>
      <point x="246.25" y="538.6" type="line"/>
      <point x="167.04" y="538.6" type="line"/>
      <point x="185.89" y="660.27" type="line"/>
      <point x="117.71" y="660.27" type="line"/>
      <point x="86.98" y="538.6" type="line"/>
      <point x="43.29" y="532.6" type="line"/>
      <point x="31.4" y="463.7" type="line"/>
      <point x="74.09" y="463.7" type="line"/>
      <point x="22.56" y="141.54" type="line" smooth="yes"/>
      <point x="18.7" y="118.52"/>
      <point x="15.98" y="90.48"/>
      <point x="15.98" y="72.61" type="curve" smooth="yes"/>
      <point x="15.98" y="13.41"/>
      <point x="48.18" y="-10.0"/>
      <point x="95.59" y="-10.0" type="curve" smooth="yes"/>
      <point x="119.2" y="-10.0"/>
      <point x="141.8" y="-5.42"/>
      <point x="162.1" y="4.74" type="curve"/>
    </contour>
  </outline>
</glyph>
<glyph name="uogonek" format="2">
  <advance width="320.18"/>
  <unicode hex="0173"/>
  <outline>
    <contour>
      <point x="216.57999999999998" y="-213.55" type="curve" smooth="yes"/>
      <point x="234.01999999999998" y="-213.55"/>
      <point x="249.46" y="-208.12"/>
      <point x="262.05" y="-200.69" type="curve"/>
      <point x="265.22" y="-135.23000000000002" type="line"/>
      <point x="261.8" y="-137.51"/>
      <point x="254.23000000000002" y="-140.65"/>
      <point x="245.51999999999998" y="-140.65" type="curve" smooth="yes"/>
      <point x="234.38" y="-140.65"/>
      <point x="228.1" y="-131.37"/>
      <point x="228.1" y="-115.67" type="curve" smooth="yes"/>
      <point x="228.1" y="-82.27000000000001"/>
      <point x="251.07999999999998" y="-35.47"/>
      <point x="284.02" y="6.45" type="curve"/>
      <point x="290.63" y="75.92" type="line"/>
      <point x="282.5" y="72.64"/>
      <point x="273.94" y="70.92999999999999"/>
      <point x="269.09000000000003" y="70.92999999999999" type="curve" smooth="yes"/>
      <point x="256.39" y="70.92999999999999"/>
      <point x="252.82" y="78.78"/>
      <point x="252.82" y="89.78" type="curve" smooth="yes"/>
      <point x="252.82" y="98.19999999999999"/>
      <point x="254.95999999999998" y="113.61"/>
      <point x="323.08" y="538.6" type="curve"/>
      <point x="243.88" y="538.6" type="line"/>
      <point x="172.47" y="90.46000000000001" type="line"/>
      <point x="154.5" y="76.34"/>
      <point x="133.26" y="69.78"/>
      <point x="120.56" y="69.78" type="curve" smooth="yes"/>
      <point x="100.59" y="69.78"/>
      <point x="90.32" y="82.47999999999999"/>
      <point x="91.18" y="102.17" type="curve" smooth="yes"/>
      <point x="98.92" y="160.03"/>
      <point x="109.95" y="228.22"/>
      <point x="158.59" y="538.6" type="curve"/>
      <point x="78.96000000000001" y="538.6" type="line"/>
      <point x="30.54" y="238.94"/>
      <point x="7.390000000000001" y="114.94"/>
      <point x="7.390000000000001" y="63.480000000000004" type="curve" smooth="yes"/>
      <point x="7.390000000000001" y="19.6"/>
      <point x="33.97" y="-10.0"/>
      <point x="81.15" y="-10.0" type="curve" smooth="yes"/>
      <point x="113.74" y="-10.0"/>
      <point x="139.74" y="3.01"/>
      <point x="171.75" y="31.18" type="curve"/>
      <point x="177.76" y="6.31"/>
      <point x="199.5" y="-10.0"/>
      <point x="227.96" y="-10.0" type="curve" smooth="yes"/>
      <point x="238.84" y="-10.0"/>
      <point x="246.85" y="1.75"/>
      <point x="244.68" y="13.07" type="curve"/>
      <point x="192.8" y="-40.47"/>
      <point x="155.06" y="-95.18"/>
      <point x="155.06" y="-150.34" type="curve" smooth="yes"/>
      <point x="155.06" y="-190.68"/>
      <point x="180.1" y="-213.55"/>
    </contour>
  </outline>
</glyph>
<glyph name="longs" format="2">
  <advance width="173.86"/>
  <unicode hex="017F"/>
  <outline>
    <contour>
      <point x="-58.36" y="-220.0" type="curve" smooth="yes"/>
      <point x="26.57" y="-220.0"/>
      <point x="66.32" y="-160.12"/>
      <point x="85.19" y="-40.47" type="curve" smooth="yes"/>
      <point x="171.47" y="503.35" type="line" smooth="yes"/>
      <point x="190.44" y="625.02"/>
      <point x="214.12" y="667.36"/>
      <point x="258.06" y="667.36" type="curve" smooth="yes"/>
      <point x="269.77" y="667.36"/>
      <point x="283.48" y="664.36"/>
      <point x="295.91" y="660.5" type="curve"/>
      <point x="320.54" y="733.54" type="line"/>
      <point x="298.95" y="743.27"/>
      <point x="278.07" y="750.0"/>
      <point x="249.73" y="750.0" type="curve" smooth="yes"/>
      <point x="168.86" y="750.0"/>
      <point x="117.11" y="676.57"/>
      <point x="90.98" y="503.35" type="curve"/>
      <point x="41.15" y="496.92" type="line"/>
      <point x="29.69" y="428.02" type="line"/>
      <point x="78.95" y="428.02" type="line"/>
      <point x="7.42" y="-26.009999999999998" type="line" smooth="yes"/>
      <point x="-3.0" y="-90.81"/>
      <point x="-20.85" y="-128.46"/>
      <point x="-62.08" y="-128.46" type="curve" smooth="yes"/>
      <point x="-73.64" y="-128.46"/>
      <point x="-82.92" y="-127.32000000000001"/>
      <point x="-98.06" y="-122.32000000000001" type="curve"/>
      <point x="-123.56" y="-208.27" type="line"/>
      <point x="-102.25" y="-216.28"/>
      <point x="-81.23" y="-220.0"/>
    </contour>
  </outline>
</glyph>
<glyph name="uni018F" format="2">
  <advance width="334.46"/>
  <unicode hex="018F"/>
  <outline>
    <contour>
      <point x="108.24" y="-10.0" type="curve" smooth="yes"/>
      <point x="242.18" y="-10.0"/>
      <point x="335.18" y="204.02"/>
      <point x="335.18" y="504.9" type="curve" smooth="yes"/>
      <point x="335.18" y="650.36"/>
      <point x="286.86" y="710.0"/>
      <point x="200.5" y="710.0" type="curve" smooth="yes"/>
      <point x="149.74" y="710.0"/>
      <point x="102.58" y="698.14"/>
      <point x="57.4" y="672.12" type="curve"/>
      <point x="77.44" y="593.34" type="line"/>
      <point x="110.44" y="612.92"/>
      <point x="143.02" y="624.06"/>
      <point x="179.16" y="624.06" type="curve" smooth="yes"/>
      <point x="237.68" y="624.06"/>
      <point x="255.12" y="583.26"/>
      <point x="255.12" y="478.42" type="curve" smooth="yes"/>
      <point x="255.12" y="280.24"/>
      <point x="192.34" y="75.08"/>
      <point x="122.14" y="75.08" type="curve" smooth="yes"/>
      <point x="90.46000000000001" y="75.08"/>
      <point x="74.19999999999999" y="102.19999999999999"/>
      <point x="74.19999999999999" y="147.57999999999998" type="curve" smooth="yes"/>
      <point x="74.19999999999999" y="256.9"/>
      <point x="134.72" y="329.22"/>
      <point x="221.16" y="329.22" type="curve" smooth="yes"/>
      <point x="231.3" y="329.22"/>
      <point x="241.72" y="329.08"/>
      <point x="253.14" y="328.08" type="curve"/>
      <point x="256.86" y="407.14" type="line"/>
      <point x="247.58" y="408.28"/>
      <point x="238.44" y="408.28"/>
      <point x="228.3" y="408.28" type="curve" smooth="yes"/>
      <point x="81.72" y="408.28"/>
      <point x="-5.0" y="301.58"/>
      <point x="-5.0" y="130.82" type="curve" smooth="yes"/>
      <point x="-5.0" y="46.480000000000004"/>
      <point x="37.32" y="-10.0"/>
    </contour>
  </outline>
</glyph>
<glyph name="florin" format="2">
  <advance width="323.1"/>
  <unicode hex="0192"/>
  <outline>
    <contour>
      <point x="198.78" y="320.42" type="line"/>
      <point x="254.6" y="320.42" type="line"/>
      <point x="266.63" y="395.18" type="line"/>
      <point x="210.81" y="395.18" type="line"/>
      <point x="221.24" y="459.48" type="line" smooth="yes"/>
      <point x="239.78" y="576.42"/>
      <point x="257.9" y="621.48"/>
      <point x="295.0" y="621.48" type="curve" smooth="yes"/>
      <point x="305.0" y="621.48"/>
      <point x="312.57" y="619.48"/>
      <point x="323.86" y="615.05" type="curve"/>
      <point x="352.5" y="693.54" type="line"/>
      <point x="333.19" y="703.27"/>
      <point x="314.02" y="710.0"/>
      <point x="286.82" y="710.0" type="curve" smooth="yes"/>
      <point x="213.93" y="710.0"/>
      <point x="170.88" y="643.98"/>
      <point x="142.61" y="469.8" type="curve" smooth="yes"/>
      <point x="130.46" y="395.18" type="line"/>
      <point x="80.06" y="392.17" type="line"/>
      <point x="68.03" y="320.42" type="line"/>
      <point x="118.43" y="320.42" type="line"/>
      <point x="34.88" y="-210.0" type="line"/>
      <point x="115.23" y="-210.0" type="line"/>
    </contour>
  </outline>
</glyph>
<glyph name="uni0237" format="2">
  <advance width="156.97"/>
  <unicode hex="0237"/>
  <anchor x="-60.2" y="-210.0" name="bottom"/>
  <anchor x="122.34" y="538.6" name="top"/>
  <outline>
    <contour>
      <point x="163.73" y="538.6" type="line"/>
      <point x="82.81" y="538.6" type="line"/>
      <point x="-6.459999999999999" y="-24.29" type="line" smooth="yes"/>
      <point x="-16.88" y="-89.09"/>
      <point x="-35.44" y="-128.18"/>
      <point x="-76.67" y="-128.18" type="curve" smooth="yes"/>
      <point x="-88.66" y="-128.18"/>
      <point x="-97.94" y="-127.04"/>
      <point x="-112.65" y="-122.04" type="curve"/>
      <point x="-136.0" y="-209.13" type="line"/>
      <point x="-114.69" y="-217.14"/>
      <point x="-90.66" y="-220.0"/>
      <point x="-69.94" y="-220.0" type="curve" smooth="yes"/>
      <point x="14.990000000000002" y="-220.0"/>
      <point x="52.44" y="-161.12"/>
      <point x="71.74000000000001" y="-38.32" type="curve" smooth="yes"/>
    </contour>
  </outline>
</glyph>
<glyph name="uni0259" format="2">
  <advance width="301.74"/>
  <unicode hex="0259"/>
  <outline>
    <contour>
      <point x="226.46" y="264.82" type="curve"/>
      <point x="239.36" y="328.26" type="line"/>
      <point x="203.92" y="325.7"/>
      <point x="166.06" y="316.56"/>
      <point x="133.48" y="301.14" type="curve" smooth="yes"/>
      <point x="49.019999999999996" y="261.72"/>
      <point x="-10.14" y="184.98"/>
      <point x="-10.14" y="92.8" type="curve" smooth="yes"/>
      <point x="-10.14" y="32.04"/>
      <point x="21.46" y="-10.0"/>
      <point x="87.1" y="-10.0" type="curve" smooth="yes"/>
      <point x="216.34" y="-10.0"/>
      <point x="284.9" y="168.44"/>
      <point x="284.9" y="372.52" type="curve" smooth="yes"/>
      <point x="284.9" y="499.54"/>
      <point x="236.74" y="548.6"/>
      <point x="159.94" y="548.6" type="curve" smooth="yes"/>
      <point x="116.34" y="548.6"/>
      <point x="79.16" y="537.88"/>
      <point x="51.12" y="521.86" type="curve"/>
      <point x="67.58" y="446.52" type="line"/>
      <point x="94.46" y="459.96"/>
      <point x="118.62" y="467.1"/>
      <point x="144.62" y="467.1" type="curve" smooth="yes"/>
      <point x="178.88" y="467.1"/>
      <point x="208.56" y="448.84000000000003"/>
      <point x="208.56" y="359.62" type="curve" smooth="yes"/>
      <point x="208.56" y="193.18"/>
      <point x="159.34" y="63.76"/>
      <point x="100.28" y="63.76" type="curve" smooth="yes"/>
      <point x="74.18" y="63.76"/>
      <point x="64.62" y="82.88"/>
      <point x="64.62" y="109.56" type="curve" smooth="yes"/>
      <point x="64.62" y="162.8"/>
      <point x="97.72" y="211.6"/>
      <point x="148.1" y="241.0" type="curve" smooth="yes"/>
      <point x="170.22" y="253.84"/>
      <point x="197.34" y="262.26"/>
    </contour>
  </outline>
</glyph>
<glyph name="gravecomb" format="2">
  <unicode hex="0300"/>
  <anchor x="-115.69" y="538.6" name="_top"/>
  <anchor x="-114.52" y="743.97" name="top"/>
  <outline>
    <contour>
      <point x="-129.18" y="595.57" type="line"/>
      <point x="-67.17" y="595.57" type="line"/>
      <point x="-96.99" y="789.57" type="line"/>
      <point x="-177.62" y="789.57" type="line"/>
    </contour>
  </outline>
</glyph>
<glyph name="acutecomb" format="2">
  <unicode hex="0301"/>
  <anchor x="-115.69" y="538.6" name="_top"/>
  <anchor x="-52.26" y="743.97" name="top"/>
  <outline>
    <contour>
      <point x="-147.07" y="595.57" type="line"/>
      <point x="-83.77" y="595.57" type="line"/>
      <point x="24.8" y="789.57" type="line"/>
      <point x="-58.980000000000004" y="789.57" type="line"/>
    </contour>
  </outline>
</glyph>
<glyph name="uni0302" format="2">
  <unicode hex="0302"/>
  <anchor x="-115.69" y="538.6" name="_top"/>
  <anchor x="-79.83" y="759.34" name="top"/>
  <anchor x="33.61" y="662.97" name="top_viet"/>
  <outline>
    <contour>
      <point x="-207.23000000000002" y="595.57" type="line"/>
      <point x="-140.92" y="595.57" type="line"/>
      <point x="-82.71000000000001" y="742.06" type="line"/>
      <point x="-71.33" y="595.57" type="line"/>
      <point x="-5.59" y="595.57" type="line"/>
      <point x="-31.58" y="789.57" type="line"/>
      <point x="-118.95" y="789.57" type="line"/>
    </contour>
  </outline>
</glyph>
<glyph name="tildecomb" format="2">
  <unicode hex="0303"/>
  <anchor x="-116.12" y="538.6" name="_top"/>
  <anchor x="-92.66" y="681.94" name="top"/>
  <outline>
    <contour>
      <point x="-210.8" y="600.56" type="curve"/>
      <point x="-160.54" y="600.56" type="line"/>
      <point x="-160.54" y="601.84"/>
      <point x="-160.54" y="606.7"/>
      <point x="-160.54" y="607.98" type="curve" smooth="yes"/>
      <point x="-160.54" y="638.06"/>
      <point x="-148.84" y="669.48"/>
      <point x="-130.56" y="669.48" type="curve" smooth="yes"/>
      <point x="-111.03999999999999" y="669.48"/>
      <point x="-111.12" y="603.14"/>
      <point x="-62.96" y="603.14" type="curve" smooth="yes"/>
      <point x="-18.5" y="603.14"/>
      <point x="10.96" y="645.98"/>
      <point x="17.84" y="721.88" type="curve" smooth="yes"/>
      <point x="18.7" y="729.9"/>
      <point x="19.56" y="737.78"/>
      <point x="20.42" y="746.66" type="curve"/>
      <point x="-29.839999999999996" y="746.66" type="line"/>
      <point x="-29.839999999999996" y="744.52"/>
      <point x="-30.700000000000003" y="738.22"/>
      <point x="-30.700000000000003" y="737.8" type="curve" smooth="yes"/>
      <point x="-33.28" y="716.96"/>
      <point x="-37.839999999999996" y="674.46"/>
      <point x="-56.519999999999996" y="674.46" type="curve" smooth="yes"/>
      <point x="-77.2" y="674.46"/>
      <point x="-77.7" y="739.66"/>
      <point x="-128.42000000000002" y="739.66" type="curve" smooth="yes"/>
      <point x="-173.46" y="739.66"/>
      <point x="-201.34" y="697.08"/>
      <point x="-208.22" y="629.04" type="curve" smooth="yes"/>
      <point x="-209.07999999999998" y="620.74"/>
      <point x="-209.94" y="610.58"/>
    </contour>
  </outline>
</glyph>
<glyph name="uni0304" format="2">
  <unicode hex="0304"/>
  <anchor x="-116.12" y="538.6" name="_top"/>
  <anchor x="-86.4" y="726.5" name="top"/>
  <outline>
    <contour>
      <point x="-186.36" y="648.88" type="line"/>
      <point x="-10.5" y="648.88" type="line"/>
      <point x="0.2400000000000002" y="717.9" type="line"/>
      <point x="-175.62" y="717.9" type="line"/>
    </contour>
  </outline>
</glyph>
<glyph name="uni0306" format="2">
  <unicode hex="0306"/>
  <anchor x="-115.69" y="538.6" name="_top"/>
  <anchor x="-87.11" y="724.38" name="top"/>
  <outline>
    <contour>
      <point x="-106.27" y="602.28" type="curve" smooth="yes"/>
      <point x="-27.33" y="602.28"/>
      <point x="8.41" y="641.0"/>
      <point x="20.27" y="746.07" type="curve"/>
      <point x="-28.839999999999996" y="746.07" type="line"/>
      <point x="-35.12" y="698.13"/>
      <point x="-53.09" y="665.72"/>
      <point x="-95.96000000000001" y="665.72" type="curve" smooth="yes"/>
      <point x="-131.4" y="665.72"/>
      <point x="-143.39" y="684.57"/>
      <point x="-143.39" y="716.39" type="curve" smooth="yes"/>
      <point x="-143.39" y="727.23"/>
      <point x="-142.82" y="735.36"/>
      <point x="-140.25" y="746.07" type="curve"/>
      <point x="-188.79" y="746.07" type="line"/>
      <point x="-193.07999999999998" y="727.33"/>
      <point x="-195.51" y="705.32"/>
      <point x="-195.51" y="687.03" type="curve" smooth="yes"/>
      <point x="-195.51" y="620.98"/>
      <point x="-161.46" y="602.28"/>
    </contour>
  </outline>
</glyph>
<glyph name="uni0307" format="2">
  <unicode hex="0307"/>
  <anchor x="-115.69" y="538.6" name="_top"/>
  <anchor x="-91.09" y="682.31" name="top"/>
  <outline>
    <contour>
      <point x="-100.0" y="638.59" type="curve" smooth="yes"/>
      <point x="-64.64" y="638.59"/>
      <point x="-54.19" y="673.24"/>
      <point x="-54.19" y="702.44" type="curve" smooth="yes"/>
      <point x="-54.19" y="725.92"/>
      <point x="-65.65" y="733.93"/>
      <point x="-85.53999999999999" y="733.93" type="curve" smooth="yes"/>
      <point x="-119.9" y="733.93"/>
      <point x="-130.78" y="697.85"/>
      <point x="-130.78" y="668.51" type="curve" smooth="yes"/>
      <point x="-130.78" y="645.6"/>
      <point x="-118.75" y="638.59"/>
    </contour>
  </outline>
</glyph>
<glyph name="uni0308" format="2">
  <unicode hex="0308"/>
  <anchor x="-115.69" y="538.6" name="_top"/>
  <anchor x="-93.67" y="682.31" name="top"/>
  <outline>
    <contour>
      <point x="-39.379999999999995" y="641.17" type="curve" smooth="yes"/>
      <point x="-15.91" y="641.17"/>
      <point x="-0.7299999999999995" y="654.32"/>
      <point x="4.0" y="691.83" type="curve" smooth="yes"/>
      <point x="9.16" y="726.35"/>
      <point x="-2.3" y="736.51"/>
      <point x="-24.06" y="736.51" type="curve" smooth="yes"/>
      <point x="-47.099999999999994" y="736.51"/>
      <point x="-62.71" y="721.79"/>
      <point x="-67.87" y="683.85" type="curve" smooth="yes"/>
      <point x="-72.6" y="650.33"/>
      <point x="-59.85" y="641.17"/>
    </contour>
    <contour>
      <point x="-161.32999999999998" y="641.17" type="curve" smooth="yes"/>
      <point x="-137.86" y="641.17"/>
      <point x="-122.25" y="654.32"/>
      <point x="-117.52" y="691.83" type="curve" smooth="yes"/>
      <point x="-112.36" y="726.35"/>
      <point x="-125.11" y="736.51"/>
      <point x="-146.01" y="736.51" type="curve" smooth="yes"/>
      <point x="-169.62" y="736.51"/>
      <point x="-184.23000000000002" y="720.08"/>
      <point x="-189.39" y="683.85" type="curve" smooth="yes"/>
      <point x="-194.12" y="650.33"/>
      <point x="-182.66" y="641.17"/>
    </contour>
  </outline>
</glyph>
<glyph name="hookabovecomb" format="2">
  <unicode hex="0309"/>
  <anchor x="-116.12" y="538.6" name="_top"/>
  <anchor x="-77.0" y="799.16" name="top"/>
  <outline>
    <contour>
      <point x="-121.46000000000001" y="601.98" type="line"/>
      <point x="-38.5" y="624.32"/>
      <point x="-12.2" y="663.74"/>
      <point x="-12.2" y="717.64" type="curve" smooth="yes"/>
      <point x="-12.2" y="760.38"/>
      <point x="-39.8" y="794.0"/>
      <point x="-89.88" y="794.0" type="curve" smooth="yes"/>
      <point x="-110.46000000000001" y="794.0"/>
      <point x="-129.46" y="789.58"/>
      <point x="-147.18" y="779.62" type="curve"/>
      <point x="-145.5" y="718.02" type="line"/>
      <point x="-129.06" y="723.84"/>
      <point x="-120.36" y="726.26"/>
      <point x="-107.36" y="726.26" type="curve" smooth="yes"/>
      <point x="-88.64" y="726.26"/>
      <point x="-79.22" y="715.56"/>
      <point x="-79.22" y="701.02" type="curve" smooth="yes"/>
      <point x="-79.22" y="678.2"/>
      <point x="-93.06" y="666.3"/>
      <point x="-126.44" y="650.68" type="curve"/>
    </contour>
  </outline>
</glyph>
<glyph name="uni030A" format="2">
  <unicode hex="030A"/>
  <anchor x="-115.69" y="538.6" name="_top"/>
  <anchor x="-80.53999999999999" y="760.93" name="top"/>
  <outline>
    <contour>
      <point x="-99.4" y="604.1" type="curve" smooth="yes"/>
      <point x="-48.489999999999995" y="604.1"/>
      <point x="-16.48" y="645.26"/>
      <point x="-16.48" y="710.13" type="curve" smooth="yes"/>
      <point x="-16.48" y="757.01"/>
      <point x="-41.370000000000005" y="785.04"/>
      <point x="-81.99000000000001" y="785.04" type="curve" smooth="yes"/>
      <point x="-133.47" y="785.04"/>
      <point x="-164.91" y="743.31"/>
      <point x="-164.91" y="677.3" type="curve" smooth="yes"/>
      <point x="-164.91" y="631.56"/>
      <point x="-140.01999999999998" y="604.1"/>
    </contour>
    <contour>
      <point x="-96.4" y="650.34" type="curve" smooth="yes"/>
      <point x="-111.25" y="650.34"/>
      <point x="-118.53" y="661.19"/>
      <point x="-118.53" y="678.03" type="curve" smooth="yes"/>
      <point x="-118.53" y="715.12"/>
      <point x="-105.25999999999999" y="738.8"/>
      <point x="-84.99000000000001" y="738.8" type="curve" smooth="yes"/>
      <point x="-70.14" y="738.8"/>
      <point x="-62.86" y="727.38"/>
      <point x="-62.86" y="709.97" type="curve" smooth="yes"/>
      <point x="-62.86" y="673.45"/>
      <point x="-76.7" y="650.34"/>
    </contour>
  </outline>
</glyph>
<glyph name="uni030B" format="2">
  <unicode hex="030B"/>
  <anchor x="-115.69" y="538.6" name="_top"/>
  <anchor x="-49.14" y="789.57" name="top"/>
  <outline>
    <contour>
      <point x="-87.7" y="595.57" type="line"/>
      <point x="-34.72" y="595.57" type="line"/>
      <point x="63.11" y="789.57" type="line"/>
      <point x="-5.479999999999997" y="789.57" type="line"/>
    </contour>
    <contour>
      <point x="-192.39" y="595.57" type="line"/>
      <point x="-139.41" y="595.57" type="line"/>
      <point x="-41.58" y="789.57" type="line"/>
      <point x="-110.6" y="789.57" type="line"/>
    </contour>
  </outline>
</glyph>
<glyph name="uni030F" format="2">
  <unicode hex="030F"/>
  <anchor x="-115.69" y="538.6" name="_top"/>
  <anchor x="-116.55" y="789.57" name="top"/>
  <outline>
    <contour>
      <point x="-184.68" y="595.57" type="line"/>
      <point x="-131.26999999999998" y="595.57" type="line"/>
      <point x="-155.39" y="789.57" type="line"/>
      <point x="-227.42000000000002" y="789.57" type="line"/>
    </contour>
    <contour>
      <point x="-77.55" y="595.57" type="line"/>
      <point x="-24.14" y="595.57" type="line"/>
      <point x="-48.26" y="789.57" type="line"/>
      <point x="-120.28999999999999" y="789.57" type="line"/>
    </contour>
  </outline>
</glyph>
<glyph name="uni0312" format="2">
  <unicode hex="0312"/>
  <anchor x="-115.69" y="538.6" name="_top"/>
  <outline>
    <contour>
      <point x="-66.74" y="593.71" type="line"/>
      <point x="-67.88" y="603.71"/>
      <point x="-67.88" y="615.14"/>
      <point x="-66.59" y="628.72" type="curve" smooth="yes"/>
      <point x="-64.44" y="671.55"/>
      <point x="-48.87" y="721.23"/>
      <point x="-23.009999999999998" y="768.07" type="curve"/>
      <point x="-78.14" y="768.07" type="line"/>
      <point x="-110.16" y="722.23"/>
      <point x="-131.32" y="667.69"/>
      <point x="-133.04" y="616.4" type="curve" smooth="yes"/>
      <point x="-133.04" y="608.41"/>
      <point x="-133.04" y="600.56"/>
      <point x="-131.9" y="593.71" type="curve"/>
    </contour>
  </outline>
</glyph>
